LibreFranklin-Regular.ufo
<glyph name="exclam" format="2">
  <advance width="244.375"/>
  <unicode hex="0021"/>
  <outline>
    <contour>
      <point x="172.85" y="15.95" type="curve"/>
      <point x="172.85" y="100.15" type="line"/>
      <point x="172.85" y="108.075"/>
      <point x="169.75" y="111.45"/>
      <point x="162.825" y="111.45" type="curve"/>
      <point x="80.45" y="111.45" type="line" smooth="yes"/>
      <point x="74.525" y="111.45"/>
      <point x="70.15" y="108.075"/>
      <point x="70.15" y="98.875" type="curve"/>
      <point x="70.15" y="14.125" type="line" smooth="yes"/>
      <point x="70.15" y="4.375"/>
      <point x="73.525" y="0.0"/>
      <point x="84.825" y="0.0" type="curve"/>
      <point x="154.35" y="0.0" type="line" smooth="yes"/>
      <point x="168.2" y="0.0"/>
      <point x="172.85" y="4.375"/>
    </contour>
    <contour>
      <point x="151.25" y="193.95" type="curve"/>
      <point x="172.425" y="731.875" type="line"/>
      <point x="172.7" y="737.625"/>
      <point x="169.05" y="742.0"/>
      <point x="163.125" y="742.0" type="curve"/>
      <point x="80.7" y="742.0" type="line" smooth="yes"/>
      <point x="75.225" y="742.0"/>
      <point x="71.3" y="738.35"/>
      <point x="71.85" y="730.6" type="curve"/>
      <point x="92.85" y="192.4" type="line" smooth="yes"/>
      <point x="93.4" y="184.1"/>
      <point x="95.95" y="180.45"/>
      <point x="105.8" y="180.45" type="curve"/>
      <point x="134.925" y="180.45" type="line" smooth="yes"/>
      <point x="146.325" y="180.45"/>
      <point x="150.7" y="184.1"/>
    </contour>
  </outline>
</glyph>
<glyph name="numbersign" format="2">
  <advance width="603.0"/>
  <unicode hex="0023"/>
  <outline>
    <contour>
      <point x="174.775" y="13.600000000000001" type="curve"/>
      <point x="283.2" y="723.975" type="line"/>
      <point x="284.475" y="732.625"/>
      <point x="280.825" y="736.45"/>
      <point x="273.45" y="737.45" type="curve"/>
      <point x="239.275" y="742.0" type="line" smooth="yes"/>
      <point x="234.075" y="743.0"/>
      <point x="230.525" y="738.075"/>
      <point x="228.975" y="731.05" type="curve"/>
      <point x="120.0" y="15.225000000000001" type="line" smooth="yes"/>
      <point x="119.45" y="7.825"/>
      <point x="123.2" y="5.825"/>
      <point x="132.325" y="4.275" type="curve"/>
      <point x="160.175" y="0.0" type="line" smooth="yes"/>
      <point x="169.95" y="-1.55"/>
      <point x="173.225" y="2.6500000000000004"/>
    </contour>
    <contour>
      <point x="383.55" y="13.600000000000001" type="curve"/>
      <point x="491.975" y="723.975" type="line"/>
      <point x="493.25" y="732.625"/>
      <point x="489.6" y="736.45"/>
      <point x="482.225" y="737.45" type="curve"/>
      <point x="448.05" y="742.0" type="line" smooth="yes"/>
      <point x="442.85" y="743.0"/>
      <point x="439.3" y="738.075"/>
      <point x="437.75" y="731.05" type="curve"/>
      <point x="328.775" y="15.225000000000001" type="line" smooth="yes"/>
      <point x="328.225" y="7.825"/>
      <point x="331.975" y="5.825"/>
      <point x="341.1" y="4.275" type="curve"/>
      <point x="368.95" y="0.0" type="line" smooth="yes"/>
      <point x="378.725" y="-1.55"/>
      <point x="382.0" y="2.6500000000000004"/>
    </contour>
    <contour>
      <point x="536.0" y="255.8" type="curve"/>
      <point x="536.0" y="286.4" type="line"/>
      <point x="536.0" y="292.6"/>
      <point x="531.9" y="296.25"/>
      <point x="525.975" y="296.25" type="curve"/>
      <point x="42.85" y="296.25" type="line" smooth="yes"/>
      <point x="37.375" y="296.25"/>
      <point x="34.0" y="292.6"/>
      <point x="34.0" y="284.85" type="curve"/>
      <point x="34.0" y="254.25" type="line" smooth="yes"/>
      <point x="34.0" y="245.95"/>
      <point x="37.1" y="242.3"/>
      <point x="46.95" y="242.3" type="curve"/>
      <point x="519.675" y="242.3" type="line" smooth="yes"/>
      <point x="531.075" y="242.3"/>
      <point x="536.0" y="245.95"/>
    </contour>
    <contour>
      <point x="569.0" y="465.8" type="curve"/>
      <point x="569.0" y="496.4" type="line"/>
      <point x="569.0" y="502.6"/>
      <point x="564.9" y="506.25"/>
      <point x="558.975" y="506.25" type="curve"/>
      <point x="75.85" y="506.25" type="line" smooth="yes"/>
      <point x="70.375" y="506.25"/>
      <point x="67.0" y="502.6"/>
      <point x="67.0" y="494.85" type="curve"/>
      <point x="67.0" y="464.25" type="line" smooth="yes"/>
      <point x="67.0" y="455.95"/>
      <point x="70.1" y="452.3"/>
      <point x="79.95" y="452.3" type="curve"/>
      <point x="552.675" y="452.3" type="line" smooth="yes"/>
      <point x="564.075" y="452.3"/>
      <point x="569.0" y="455.95"/>
    </contour>
  </outline>
</glyph>
<glyph name="dollar" format="2">
  <advance width="605.075"/>
  <unicode hex="0024"/>
  <outline>
    <contour>
      <point x="567.275" y="183.975" type="curve"/>
      <point x="567.275" y="183.975" type="line"/>
      <point x="567.275" y="281.175"/>
      <point x="503.425" y="348.4"/>
      <point x="393.55" y="389.8" type="curve"/>
      <point x="355.55" y="402.9" type="line" smooth="yes"/>
      <point x="346.275" y="406.35"/>
      <point x="344.0" y="408.625"/>
      <point x="344.0" y="417.075" type="curve"/>
      <point x="344.0" y="667.65" type="line" smooth="yes"/>
      <point x="344.0" y="673.65"/>
      <point x="346.825" y="677.2"/>
      <point x="354.375" y="675.65" type="curve"/>
      <point x="409.025" y="666.825"/>
      <point x="457.5" y="641.125"/>
      <point x="485.375" y="608.0" type="curve"/>
      <point x="494.125" y="598.35"/>
      <point x="498.05" y="598.725"/>
      <point x="504.15" y="604.65" type="curve"/>
      <point x="538.975" y="641.175" type="line"/>
      <point x="545.8" y="648.1"/>
      <point x="543.525" y="654.75"/>
      <point x="537.6" y="659.3" type="curve"/>
      <point x="488.25" y="706.15"/>
      <point x="431.35" y="736.575"/>
      <point x="353.75" y="746.6" type="curve"/>
      <point x="347.1" y="747.425"/>
      <point x="344.275" y="750.15"/>
      <point x="344.275" y="754.7" type="curve"/>
      <point x="344.275" y="803.2" type="line" smooth="yes"/>
      <point x="344.275" y="812.95"/>
      <point x="340.625" y="816.5"/>
      <point x="332.425" y="816.5" type="curve"/>
      <point x="291.65" y="816.5" type="line" smooth="yes"/>
      <point x="286.825" y="816.5"/>
      <point x="283.175" y="812.95"/>
      <point x="283.175" y="807.025" type="curve"/>
      <point x="283.175" y="757.9" type="line" smooth="yes"/>
      <point x="283.175" y="751.7"/>
      <point x="276.875" y="747.6"/>
      <point x="271.5" y="747.05" type="curve"/>
      <point x="143.175" y="732.0"/>
      <point x="59.025" y="654.525"/>
      <point x="59.025" y="546.9" type="curve"/>
      <point x="59.025" y="449.15"/>
      <point x="111.225" y="393.75"/>
      <point x="263.925" y="339.025" type="curve"/>
      <point x="277.1" y="333.125"/>
      <point x="283.9" y="326.5"/>
      <point x="283.9" y="314.775" type="curve"/>
      <point x="283.625" y="69.975" type="line" smooth="yes"/>
      <point x="283.625" y="63.325"/>
      <point x="280.8" y="61.325"/>
      <point x="273.6" y="61.875" type="curve"/>
      <point x="189.075" y="65.17500000000001"/>
      <point x="138.825" y="98.425"/>
      <point x="92.775" y="156.25" type="curve"/>
      <point x="87.3" y="162.175"/>
      <point x="78.75" y="162.45"/>
      <point x="71.55" y="156.15" type="curve"/>
      <point x="38.775" y="124.975" type="line" smooth="yes"/>
      <point x="32.125" y="119.5"/>
      <point x="32.775" y="112.3"/>
      <point x="41.175" y="103.375" type="curve"/>
      <point x="95.75" y="32.275"/>
      <point x="163.2" y="-5.6"/>
      <point x="274.5" y="-7.525" type="curve"/>
      <point x="281.25" y="-7.525"/>
      <point x="283.075" y="-9.35"/>
      <point x="283.075" y="-17.1" type="curve"/>
      <point x="283.075" y="-76.725" type="line" smooth="yes"/>
      <point x="283.075" y="-83.575"/>
      <point x="286.45" y="-87.5"/>
      <point x="295.575" y="-87.5" type="curve"/>
      <point x="331.4" y="-87.5" type="line" smooth="yes"/>
      <point x="341.075" y="-87.5"/>
      <point x="345.0" y="-83.575"/>
      <point x="345.0" y="-73.725" type="curve"/>
      <point x="345.0" y="-17.65" type="line" smooth="yes"/>
      <point x="345.0" y="-10.35"/>
      <point x="347.0" y="-8.075"/>
      <point x="356.575" y="-7.525" type="curve"/>
      <point x="482.625" y="-2.5749999999999993"/>
      <point x="567.275" y="77.1"/>
    </contour>
    <contour>
      <point x="283.175" y="669.375" type="curve"/>
      <point x="283.175" y="441.0" type="line"/>
      <point x="283.175" y="426.9"/>
      <point x="275.0" y="423.075"/>
      <point x="263.175" y="427.25" type="curve"/>
      <point x="168.8" y="466.6"/>
      <point x="139.1" y="502.1"/>
      <point x="139.1" y="552.775" type="curve"/>
      <point x="139.1" y="619.1"/>
      <point x="190.725" y="669.2"/>
      <point x="272.075" y="678.3" type="curve"/>
      <point x="279.175" y="679.575"/>
      <point x="283.175" y="676.025"/>
    </contour>
    <contour>
      <point x="344.725" y="67.875" type="curve"/>
      <point x="344.725" y="67.875" type="line"/>
      <point x="344.725" y="302.225" type="line" smooth="yes"/>
      <point x="344.725" y="313.225"/>
      <point x="350.625" y="314.225"/>
      <point x="360.075" y="311.05" type="curve"/>
      <point x="450.15" y="276.95"/>
      <point x="486.65" y="239.075"/>
      <point x="486.65" y="177.525" type="curve"/>
      <point x="486.65" y="113.0"/>
      <point x="435.275" y="64.35"/>
      <point x="353.925" y="61.6" type="curve"/>
      <point x="347.825" y="61.05"/>
      <point x="344.725" y="63.05"/>
    </contour>
  </outline>
</glyph>
<glyph name="percent" format="2">
  <advance width="915.875"/>
  <unicode hex="0025"/>
  <outline>
    <contour>
      <point x="229.0" y="753.0" type="curve"/>
      <point x="229.0" y="753.0" type="line"/>
      <point x="128.875" y="753.0"/>
      <point x="55.375" y="671.75"/>
      <point x="55.375" y="541.0" type="curve"/>
      <point x="55.375" y="409.075"/>
      <point x="128.325" y="328.925"/>
      <point x="229.0" y="328.925" type="curve"/>
      <point x="328.675" y="328.925"/>
      <point x="400.625" y="409.075"/>
      <point x="400.625" y="541.0" type="curve"/>
      <point x="400.625" y="671.75"/>
      <point x="328.125" y="753.0"/>
    </contour>
    <contour>
      <point x="228.0" y="377.625" type="curve"/>
      <point x="228.0" y="377.625" type="line"/>
      <point x="160.175" y="377.625"/>
      <point x="120.625" y="444.35"/>
      <point x="120.625" y="540.0" type="curve"/>
      <point x="120.625" y="636.75"/>
      <point x="160.45" y="704.575"/>
      <point x="228.0" y="704.575" type="curve"/>
      <point x="295.55" y="704.575"/>
      <point x="335.375" y="637.75"/>
      <point x="335.375" y="540.0" type="curve"/>
      <point x="335.375" y="443.625"/>
      <point x="296.1" y="377.625"/>
    </contour>
    <contour>
      <point x="688.875" y="414.075" type="curve"/>
      <point x="688.875" y="414.075" type="line"/>
      <point x="588.75" y="414.075"/>
      <point x="515.25" y="332.825"/>
      <point x="515.25" y="202.075" type="curve"/>
      <point x="515.25" y="70.15"/>
      <point x="588.2" y="-10.0"/>
      <point x="688.875" y="-10.0" type="curve"/>
      <point x="788.55" y="-10.0"/>
      <point x="860.5" y="70.15"/>
      <point x="860.5" y="202.075" type="curve"/>
      <point x="860.5" y="332.825"/>
      <point x="788.0" y="414.075"/>
    </contour>
    <contour>
      <point x="687.875" y="38.7" type="curve"/>
      <point x="687.875" y="38.7" type="line"/>
      <point x="622.225" y="38.7"/>
      <point x="580.5" y="107.6"/>
      <point x="580.5" y="201.075" type="curve"/>
      <point x="580.5" y="295.65"/>
      <point x="622.5" y="365.65"/>
      <point x="687.875" y="365.65" type="curve"/>
      <point x="753.25" y="365.65"/>
      <point x="795.25" y="296.65"/>
      <point x="795.25" y="201.075" type="curve"/>
      <point x="795.25" y="106.875"/>
      <point x="753.8" y="38.7"/>
    </contour>
    <component base="fraction" xOffset="338.975"/>
  </outline>
</glyph>
<glyph name="ampersand" format="2">
  <advance width="777.95"/>
  <unicode hex="0026"/>
  <outline>
    <contour>
      <point x="337.65" y="753.0" type="curve"/>
      <point x="337.65" y="753.0" type="line"/>
      <point x="217.675" y="753.0"/>
      <point x="128.45" y="673.825"/>
      <point x="128.45" y="568.55" type="curve"/>
      <point x="128.45" y="516.75"/>
      <point x="150.725" y="468.825"/>
      <point x="194.525" y="422.475" type="curve"/>
      <point x="207.25" y="408.475"/>
      <point x="206.25" y="405.2"/>
      <point x="193.25" y="397.475" type="curve"/>
      <point x="82.575" y="331.925"/>
      <point x="39.725" y="268.2"/>
      <point x="39.725" y="189.2" type="curve"/>
      <point x="39.725" y="70.625"/>
      <point x="124.025" y="-5.0"/>
      <point x="261.75" y="-5.0" type="curve"/>
      <point x="347.975" y="-5.0"/>
      <point x="421.975" y="24.7"/>
      <point x="485.625" y="79.95" type="curve"/>
      <point x="492.825" y="86.05"/>
      <point x="497.1" y="86.05"/>
      <point x="504.3" y="80.95" type="curve"/>
      <point x="558.7" y="38.125"/>
      <point x="656.625" y="0.0"/>
      <point x="734.525" y="0.0" type="curve"/>
      <point x="748.075" y="0.0"/>
      <point x="752.725" y="5.2"/>
      <point x="752.725" y="18.125" type="curve"/>
      <point x="752.725" y="61.175000000000004" type="line" smooth="yes"/>
      <point x="752.725" y="70.375"/>
      <point x="748.625" y="74.2"/>
      <point x="737.7" y="74.475" type="curve"/>
      <point x="677.85" y="75.30000000000001"/>
      <point x="606.7" y="102.875"/>
      <point x="570.55" y="136.275" type="curve"/>
      <point x="562.9" y="142.55"/>
      <point x="562.175" y="146.0"/>
      <point x="568.55" y="153.2" type="curve"/>
      <point x="631.225" y="220.275"/>
      <point x="693.275" y="308.1"/>
      <point x="713.1" y="366.425" type="curve"/>
      <point x="715.2" y="372.9"/>
      <point x="710.825" y="380.2"/>
      <point x="704.075" y="382.75" type="curve"/>
      <point x="663.975" y="396.625" type="line" smooth="yes"/>
      <point x="656.775" y="399.175"/>
      <point x="649.95" y="397.625"/>
      <point x="646.85" y="389.975" type="curve"/>
      <point x="630.675" y="344.1"/>
      <point x="567.825" y="251.225"/>
      <point x="520.45" y="205.55" type="curve"/>
      <point x="511.45" y="196.45"/>
      <point x="509.8" y="196.45"/>
      <point x="502.975" y="204.0" type="curve"/>
      <point x="346.6" y="386.475" type="line" smooth="yes"/>
      <point x="339.325" y="395.2"/>
      <point x="339.6" y="398.475"/>
      <point x="349.6" y="402.75" type="curve"/>
      <point x="472.725" y="457.425"/>
      <point x="526.2" y="530.9"/>
      <point x="526.2" y="602.775" type="curve"/>
      <point x="526.2" y="696.15"/>
      <point x="444.5" y="753.0"/>
    </contour>
    <contour>
      <point x="340.4" y="693.1" type="curve"/>
      <point x="340.4" y="693.1" type="line"/>
      <point x="398.525" y="693.1"/>
      <point x="445.825" y="662.575"/>
      <point x="445.825" y="601.2" type="curve"/>
      <point x="445.825" y="543.1"/>
      <point x="404.8" y="497.25"/>
      <point x="302.125" y="448.175" type="curve"/>
      <point x="295.4" y="445.175"/>
      <point x="287.85" y="445.35"/>
      <point x="284.025" y="449.9" type="curve"/>
      <point x="257.175" y="480.4" type="line" smooth="yes"/>
      <point x="228.325" y="512.425"/>
      <point x="216.425" y="541.025"/>
      <point x="216.425" y="573.05" type="curve"/>
      <point x="216.425" y="636.2"/>
      <point x="261.625" y="693.1"/>
    </contour>
    <contour>
      <point x="268.925" y="343.125" type="curve"/>
      <point x="268.925" y="343.125" type="line"/>
      <point x="436.25" y="148.5" type="line" smooth="yes"/>
      <point x="443.35" y="139.4"/>
      <point x="441.975" y="132.675"/>
      <point x="433.25" y="124.95" type="curve"/>
      <point x="392.95" y="88.65"/>
      <point x="333.475" y="62.425"/>
      <point x="277.025" y="62.425" type="curve"/>
      <point x="193.95" y="62.425"/>
      <point x="131.475" y="116.925"/>
      <point x="131.475" y="193.45" type="curve"/>
      <point x="131.475" y="256.525"/>
      <point x="173.225" y="314.075"/>
      <point x="241.2" y="347.85" type="curve"/>
      <point x="253.1" y="353.85"/>
      <point x="260.1" y="353.675"/>
    </contour>
  </outline>
</glyph>
<glyph name="quotesingle" format="2">
  <advance width="239.95"/>
  <unicode hex="0027"/>
  <outline>
    <contour>
      <point x="147.65" y="526.275" type="curve"/>
      <point x="173.15" y="732.15" type="line"/>
      <point x="173.7" y="738.625"/>
      <point x="170.05" y="742.0"/>
      <point x="163.85" y="742.0" type="curve"/>
      <point x="78.3" y="742.0" type="line" smooth="yes"/>
      <point x="73.1" y="742.0"/>
      <point x="68.175" y="738.625"/>
      <point x="68.725" y="731.6" type="curve"/>
      <point x="93.5" y="523.725" type="line" smooth="yes"/>
      <point x="94.775" y="515.425"/>
      <point x="96.875" y="511.775"/>
      <point x="106.725" y="511.775" type="curve"/>
      <point x="131.325" y="511.775" type="line" smooth="yes"/>
      <point x="143.0" y="511.775"/>
      <point x="146.1" y="516.15"/>
    </contour>
  </outline>
</glyph>
<glyph name="parenleft" format="2">
  <advance width="285.6"/>
  <unicode hex="0028"/>
  <outline>
    <contour>
      <point x="259.325" y="742.0" type="curve"/>
      <point x="259.325" y="742.0" type="line"/>
      <point x="225.375" y="742.0" type="line" smooth="yes"/>
      <point x="217.45" y="742.0"/>
      <point x="213.075" y="739.175"/>
      <point x="208.975" y="733.8" type="curve"/>
      <point x="125.975" y="608.8"/>
      <point x="67.625" y="451.0"/>
      <point x="67.625" y="285.0" type="curve"/>
      <point x="67.625" y="114.0"/>
      <point x="119.55" y="-16.8"/>
      <point x="201.55" y="-157.8" type="curve"/>
      <point x="205.375" y="-163.175"/>
      <point x="208.2" y="-165.0"/>
      <point x="213.85" y="-165.0" type="curve"/>
      <point x="251.075" y="-165.0" type="line" smooth="yes"/>
      <point x="258.725" y="-165.0"/>
      <point x="260.275" y="-159.625"/>
      <point x="257.725" y="-155.25" type="curve"/>
      <point x="187.725" y="-5.25"/>
      <point x="150.45" y="133.0"/>
      <point x="150.45" y="284.0" type="curve"/>
      <point x="150.45" y="443.0"/>
      <point x="199.7" y="601.8"/>
      <point x="265.7" y="732.8" type="curve"/>
      <point x="268.25" y="736.9"/>
      <point x="266.975" y="742.0"/>
    </contour>
  </outline>
</glyph>
<glyph name="asterisk" format="2">
  <advance width="380.35"/>
  <unicode hex="002A"/>
  <outline>
    <contour>
      <point x="197.4" y="530.475" type="curve"/>
      <point x="268.95" y="415.175" type="line"/>
      <point x="271.05" y="411.525"/>
      <point x="277.525" y="409.975"/>
      <point x="284.275" y="414.9" type="curve"/>
      <point x="315.725" y="437.05" type="line" smooth="yes"/>
      <point x="322.75" y="441.975"/>
      <point x="323.75" y="447.45"/>
      <point x="319.65" y="452.55" type="curve"/>
      <point x="238.35" y="553.2" type="line" smooth="yes"/>
      <point x="235.525" y="556.75"/>
      <point x="236.25" y="560.125"/>
      <point x="240.35" y="561.4" type="curve"/>
      <point x="354.4" y="598.575" type="line" smooth="yes"/>
      <point x="359.875" y="600.125"/>
      <point x="361.25" y="604.05"/>
      <point x="359.425" y="610.975" type="curve"/>
      <point x="348.025" y="646.275" type="line" smooth="yes"/>
      <point x="346.2" y="652.3"/>
      <point x="343.0" y="654.125"/>
      <point x="336.8" y="651.3" type="curve"/>
      <point x="223.75" y="602.725" type="line" smooth="yes"/>
      <point x="220.1" y="601.175"/>
      <point x="217.825" y="602.725"/>
      <point x="218.1" y="607.825" type="curve"/>
      <point x="225.575" y="733.975" type="line" smooth="yes"/>
      <point x="225.85" y="738.075"/>
      <point x="223.75" y="742.0"/>
      <point x="217.825" y="742.0" type="curve"/>
      <point x="171.325" y="742.0" type="line" smooth="yes"/>
      <point x="164.675" y="742.0"/>
      <point x="161.85" y="737.35"/>
      <point x="162.125" y="733.975" type="curve"/>
      <point x="170.5" y="608.1" type="line" smooth="yes"/>
      <point x="170.775" y="603.0"/>
      <point x="167.675" y="601.45"/>
      <point x="163.3" y="603.275" type="curve"/>
      <point x="53.25" y="646.775" type="line" smooth="yes"/>
      <point x="47.325" y="649.6"/>
      <point x="44.225" y="647.5"/>
      <point x="42.4" y="642.575" type="curve"/>
      <point x="29.175" y="606.275" type="line" smooth="yes"/>
      <point x="27.075" y="599.8"/>
      <point x="28.175" y="595.6"/>
      <point x="33.1" y="594.05" type="curve"/>
      <point x="148.7" y="560.95" type="line" smooth="yes"/>
      <point x="154.075" y="559.675"/>
      <point x="154.35" y="556.3"/>
      <point x="152.525" y="553.475" type="curve"/>
      <point x="67.95" y="446.65" type="line" smooth="yes"/>
      <point x="63.575" y="441.0"/>
      <point x="63.85" y="437.9"/>
      <point x="69.05" y="434.25" type="curve"/>
      <point x="103.7" y="410.175" type="line" smooth="yes"/>
      <point x="108.9" y="406.525"/>
      <point x="115.1" y="407.075"/>
      <point x="117.2" y="410.725" type="curve"/>
      <point x="191.925" y="530.475" type="line" smooth="yes"/>
      <point x="193.475" y="532.575"/>
      <point x="195.85" y="532.575"/>
    </contour>
  </outline>
</glyph>
<glyph name="plus" format="2">
  <advance width="557.225"/>
  <unicode hex="002B"/>
  <outline>
    <contour>
      <point x="496.025" y="353.475" type="curve"/>
      <point x="496.025" y="396.45" type="line"/>
      <point x="496.025" y="402.65"/>
      <point x="491.925" y="406.3"/>
      <point x="486.0" y="406.3" type="curve"/>
      <point x="70.6" y="405.575" type="line" smooth="yes"/>
      <point x="65.125" y="405.575"/>
      <point x="61.75" y="401.925"/>
      <point x="61.75" y="394.175" type="curve"/>
      <point x="61.75" y="351.2" type="line" smooth="yes"/>
      <point x="61.75" y="342.9"/>
      <point x="64.85" y="339.25"/>
      <point x="74.7" y="339.25" type="curve"/>
      <point x="479.7" y="339.975" type="line" smooth="yes"/>
      <point x="491.1" y="339.975"/>
      <point x="496.025" y="343.625"/>
    </contour>
    <contour>
      <point x="259.725" y="155.775" type="curve"/>
      <point x="302.7" y="155.775" type="line"/>
      <point x="308.9" y="155.775"/>
      <point x="312.55" y="159.875"/>
      <point x="312.55" y="165.8" type="curve"/>
      <point x="311.825" y="581.2" type="line" smooth="yes"/>
      <point x="311.825" y="586.675"/>
      <point x="308.175" y="590.05"/>
      <point x="300.425" y="590.05" type="curve"/>
      <point x="257.45" y="590.05" type="line" smooth="yes"/>
      <point x="249.15" y="590.05"/>
      <point x="245.5" y="586.95"/>
      <point x="245.5" y="577.1" type="curve"/>
      <point x="246.225" y="172.1" type="line" smooth="yes"/>
      <point x="246.225" y="160.7"/>
      <point x="249.875" y="155.775"/>
    </contour>
  </outline>
</glyph>
<glyph name="comma" format="2">
  <advance width="212.3"/>
  <unicode hex="002C"/>
  <outline>
    <contour>
      <point x="51.65" y="-142.525" type="curve"/>
      <point x="51.65" y="-142.525" type="line"/>
      <point x="62.775" y="-142.525" type="line" smooth="yes"/>
      <point x="71.25" y="-142.525"/>
      <point x="78.925" y="-138.875"/>
      <point x="83.4" y="-131.85" type="curve"/>
      <point x="156.075" y="7.575" type="line" smooth="yes"/>
      <point x="157.625" y="11.125"/>
      <point x="158.625" y="14.850000000000001"/>
      <point x="158.625" y="20.4" type="curve"/>
      <point x="158.625" y="101.875" type="line" smooth="yes"/>
      <point x="158.625" y="108.35"/>
      <point x="155.525" y="111.725"/>
      <point x="149.325" y="111.725" type="curve"/>
      <point x="65.5" y="111.725" type="line" smooth="yes"/>
      <point x="59.575" y="111.725"/>
      <point x="55.925" y="108.35"/>
      <point x="55.925" y="101.325" type="curve"/>
      <point x="55.925" y="11.95" type="line" smooth="yes"/>
      <point x="55.925" y="4.375"/>
      <point x="59.3" y="0.0"/>
      <point x="69.15" y="0.0" type="curve"/>
      <point x="81.725" y="0.0" type="line" smooth="yes"/>
      <point x="92.65" y="0.0"/>
      <point x="94.65" y="-5.475"/>
      <point x="90.0" y="-16.05" type="curve"/>
      <point x="45.075" y="-128.4" type="line" smooth="yes"/>
      <point x="41.525" y="-136.775"/>
      <point x="45.175" y="-142.525"/>
    </contour>
  </outline>
</glyph>
<glyph name="hyphen" format="2">
  <advance width="380.725"/>
  <unicode hex="002D"/>
  <outline>
    <contour>
      <point x="318.7" y="244.925" type="curve"/>
      <point x="318.7" y="289.075" type="line"/>
      <point x="318.7" y="295.275"/>
      <point x="314.6" y="298.925"/>
      <point x="308.675" y="298.925" type="curve"/>
      <point x="70.875" y="298.2" type="line" smooth="yes"/>
      <point x="65.4" y="298.2"/>
      <point x="62.025" y="294.55"/>
      <point x="62.025" y="286.8" type="curve"/>
      <point x="62.025" y="242.65" type="line" smooth="yes"/>
      <point x="62.025" y="234.35"/>
      <point x="65.125" y="230.7"/>
      <point x="74.975" y="230.7" type="curve"/>
      <point x="302.375" y="231.425" type="line" smooth="yes"/>
      <point x="313.775" y="231.425"/>
      <point x="318.7" y="235.075"/>
    </contour>
  </outline>
</glyph>
<glyph name="period" format="2">
  <advance width="208.675"/>
  <unicode hex="002E"/>
  <outline>
    <contour>
      <point x="155.0" y="15.95" type="curve"/>
      <point x="155.0" y="101.25" type="line"/>
      <point x="155.0" y="109.17500000000001"/>
      <point x="151.9" y="112.55000000000001"/>
      <point x="144.975" y="112.55000000000001" type="curve"/>
      <point x="62.6" y="112.55000000000001" type="line" smooth="yes"/>
      <point x="56.675" y="112.55000000000001"/>
      <point x="52.3" y="109.17500000000001"/>
      <point x="52.3" y="99.975" type="curve"/>
      <point x="52.3" y="14.125" type="line" smooth="yes"/>
      <point x="52.3" y="4.375"/>
      <point x="55.675" y="0.0"/>
      <point x="66.975" y="0.0" type="curve"/>
      <point x="136.5" y="0.0" type="line" smooth="yes"/>
      <point x="150.35" y="0.0"/>
      <point x="155.0" y="4.375"/>
    </contour>
  </outline>
</glyph>
<glyph name="slash" format="2">
  <advance width="342.3"/>
  <unicode hex="002F"/>
  <outline>
    <contour>
      <point x="20.625" y="-43.5" type="curve"/>
      <point x="20.625" y="-43.5" type="line"/>
      <point x="64.475" y="-43.5" type="line" smooth="yes"/>
      <point x="72.775" y="-43.5"/>
      <point x="78.7" y="-40.4"/>
      <point x="82.075" y="-30.549999999999997" type="curve"/>
      <point x="328.15" y="725.675" type="line" smooth="yes"/>
      <point x="331.8" y="737.075"/>
      <point x="329.7" y="742.0"/>
      <point x="319.85" y="742.0" type="curve"/>
      <point x="276.0" y="742.0" type="line" smooth="yes"/>
      <point x="269.8" y="742.0"/>
      <point x="264.875" y="738.625"/>
      <point x="263.05" y="732.7" type="curve"/>
      <point x="12.6" y="-34.65" type="line" smooth="yes"/>
      <point x="10.774999999999999" y="-40.125"/>
      <point x="12.875" y="-43.5"/>
    </contour>
  </outline>
</glyph>
<glyph name="zero" format="2">
  <advance width="687.925"/>
  <unicode hex="0030"/>
  <outline>
    <contour>
      <point x="344.6" y="752.275" type="curve"/>
      <point x="344.6" y="752.275" type="line"/>
      <point x="186.675" y="752.275"/>
      <point x="65.8" y="616.825"/>
      <point x="65.8" y="367.55" type="curve"/>
      <point x="65.8" y="121.45"/>
      <point x="184.4" y="-9.45"/>
      <point x="343.875" y="-9.45" type="curve"/>
      <point x="503.075" y="-9.45"/>
      <point x="622.125" y="122.175"/>
      <point x="622.125" y="369.0" type="curve"/>
      <point x="622.125" y="617.55"/>
      <point x="502.25" y="752.275"/>
    </contour>
    <contour>
      <point x="345.05" y="63.900000000000006" type="curve"/>
      <point x="345.05" y="63.900000000000006" type="line"/>
      <point x="235.8" y="63.900000000000006"/>
      <point x="163.85" y="153.35"/>
      <point x="163.85" y="368.725" type="curve"/>
      <point x="163.85" y="586.925"/>
      <point x="236.075" y="679.475"/>
      <point x="344.325" y="679.475" type="curve"/>
      <point x="452.575" y="679.475"/>
      <point x="524.075" y="587.925"/>
      <point x="524.075" y="368.725" type="curve"/>
      <point x="524.075" y="152.35"/>
      <point x="454.575" y="63.900000000000006"/>
    </contour>
  </outline>
</glyph>
<glyph name="one" format="2">
  <advance width="465.225"/>
  <unicode hex="0031"/>
  <outline>
    <contour>
      <point x="412.05" y="75.55000000000001" type="curve"/>
      <point x="412.05" y="75.55000000000001" type="line"/>
      <point x="297.4" y="75.55000000000001" type="line" smooth="yes"/>
      <point x="293.3" y="75.55000000000001"/>
      <point x="290.75" y="78.1"/>
      <point x="290.75" y="83.2" type="curve"/>
      <point x="290.75" y="729.7" type="line" smooth="yes"/>
      <point x="290.75" y="737.625"/>
      <point x="286.65" y="742.0"/>
      <point x="280.0" y="742.0" type="curve"/>
      <point x="237.05" y="742.0" type="line" smooth="yes"/>
      <point x="226.025" y="742.0"/>
      <point x="219.65" y="740.175"/>
      <point x="207.35" y="733.8" type="curve"/>
      <point x="58.525" y="659.75" type="line" smooth="yes"/>
      <point x="51.05" y="655.65"/>
      <point x="49.225" y="654.275"/>
      <point x="49.225" y="645.25" type="curve"/>
      <point x="49.225" y="604.75" type="line" smooth="yes"/>
      <point x="49.225" y="594.9"/>
      <point x="53.875" y="590.8"/>
      <point x="62.45" y="593.35" type="curve"/>
      <point x="185.95" y="638.9" type="line" smooth="yes"/>
      <point x="193.15" y="641.175"/>
      <point x="194.975" y="637.9"/>
      <point x="194.975" y="630.975" type="curve"/>
      <point x="194.975" y="80.92500000000001" type="line" smooth="yes"/>
      <point x="194.975" y="77.1"/>
      <point x="191.15" y="75.55000000000001"/>
      <point x="187.325" y="75.55000000000001" type="curve"/>
      <point x="60.625" y="75.55000000000001" type="line" smooth="yes"/>
      <point x="53.875" y="75.55000000000001"/>
      <point x="50.225" y="72.725"/>
      <point x="50.225" y="65.975" type="curve"/>
      <point x="50.225" y="10.125" type="line" smooth="yes"/>
      <point x="50.225" y="4.375"/>
      <point x="53.6" y="0.0"/>
      <point x="61.175" y="0.0" type="curve"/>
      <point x="411.5" y="0.0" type="line" smooth="yes"/>
      <point x="419.8" y="0.0"/>
      <point x="423.45" y="5.65"/>
      <point x="423.45" y="10.4" type="curve"/>
      <point x="423.45" y="65.975" type="line" smooth="yes"/>
      <point x="423.45" y="72.725"/>
      <point x="419.525" y="75.55000000000001"/>
    </contour>
  </outline>
</glyph>
<glyph name="two" format="2">
  <advance width="599.05"/>
  <unicode hex="0032"/>
  <outline>
    <contour>
      <point x="289.35" y="310.6" type="curve"/>
      <point x="75.675" y="99.1" type="line"/>
      <point x="52.3" y="78.475"/>
      <point x="49.3" y="70.65"/>
      <point x="49.3" y="57.3" type="curve"/>
      <point x="49.3" y="15.575" type="line" smooth="yes"/>
      <point x="49.3" y="3.55"/>
      <point x="53.4" y="0.0"/>
      <point x="65.425" y="0.0" type="curve"/>
      <point x="529.45" y="0.0" type="line" smooth="yes"/>
      <point x="538.475" y="0.0"/>
      <point x="542.125" y="4.925000000000001"/>
      <point x="542.125" y="11.850000000000001" type="curve"/>
      <point x="542.125" y="70.30000000000001" type="line" smooth="yes"/>
      <point x="542.125" y="78.5"/>
      <point x="538.2" y="81.325"/>
      <point x="529.275" y="81.325" type="curve"/>
      <point x="177.575" y="81.325" type="line" smooth="yes"/>
      <point x="165.65" y="81.325"/>
      <point x="164.025" y="86.6"/>
      <point x="171.575" y="93.325" type="curve"/>
      <point x="373.4" y="282.1" type="line" smooth="yes"/>
      <point x="490.25" y="392.325"/>
      <point x="534.4" y="456.4"/>
      <point x="534.4" y="543.55" type="curve"/>
      <point x="534.4" y="684.275"/>
      <point x="426.475" y="752.0"/>
      <point x="301.025" y="752.0" type="curve"/>
      <point x="206.9" y="752.0"/>
      <point x="114.625" y="712.675"/>
      <point x="54.4" y="624.3" type="curve"/>
      <point x="48.3" y="615.375"/>
      <point x="48.125" y="609.25"/>
      <point x="58.325" y="601.975" type="curve"/>
      <point x="101.925" y="576.325" type="line" smooth="yes"/>
      <point x="111.4" y="569.775"/>
      <point x="118.775" y="572.775"/>
      <point x="122.325" y="578.15" type="curve"/>
      <point x="167.775" y="649.725"/>
      <point x="235.125" y="677.275"/>
      <point x="292.65" y="677.275" type="curve"/>
      <point x="366.5" y="677.275"/>
      <point x="440.55" y="632.675"/>
      <point x="440.55" y="547.35" type="curve"/>
      <point x="440.55" y="473.975"/>
      <point x="401.25" y="416.625"/>
    </contour>
  </outline>
</glyph>
<glyph name="three" format="2">
  <advance width="640.775"/>
  <unicode hex="0033"/>
  <outline>
    <contour>
      <point x="76.85" y="637.575" type="curve"/>
      <point x="76.85" y="637.575" type="line"/>
      <point x="112.225" y="602.675" type="line" smooth="yes"/>
      <point x="119.325" y="595.85"/>
      <point x="123.325" y="595.85"/>
      <point x="130.425" y="602.95" type="curve"/>
      <point x="181.8" y="652.775"/>
      <point x="239.925" y="679.75"/>
      <point x="308.525" y="679.75" type="curve"/>
      <point x="399.475" y="679.75"/>
      <point x="463.75" y="627.375"/>
      <point x="463.75" y="560.025" type="curve"/>
      <point x="463.75" y="481.95"/>
      <point x="384.15" y="424.85"/>
      <point x="280.55" y="423.75" type="curve"/>
      <point x="209.2" y="422.65" type="line" smooth="yes"/>
      <point x="202.0" y="422.1"/>
      <point x="196.9" y="418.55"/>
      <point x="196.9" y="412.9" type="curve"/>
      <point x="196.9" y="360.775" type="line" smooth="yes"/>
      <point x="196.9" y="353.85"/>
      <point x="201.0" y="351.025"/>
      <point x="209.2" y="351.025" type="curve"/>
      <point x="297.55" y="350.475" type="line" smooth="yes"/>
      <point x="393.45" y="349.925"/>
      <point x="486.2" y="298.8"/>
      <point x="486.2" y="201.775" type="curve"/>
      <point x="486.2" y="120.35"/>
      <point x="418.75" y="63.35"/>
      <point x="301.65" y="63.35" type="curve"/>
      <point x="224.3" y="63.35"/>
      <point x="167.0" y="85.45"/>
      <point x="106.725" y="147.45" type="curve"/>
      <point x="102.9" y="151.55"/>
      <point x="99.25" y="153.725"/>
      <point x="91.325" y="147.175" type="curve"/>
      <point x="48.325" y="113.425" type="line" smooth="yes"/>
      <point x="40.125" y="106.875"/>
      <point x="40.025" y="102.75"/>
      <point x="45.4" y="96.0" type="curve"/>
      <point x="110.175" y="24.525"/>
      <point x="193.475" y="-10.0"/>
      <point x="294.725" y="-10.0" type="curve"/>
      <point x="485.375" y="-10.0"/>
      <point x="580.875" y="80.775"/>
      <point x="580.875" y="205.05" type="curve"/>
      <point x="580.875" y="299.075"/>
      <point x="513.65" y="365.25"/>
      <point x="431.1" y="388.45" type="curve"/>
      <point x="416.1" y="392.725"/>
      <point x="416.375" y="397.2"/>
      <point x="431.375" y="402.2" type="curve"/>
      <point x="510.725" y="429.55"/>
      <point x="557.875" y="491.925"/>
      <point x="557.875" y="564.15" type="curve"/>
      <point x="557.875" y="671.55"/>
      <point x="462.1" y="752.0"/>
      <point x="308.175" y="752.0" type="curve"/>
      <point x="217.1" y="752.0"/>
      <point x="138.625" y="720.05"/>
      <point x="76.85" y="653.425" type="curve"/>
      <point x="72.75" y="648.225"/>
      <point x="72.025" y="642.675"/>
    </contour>
  </outline>
</glyph>
<glyph name="four" format="2">
  <advance width="648.575"/>
  <unicode hex="0034"/>
  <outline>
    <contour>
      <point x="386.425" y="731.5" type="curve"/>
      <point x="386.425" y="731.5" type="line"/>
      <point x="61.0" y="295.7" type="line" smooth="yes"/>
      <point x="49.6" y="280.2"/>
      <point x="45.4" y="271.725"/>
      <point x="45.4" y="263.25" type="curve"/>
      <point x="45.4" y="212.175" type="line" smooth="yes"/>
      <point x="45.4" y="202.8"/>
      <point x="50.5" y="198.875"/>
      <point x="60.25" y="198.875" type="curve"/>
      <point x="383.675" y="198.875" type="line" smooth="yes"/>
      <point x="390.225" y="198.875"/>
      <point x="393.325" y="196.6"/>
      <point x="393.325" y="191.775" type="curve"/>
      <point x="393.05" y="13.4" type="line" smooth="yes"/>
      <point x="393.05" y="5.1"/>
      <point x="397.15" y="0.0"/>
      <point x="406.275" y="0.0" type="curve"/>
      <point x="473.6" y="0.0" type="line" smooth="yes"/>
      <point x="485.0" y="0.0"/>
      <point x="489.925" y="4.375"/>
      <point x="489.925" y="14.5" type="curve"/>
      <point x="489.925" y="188.775" type="line" smooth="yes"/>
      <point x="489.925" y="196.6"/>
      <point x="493.475" y="198.875"/>
      <point x="499.025" y="198.875" type="curve"/>
      <point x="591.775" y="198.875" type="line" smooth="yes"/>
      <point x="601.525" y="198.875"/>
      <point x="605.625" y="204.25"/>
      <point x="605.625" y="212.175" type="curve"/>
      <point x="605.625" y="260.55" type="line" smooth="yes"/>
      <point x="605.625" y="268.025"/>
      <point x="600.525" y="270.85"/>
      <point x="592.325" y="270.85" type="curve"/>
      <point x="498.025" y="270.85" type="line" smooth="yes"/>
      <point x="492.475" y="270.85"/>
      <point x="489.925" y="274.4"/>
      <point x="489.925" y="279.95" type="curve"/>
      <point x="489.925" y="729.7" type="line" smooth="yes"/>
      <point x="489.925" y="737.625"/>
      <point x="485.825" y="742.0"/>
      <point x="478.175" y="742.0" type="curve"/>
      <point x="410.6" y="742.0" type="line" smooth="yes"/>
      <point x="398.1" y="742.0"/>
      <point x="392.55" y="739.45"/>
    </contour>
    <contour>
      <point x="382.25" y="270.85" type="curve"/>
      <point x="139.95" y="270.85" type="line"/>
      <point x="129.125" y="270.85"/>
      <point x="126.95" y="275.85"/>
      <point x="132.95" y="283.85" type="curve"/>
      <point x="377.25" y="615.5" type="line" smooth="yes"/>
      <point x="386.8" y="628.325"/>
      <point x="391.25" y="626.875"/>
      <point x="391.25" y="611.5" type="curve"/>
      <point x="391.25" y="277.85" type="line" smooth="yes"/>
      <point x="391.25" y="273.85"/>
      <point x="387.25" y="270.85"/>
    </contour>
  </outline>
</glyph>
<glyph name="five" format="2">
  <advance width="654.475"/>
  <unicode hex="0035"/>
  <outline>
    <contour>
      <point x="544.0" y="742.0" type="curve"/>
      <point x="137.1" y="742.0" type="line"/>
      <point x="117.325" y="742.0"/>
      <point x="115.85" y="740.075"/>
      <point x="115.3" y="727.95" type="curve"/>
      <point x="87.75" y="389.225" type="line" smooth="yes"/>
      <point x="86.475" y="373.125"/>
      <point x="82.85" y="374.45"/>
      <point x="94.95" y="367.175" type="curve"/>
      <point x="143.625" y="339.425" type="line" smooth="yes"/>
      <point x="152.825" y="334.325"/>
      <point x="150.925" y="332.15"/>
      <point x="162.025" y="338.15" type="curve"/>
      <point x="209.2" y="366.125"/>
      <point x="262.925" y="397.05"/>
      <point x="333.8" y="397.05" type="curve"/>
      <point x="427.475" y="397.05"/>
      <point x="503.525" y="346.25"/>
      <point x="503.525" y="240.075" type="curve"/>
      <point x="503.525" y="135.975"/>
      <point x="429.45" y="61.900000000000006"/>
      <point x="301.075" y="61.900000000000006" type="curve"/>
      <point x="215.75" y="61.900000000000006"/>
      <point x="171.05" y="95.825"/>
      <point x="116.55" y="146.45" type="curve"/>
      <point x="111.9" y="151.375"/>
      <point x="105.975" y="153.65"/>
      <point x="100.225" y="149.0" type="curve"/>
      <point x="56.75" y="114.425" type="line" smooth="yes"/>
      <point x="47.175" y="106.775"/>
      <point x="49.1" y="101.925"/>
      <point x="55.475" y="94.175" type="curve"/>
      <point x="117.35" y="26.15"/>
      <point x="210.975" y="-10.0"/>
      <point x="313.475" y="-10.0" type="curve"/>
      <point x="477.825" y="-10.0"/>
      <point x="598.2" y="83.0"/>
      <point x="598.2" y="242.725" type="curve"/>
      <point x="598.2" y="400.075"/>
      <point x="480.75" y="469.5"/>
      <point x="348.75" y="469.5" type="curve"/>
      <point x="276.925" y="469.5"/>
      <point x="232.425" y="446.55"/>
      <point x="183.05" y="422.4" type="curve"/>
      <point x="175.95" y="418.675"/>
      <point x="170.125" y="424.4"/>
      <point x="171.4" y="433.5" type="curve"/>
      <point x="188.825" y="651.3" type="line" smooth="yes"/>
      <point x="189.1" y="659.225"/>
      <point x="193.925" y="662.05"/>
      <point x="201.125" y="662.05" type="curve"/>
      <point x="541.45" y="662.05" type="line" smooth="yes"/>
      <point x="553.925" y="662.05"/>
      <point x="553.95" y="663.7"/>
      <point x="554.95" y="673.45" type="curve"/>
      <point x="558.775" y="727.5" type="line" smooth="yes"/>
      <point x="559.775" y="739.175"/>
      <point x="557.775" y="742.0"/>
    </contour>
  </outline>
</glyph>
<glyph name="six" format="2">
  <advance width="661.125"/>
  <unicode hex="0036"/>
  <outline>
    <contour>
      <point x="369.375" y="751.45" type="curve"/>
      <point x="369.375" y="751.45" type="line"/>
      <point x="180.7" y="751.45"/>
      <point x="65.8" y="603.9"/>
      <point x="65.8" y="359.975" type="curve"/>
      <point x="65.8" y="126.575"/>
      <point x="173.5" y="-9.45"/>
      <point x="348.775" y="-9.45" type="curve"/>
      <point x="492.6" y="-9.45"/>
      <point x="607.3" y="85.4"/>
      <point x="607.3" y="225.5" type="curve"/>
      <point x="607.3" y="349.7"/>
      <point x="518.325" y="442.875"/>
      <point x="364.05" y="442.875" type="curve"/>
      <point x="284.85" y="442.875"/>
      <point x="230.375" y="417.1"/>
      <point x="178.775" y="392.4" type="curve"/>
      <point x="162.85" y="384.4"/>
      <point x="161.025" y="389.575"/>
      <point x="161.025" y="412.4" type="curve"/>
      <point x="161.025" y="563.925"/>
      <point x="225.425" y="678.65"/>
      <point x="370.1" y="678.65" type="curve"/>
      <point x="426.525" y="678.65"/>
      <point x="460.025" y="656.275"/>
      <point x="488.55" y="621.0" type="curve"/>
      <point x="492.275" y="615.725"/>
      <point x="497.55" y="611.25"/>
      <point x="504.025" y="614.525" type="curve"/>
      <point x="560.75" y="638.4" type="line" smooth="yes"/>
      <point x="568.95" y="642.4"/>
      <point x="566.775" y="648.6"/>
      <point x="564.05" y="653.8" type="curve"/>
      <point x="531.025" y="703.025"/>
      <point x="468.45" y="751.45"/>
    </contour>
    <contour>
      <point x="352.65" y="372.825" type="curve"/>
      <point x="352.65" y="372.825" type="line"/>
      <point x="451.125" y="372.825"/>
      <point x="512.35" y="306.4"/>
      <point x="512.35" y="222.3" type="curve"/>
      <point x="512.35" y="131.5"/>
      <point x="442.075" y="60.6"/>
      <point x="348.75" y="60.6" type="curve"/>
      <point x="221.875" y="60.6"/>
      <point x="163.025" y="188.8"/>
      <point x="163.025" y="284.025" type="curve"/>
      <point x="163.025" y="308.55"/>
      <point x="167.2" y="316.175"/>
      <point x="183.175" y="327.25" type="curve"/>
      <point x="223.825" y="353.025"/>
      <point x="299.35" y="372.825"/>
    </contour>
  </outline>
</glyph>
<glyph name="seven" format="2">
  <advance width="599.375"/>
  <unicode hex="0037"/>
  <outline>
    <contour>
      <point x="540.0" y="742.0" type="curve"/>
      <point x="63.025" y="742.0" type="line"/>
      <point x="53.0" y="742.0"/>
      <point x="48.525" y="739.625"/>
      <point x="47.525" y="732.25" type="curve"/>
      <point x="41.5" y="674.0" type="line" smooth="yes"/>
      <point x="41.225" y="666.25"/>
      <point x="43.875" y="662.05"/>
      <point x="52.55" y="662.05" type="curve"/>
      <point x="440.2" y="662.05" type="line" smooth="yes"/>
      <point x="452.575" y="662.05"/>
      <point x="452.3" y="656.225"/>
      <point x="447.025" y="648.4" type="curve"/>
      <point x="288.4" y="400.4"/>
      <point x="200.7" y="165.4"/>
      <point x="163.95" y="17.4" type="curve"/>
      <point x="161.125" y="6.65"/>
      <point x="165.225" y="0.0"/>
      <point x="175.975" y="0.0" type="curve"/>
      <point x="255.025" y="0.0" type="line" smooth="yes"/>
      <point x="264.5" y="0.0"/>
      <point x="268.875" y="6.375"/>
      <point x="269.875" y="19.225" type="curve"/>
      <point x="290.375" y="154.95"/>
      <point x="406.525" y="460.375"/>
      <point x="539.55" y="657.75" type="curve"/>
      <point x="547.925" y="669.95"/>
      <point x="553.875" y="683.75"/>
      <point x="554.15" y="694.125" type="curve"/>
      <point x="555.25" y="729.95" type="line" smooth="yes"/>
      <point x="555.525" y="736.25"/>
      <point x="550.5" y="742.0"/>
    </contour>
  </outline>
</glyph>
<glyph name="eight" format="2">
  <advance width="668.35"/>
  <unicode hex="0038"/>
  <outline>
    <contour>
      <point x="333.2" y="752.0" type="curve"/>
      <point x="333.2" y="752.0" type="line"/>
      <point x="183.725" y="752.0"/>
      <point x="80.625" y="657.95"/>
      <point x="80.625" y="537.475" type="curve"/>
      <point x="80.625" y="463.075"/>
      <point x="118.575" y="414.2"/>
      <point x="175.725" y="382.275" type="curve"/>
      <point x="191.525" y="373.55"/>
      <point x="190.7" y="369.825"/>
      <point x="175.175" y="360.025" type="curve"/>
      <point x="93.15" y="308.225"/>
      <point x="60.625" y="254.425"/>
      <point x="60.625" y="184.175" type="curve"/>
      <point x="60.625" y="61.35"/>
      <point x="165.15" y="-10.0"/>
      <point x="330.1" y="-10.0" type="curve"/>
      <point x="497.825" y="-10.0"/>
      <point x="610.9" y="69.825"/>
      <point x="610.9" y="196.525" type="curve"/>
      <point x="610.9" y="276.85"/>
      <point x="566.775" y="337.725"/>
      <point x="475.925" y="374.075" type="curve"/>
      <point x="466.1" y="378.725"/>
      <point x="466.925" y="383.275"/>
      <point x="476.925" y="389.725" type="curve"/>
      <point x="547.8" y="439.025"/>
      <point x="577.9" y="485.475"/>
      <point x="577.9" y="547.625" type="curve"/>
      <point x="577.9" y="668.975"/>
      <point x="478.45" y="752.0"/>
    </contour>
    <contour>
      <point x="334.3" y="681.675" type="curve"/>
      <point x="334.3" y="681.675" type="line"/>
      <point x="431.75" y="681.675"/>
      <point x="492.85" y="627.1"/>
      <point x="492.85" y="549.05" type="curve"/>
      <point x="492.85" y="473.9"/>
      <point x="416.25" y="397.35"/>
      <point x="377.525" y="406.725" type="curve"/>
      <point x="275.1" y="430.9" type="line" smooth="yes"/>
      <point x="207.125" y="446.25"/>
      <point x="172.0" y="485.375"/>
      <point x="172.0" y="545.45" type="curve"/>
      <point x="172.0" y="623.875"/>
      <point x="242.35" y="681.675"/>
    </contour>
    <contour>
      <point x="334.675" y="60.325" type="curve"/>
      <point x="334.675" y="60.325" type="line"/>
      <point x="212.125" y="60.325"/>
      <point x="146.225" y="110.45"/>
      <point x="146.225" y="194.8" type="curve"/>
      <point x="146.225" y="286.4"/>
      <point x="241.35" y="352.4"/>
      <point x="280.35" y="342.025" type="curve"/>
      <point x="410.075" y="310.5" type="line" smooth="yes"/>
      <point x="485.1" y="292.225"/>
      <point x="515.675" y="254.725"/>
      <point x="515.675" y="193.2" type="curve"/>
      <point x="515.675" y="112.15"/>
      <point x="445.7" y="60.325"/>
    </contour>
  </outline>
</glyph>
<glyph name="nine" format="2">
  <advance width="657.5"/>
  <unicode hex="0039"/>
  <outline>
    <contour>
      <point x="292.475" y="-9.45" type="curve"/>
      <point x="292.475" y="-9.45" type="line"/>
      <point x="478.25" y="-9.45"/>
      <point x="591.7" y="138.1"/>
      <point x="591.7" y="382.025" type="curve"/>
      <point x="591.7" y="615.425"/>
      <point x="485.45" y="751.45"/>
      <point x="313.075" y="751.45" type="curve"/>
      <point x="169.25" y="751.45"/>
      <point x="54.55" y="656.6"/>
      <point x="54.55" y="516.5" type="curve"/>
      <point x="54.55" y="392.3"/>
      <point x="144.25" y="299.125"/>
      <point x="296.35" y="299.125" type="curve"/>
      <point x="375.55" y="299.125"/>
      <point x="428.575" y="324.9"/>
      <point x="478.725" y="349.6" type="curve"/>
      <point x="494.65" y="357.6"/>
      <point x="496.475" y="352.425"/>
      <point x="496.475" y="329.6" type="curve"/>
      <point x="496.475" y="178.075"/>
      <point x="432.8" y="63.35"/>
      <point x="292.475" y="63.35" type="curve"/>
      <point x="230.975" y="63.35"/>
      <point x="194.575" y="85.725"/>
      <point x="166.05" y="121.0" type="curve"/>
      <point x="162.325" y="126.275"/>
      <point x="157.05" y="130.75"/>
      <point x="150.575" y="127.475" type="curve"/>
      <point x="93.85" y="103.6" type="line" smooth="yes"/>
      <point x="85.65" y="99.6"/>
      <point x="87.825" y="93.4"/>
      <point x="90.55" y="88.2" type="curve"/>
      <point x="125.025" y="38.975"/>
      <point x="189.775" y="-9.45"/>
    </contour>
    <contour>
      <point x="307.025" y="369.175" type="curve"/>
      <point x="307.025" y="369.175" type="line"/>
      <point x="211.45" y="369.175"/>
      <point x="149.5" y="435.6"/>
      <point x="149.5" y="520.425" type="curve"/>
      <point x="149.5" y="611.225"/>
      <point x="219.775" y="681.4"/>
      <point x="313.1" y="681.4" type="curve"/>
      <point x="437.8" y="681.4"/>
      <point x="495.925" y="556.1"/>
      <point x="495.925" y="463.05" type="curve"/>
      <point x="495.925" y="438.525"/>
      <point x="491.75" y="430.9"/>
      <point x="475.775" y="419.825" type="curve"/>
      <point x="435.85" y="391.15"/>
      <point x="363.225" y="369.175"/>
    </contour>
  </outline>
</glyph>
<glyph name="colon" format="2">
  <advance width="208.675"/>
  <unicode hex="003A"/>
  <outline>
    <contour>
      <point x="155.0" y="411.375" type="curve"/>
      <point x="155.0" y="495.575" type="line"/>
      <point x="155.0" y="503.5"/>
      <point x="151.9" y="506.875"/>
      <point x="144.975" y="506.875" type="curve"/>
      <point x="62.6" y="506.875" type="line" smooth="yes"/>
      <point x="56.675" y="506.875"/>
      <point x="52.3" y="503.5"/>
      <point x="52.3" y="494.3" type="curve"/>
      <point x="52.3" y="409.825" type="line" smooth="yes"/>
      <point x="52.3" y="400.075"/>
      <point x="55.675" y="395.425"/>
      <point x="66.975" y="395.425" type="curve"/>
      <point x="136.5" y="395.425" type="line" smooth="yes"/>
      <point x="150.35" y="395.425"/>
      <point x="155.0" y="400.075"/>
    </contour>
    <contour>
      <point x="155.0" y="18.95" type="curve"/>
      <point x="155.0" y="103.15" type="line"/>
      <point x="155.0" y="111.075"/>
      <point x="151.9" y="114.45"/>
      <point x="144.975" y="114.45" type="curve"/>
      <point x="62.6" y="114.45" type="line" smooth="yes"/>
      <point x="56.675" y="114.45"/>
      <point x="52.3" y="111.075"/>
      <point x="52.3" y="101.875" type="curve"/>
      <point x="52.3" y="17.4" type="line" smooth="yes"/>
      <point x="52.3" y="7.65"/>
      <point x="55.675" y="3.0"/>
      <point x="66.975" y="3.0" type="curve"/>
      <point x="136.5" y="3.0" type="line" smooth="yes"/>
      <point x="150.35" y="3.0"/>
      <point x="155.0" y="7.65"/>
    </contour>
  </outline>
</glyph>
<glyph name="semicolon" format="2">
  <advance width="228.975"/>
  <unicode hex="003B"/>
  <outline>
    <contour>
      <point x="51.65" y="-143.625" type="curve"/>
      <point x="51.65" y="-143.625" type="line"/>
      <point x="62.775" y="-143.625" type="line" smooth="yes"/>
      <point x="71.25" y="-143.625"/>
      <point x="78.925" y="-139.975"/>
      <point x="83.4" y="-132.95" type="curve"/>
      <point x="156.075" y="7.575" type="line" smooth="yes"/>
      <point x="157.625" y="11.125"/>
      <point x="158.625" y="14.850000000000001"/>
      <point x="158.625" y="20.4" type="curve"/>
      <point x="158.625" y="101.875" type="line" smooth="yes"/>
      <point x="158.625" y="108.35"/>
      <point x="155.525" y="111.725"/>
      <point x="149.325" y="111.725" type="curve"/>
      <point x="65.5" y="111.725" type="line" smooth="yes"/>
      <point x="59.575" y="111.725"/>
      <point x="55.925" y="108.35"/>
      <point x="55.925" y="101.325" type="curve"/>
      <point x="55.925" y="11.95" type="line" smooth="yes"/>
      <point x="55.925" y="4.375"/>
      <point x="59.3" y="0.0"/>
      <point x="69.15" y="0.0" type="curve"/>
      <point x="81.725" y="0.0" type="line" smooth="yes"/>
      <point x="92.65" y="0.0"/>
      <point x="94.375" y="-5.475"/>
      <point x="90.0" y="-16.05" type="curve"/>
      <point x="45.075" y="-129.5" type="line" smooth="yes"/>
      <point x="41.525" y="-137.875"/>
      <point x="45.175" y="-143.625"/>
    </contour>
    <contour>
      <point x="66.975" y="393.5" type="curve"/>
      <point x="66.975" y="393.5" type="line"/>
      <point x="136.5" y="393.5" type="line" smooth="yes"/>
      <point x="150.35" y="393.5"/>
      <point x="155.0" y="397.875"/>
      <point x="155.0" y="409.45" type="curve"/>
      <point x="155.0" y="494.75" type="line" smooth="yes"/>
      <point x="155.0" y="502.675"/>
      <point x="151.9" y="506.05"/>
      <point x="144.975" y="506.05" type="curve"/>
      <point x="62.6" y="506.05" type="line" smooth="yes"/>
      <point x="56.675" y="506.05"/>
      <point x="52.3" y="502.675"/>
      <point x="52.3" y="493.475" type="curve"/>
      <point x="52.3" y="407.625" type="line" smooth="yes"/>
      <point x="52.3" y="397.875"/>
      <point x="55.675" y="393.5"/>
    </contour>
  </outline>
</glyph>
<glyph name="less" format="2">
  <advance width="543.9"/>
  <unicode hex="003C"/>
  <outline>
    <contour>
      <point x="477.3" y="172.725" type="curve"/>
      <point x="477.3" y="214.35" type="line"/>
      <point x="477.3" y="226.025"/>
      <point x="470.825" y="230.95"/>
      <point x="455.5" y="237.15" type="curve"/>
      <point x="155.375" y="355.25" type="line"/>
      <point x="456.225" y="473.45" type="line" smooth="yes"/>
      <point x="471.275" y="479.65"/>
      <point x="478.025" y="485.4"/>
      <point x="478.025" y="495.8" type="curve"/>
      <point x="478.025" y="541.05" type="line" smooth="yes"/>
      <point x="478.025" y="553.525"/>
      <point x="469.725" y="560.275"/>
      <point x="455.525" y="554.45" type="curve"/>
      <point x="66.625" y="400.125" type="line" smooth="yes"/>
      <point x="58.325" y="397.025"/>
      <point x="53.125" y="392.825"/>
      <point x="53.125" y="382.975" type="curve"/>
      <point x="53.125" y="327.075" type="line" smooth="yes"/>
      <point x="53.125" y="318.5"/>
      <point x="58.6" y="313.575"/>
      <point x="66.625" y="310.475" type="curve"/>
      <point x="455.25" y="157.875" type="line" smooth="yes"/>
      <point x="467.55" y="152.775"/>
      <point x="477.3" y="157.6"/>
    </contour>
  </outline>
</glyph>
<glyph name="equal" format="2">
  <advance width="557.225"/>
  <unicode hex="003D"/>
  <outline>
    <contour>
      <point x="496.025" y="452.375" type="curve"/>
      <point x="496.025" y="495.35" type="line"/>
      <point x="496.025" y="501.55"/>
      <point x="491.925" y="505.2"/>
      <point x="486.0" y="505.2" type="curve"/>
      <point x="70.6" y="504.475" type="line" smooth="yes"/>
      <point x="65.125" y="504.475"/>
      <point x="61.75" y="500.825"/>
      <point x="61.75" y="493.075" type="curve"/>
      <point x="61.75" y="450.1" type="line" smooth="yes"/>
      <point x="61.75" y="441.8"/>
      <point x="64.85" y="438.15"/>
      <point x="74.7" y="438.15" type="curve"/>
      <point x="479.7" y="438.875" type="line" smooth="yes"/>
      <point x="491.1" y="438.875"/>
      <point x="496.025" y="442.525"/>
    </contour>
    <contour>
      <point x="496.025" y="226.6" type="curve"/>
      <point x="496.025" y="269.575" type="line"/>
      <point x="496.025" y="275.775"/>
      <point x="491.925" y="279.425"/>
      <point x="486.0" y="279.425" type="curve"/>
      <point x="70.6" y="278.7" type="line" smooth="yes"/>
      <point x="65.125" y="278.7"/>
      <point x="61.75" y="275.05"/>
      <point x="61.75" y="267.3" type="curve"/>
      <point x="61.75" y="224.325" type="line" smooth="yes"/>
      <point x="61.75" y="216.025"/>
      <point x="64.85" y="212.375"/>
      <point x="74.7" y="212.375" type="curve"/>
      <point x="479.7" y="213.1" type="line" smooth="yes"/>
      <point x="491.1" y="213.1"/>
      <point x="496.025" y="216.75"/>
    </contour>
  </outline>
</glyph>
<glyph name="greater" format="2">
  <advance width="543.9"/>
  <unicode hex="003E"/>
  <outline>
    <contour>
      <point x="66.6" y="214.35" type="curve"/>
      <point x="66.6" y="214.35" type="line"/>
      <point x="66.6" y="172.725" type="line" smooth="yes"/>
      <point x="66.6" y="157.6"/>
      <point x="76.35" y="152.775"/>
      <point x="88.65" y="157.875" type="curve"/>
      <point x="477.275" y="310.475" type="line" smooth="yes"/>
      <point x="485.3" y="313.575"/>
      <point x="490.775" y="318.5"/>
      <point x="490.775" y="327.075" type="curve"/>
      <point x="490.775" y="382.975" type="line" smooth="yes"/>
      <point x="490.775" y="392.825"/>
      <point x="485.575" y="397.025"/>
      <point x="477.275" y="400.125" type="curve"/>
      <point x="88.375" y="554.45" type="line" smooth="yes"/>
      <point x="74.175" y="560.275"/>
      <point x="65.875" y="553.525"/>
      <point x="65.875" y="541.05" type="curve"/>
      <point x="65.875" y="495.8" type="line" smooth="yes"/>
      <point x="65.875" y="485.4"/>
      <point x="72.625" y="479.65"/>
      <point x="87.675" y="473.45" type="curve"/>
      <point x="388.525" y="355.25" type="line"/>
      <point x="88.4" y="237.15" type="line" smooth="yes"/>
      <point x="73.075" y="230.95"/>
      <point x="66.6" y="226.025"/>
    </contour>
  </outline>
</glyph>
<glyph name="question" format="2">
  <advance width="522.8"/>
  <unicode hex="003F"/>
  <outline>
    <contour>
      <point x="297.55" y="15.95" type="curve"/>
      <point x="297.55" y="100.15" type="line"/>
      <point x="297.55" y="108.075"/>
      <point x="294.175" y="111.45"/>
      <point x="287.525" y="111.45" type="curve"/>
      <point x="205.15" y="111.45" type="line" smooth="yes"/>
      <point x="198.225" y="111.45"/>
      <point x="194.85" y="107.35"/>
      <point x="194.85" y="98.875" type="curve"/>
      <point x="194.85" y="14.125" type="line" smooth="yes"/>
      <point x="194.85" y="4.375"/>
      <point x="198.675" y="0.0"/>
      <point x="209.25" y="0.0" type="curve"/>
      <point x="279.05" y="0.0" type="line" smooth="yes"/>
      <point x="292.625" y="0.0"/>
      <point x="297.55" y="4.375"/>
    </contour>
    <contour>
      <point x="33.55" y="604.5" type="curve"/>
      <point x="33.55" y="604.5" type="line"/>
      <point x="90.5" y="586.65" type="line" smooth="yes"/>
      <point x="98.25" y="584.375"/>
      <point x="100.35" y="586.375"/>
      <point x="103.45" y="592.125" type="curve"/>
      <point x="125.9" y="645.025"/>
      <point x="196.8" y="685.8"/>
      <point x="264.175" y="685.8" type="curve"/>
      <point x="346.3" y="685.8"/>
      <point x="401.675" y="640.875"/>
      <point x="401.675" y="569.725" type="curve"/>
      <point x="401.675" y="432.75"/>
      <point x="209.8" y="384.975"/>
      <point x="209.8" y="197.225" type="curve"/>
      <point x="209.8" y="187.65"/>
      <point x="214.725" y="182.725"/>
      <point x="222.75" y="182.725" type="curve"/>
      <point x="271.2" y="182.725" type="line" smooth="yes"/>
      <point x="277.95" y="182.725"/>
      <point x="283.15" y="188.65"/>
      <point x="283.15" y="195.125" type="curve"/>
      <point x="283.15" y="363.375"/>
      <point x="488.65" y="403.45"/>
      <point x="488.65" y="572.75" type="curve"/>
      <point x="488.65" y="678.25"/>
      <point x="400.875" y="752.0"/>
      <point x="264.725" y="752.0" type="curve"/>
      <point x="159.0" y="752.0"/>
      <point x="70.9" y="701.525"/>
      <point x="28.625" y="617.725" type="curve"/>
      <point x="26.075" y="612.525"/>
      <point x="27.075" y="606.775"/>
    </contour>
  </outline>
</glyph>
<glyph name="at" format="2">
  <advance width="834.0"/>
  <unicode hex="0040"/>
  <outline>
    <contour>
      <point x="655.5" y="-46.0" type="curve"/>
      <point x="655.5" y="-46.0" type="line"/>
      <point x="662.05" y="-41.45"/>
      <point x="669.225" y="-35.45"/>
      <point x="662.5" y="-26.0" type="curve"/>
      <point x="642.8" y="0.45000000000000107" type="line" smooth="yes"/>
      <point x="638.8" y="5.725000000000001"/>
      <point x="632.075" y="7.0"/>
      <point x="623.25" y="1.450000000000001" type="curve"/>
      <point x="574.625" y="-30.174999999999997"/>
      <point x="534.175" y="-55.8"/>
      <point x="447.9" y="-55.8" type="curve"/>
      <point x="229.75" y="-55.8"/>
      <point x="114.1" y="82.7"/>
      <point x="114.1" y="259.925" type="curve"/>
      <point x="114.1" y="445.75"/>
      <point x="234.075" y="602.05"/>
      <point x="448.55" y="602.05" type="curve"/>
      <point x="586.725" y="602.05"/>
      <point x="736.275" y="528.3"/>
      <point x="736.275" y="333.45" type="curve"/>
      <point x="736.275" y="213.5"/>
      <point x="679.05" y="140.775"/>
      <point x="613.6" y="140.775" type="curve"/>
      <point x="579.2" y="140.775"/>
      <point x="563.75" y="160.475"/>
      <point x="573.65" y="219.775" type="curve"/>
      <point x="610.825" y="442.45" type="line" smooth="yes"/>
      <point x="611.825" y="447.0"/>
      <point x="608.825" y="449.0"/>
      <point x="604.275" y="449.0" type="curve"/>
      <point x="559.325" y="449.0" type="line" smooth="yes"/>
      <point x="554.775" y="449.0"/>
      <point x="552.225" y="447.725"/>
      <point x="551.225" y="443.45" type="curve"/>
      <point x="543.7" y="414.525" type="line" smooth="yes"/>
      <point x="542.425" y="408.975"/>
      <point x="538.425" y="408.7"/>
      <point x="536.6" y="411.25" type="curve"/>
      <point x="513.6" y="448.925"/>
      <point x="475.825" y="475.0"/>
      <point x="421.275" y="475.0" type="curve"/>
      <point x="307.225" y="475.0"/>
      <point x="227.5" y="370.25"/>
      <point x="227.5" y="243.275" type="curve"/>
      <point x="227.225" y="136.0"/>
      <point x="292.325" y="67.0"/>
      <point x="368.375" y="67.0" type="curve"/>
      <point x="433.975" y="67.0"/>
      <point x="477.8" y="95.8"/>
      <point x="507.8" y="135.325" type="curve"/>
      <point x="513.8" y="143.05"/>
      <point x="516.25" y="143.325"/>
      <point x="519.35" y="134.15" type="curve"/>
      <point x="529.175" y="98.4"/>
      <point x="556.9" y="81.0"/>
      <point x="609.025" y="81.0" type="curve"/>
      <point x="719.6" y="81.0"/>
      <point x="802.5" y="187.0"/>
      <point x="802.5" y="339.45" type="curve"/>
      <point x="802.5" y="564.275"/>
      <point x="622.225" y="661.0"/>
      <point x="449.275" y="661.0" type="curve"/>
      <point x="208.4" y="661.0"/>
      <point x="47.5" y="477.0"/>
      <point x="47.5" y="261.275" type="curve"/>
      <point x="47.5" y="55.0"/>
      <point x="191.6" y="-113.0"/>
      <point x="434.525" y="-113.0" type="curve"/>
      <point x="522.6" y="-113.0"/>
      <point x="599.0" y="-86.25"/>
    </contour>
    <contour>
      <point x="300.05" y="247.85" type="curve"/>
      <point x="300.05" y="247.85" type="line"/>
      <point x="300.05" y="339.025"/>
      <point x="350.75" y="412.575"/>
      <point x="425.475" y="412.575" type="curve"/>
      <point x="478.625" y="412.575"/>
      <point x="528.175" y="364.325"/>
      <point x="515.125" y="270.675" type="curve"/>
      <point x="504.975" y="194.3"/>
      <point x="448.4" y="129.425"/>
      <point x="381.9" y="129.425" type="curve"/>
      <point x="329.925" y="129.425"/>
      <point x="300.05" y="175.95"/>
    </contour>
  </outline>
</glyph>
<glyph name="A" format="2">
  <advance width="727.225"/>
  <unicode hex="0041"/>
  <anchor x="668.425" y="10.45" name="ogonek"/>
  <anchor x="363.75" y="0.0" name="bottom"/>
  <anchor x="362.375" y="742.0" name="top"/>
  <outline>
    <contour>
      <point x="55.325" y="0.0" type="curve"/>
      <point x="55.325" y="0.0" type="line"/>
      <point x="115.25" y="0.0" type="line" smooth="yes"/>
      <point x="123.45" y="0.0"/>
      <point x="128.275" y="3.375"/>
      <point x="129.825" y="9.2" type="curve"/>
      <point x="201.275" y="204.05" type="line" smooth="yes"/>
      <point x="203.275" y="209.6"/>
      <point x="206.1" y="212.15"/>
      <point x="212.65" y="212.15" type="curve"/>
      <point x="504.4" y="212.15" type="line" smooth="yes"/>
      <point x="511.5" y="212.15"/>
      <point x="513.5" y="209.325"/>
      <point x="515.775" y="203.775" type="curve"/>
      <point x="585.225" y="10.475" type="line" smooth="yes"/>
      <point x="587.775" y="2.55"/>
      <point x="592.875" y="0.0"/>
      <point x="600.7" y="0.0" type="curve"/>
      <point x="672.0" y="0.0" type="line" smooth="yes"/>
      <point x="681.2" y="0.0"/>
      <point x="684.475" y="8.4"/>
      <point x="681.65" y="16.6" type="curve"/>
      <point x="425.7" y="727.325" type="line" smooth="yes"/>
      <point x="422.6" y="736.8"/>
      <point x="414.675" y="742.0"/>
      <point x="402.75" y="742.0" type="curve"/>
      <point x="324.65" y="742.0" type="line" smooth="yes"/>
      <point x="313.175" y="742.0"/>
      <point x="308.625" y="737.9"/>
      <point x="304.8" y="727.7" type="curve"/>
      <point x="46.125" y="16.700000000000003" type="line" smooth="yes"/>
      <point x="42.475" y="6.300000000000001"/>
      <point x="46.85" y="0.0"/>
    </contour>
    <contour>
      <point x="478.325" y="287.9" type="curve"/>
      <point x="236.0" y="287.9" type="line"/>
      <point x="228.35" y="287.9"/>
      <point x="226.075" y="290.825"/>
      <point x="229.625" y="299.475" type="curve"/>
      <point x="351.525" y="629.7" type="line" smooth="yes"/>
      <point x="355.7" y="641.775"/>
      <point x="361.25" y="641.775"/>
      <point x="365.7" y="630.425" type="curve"/>
      <point x="485.875" y="300.65" type="line" smooth="yes"/>
      <point x="488.425" y="292.725"/>
      <point x="487.15" y="287.9"/>
    </contour>
  </outline>
</glyph>
<glyph name="B" format="2">
  <advance width="699.125"/>
  <unicode hex="0042"/>
  <outline>
    <contour>
      <point x="109.075" y="0.0" type="curve"/>
      <point x="109.075" y="0.0" type="line"/>
      <point x="347.5" y="0.0" type="line" smooth="yes"/>
      <point x="533.775" y="0.0"/>
      <point x="636.775" y="65.0"/>
      <point x="636.775" y="198.375" type="curve"/>
      <point x="636.775" y="294.25"/>
      <point x="583.275" y="351.05"/>
      <point x="487.775" y="374.65" type="curve"/>
      <point x="482.6" y="375.65"/>
      <point x="482.6" y="381.375"/>
      <point x="487.775" y="383.1" type="curve"/>
      <point x="579.075" y="415.325"/>
      <point x="618.775" y="469.75"/>
      <point x="618.775" y="549.625" type="curve"/>
      <point x="618.775" y="675.0"/>
      <point x="518.2" y="742.0"/>
      <point x="340.925" y="742.0" type="curve"/>
      <point x="110.35" y="742.0" type="line" smooth="yes"/>
      <point x="101.15" y="742.0"/>
      <point x="96.95" y="737.525"/>
      <point x="96.95" y="727.6" type="curve"/>
      <point x="96.95" y="11.850000000000001" type="line" smooth="yes"/>
      <point x="96.95" y="4.925000000000001"/>
      <point x="101.6" y="0.0"/>
    </contour>
    <contour>
      <point x="342.5" y="70.25" type="curve"/>
      <point x="202.475" y="70.25" type="line"/>
      <point x="195.275" y="70.25"/>
      <point x="192.725" y="74.35"/>
      <point x="192.725" y="83.55000000000001" type="curve"/>
      <point x="192.725" y="327.025" type="line" smooth="yes"/>
      <point x="192.725" y="336.225"/>
      <point x="196.55" y="339.325"/>
      <point x="207.025" y="339.325" type="curve"/>
      <point x="354.025" y="339.325" type="line" smooth="yes"/>
      <point x="458.4" y="339.325"/>
      <point x="537.075" y="299.175"/>
      <point x="537.075" y="200.9" type="curve"/>
      <point x="537.075" y="111.15"/>
      <point x="473.0" y="70.25"/>
    </contour>
    <contour>
      <point x="354.025" y="410.675" type="curve"/>
      <point x="202.475" y="410.675" type="line"/>
      <point x="195.275" y="410.675"/>
      <point x="192.725" y="414.775"/>
      <point x="192.725" y="423.975" type="curve"/>
      <point x="192.725" y="660.45" type="line" smooth="yes"/>
      <point x="192.725" y="668.925"/>
      <point x="196.55" y="671.75"/>
      <point x="205.575" y="671.75" type="curve"/>
      <point x="340.5" y="671.75" type="line" smooth="yes"/>
      <point x="451.3" y="671.75"/>
      <point x="522.375" y="629.25"/>
      <point x="522.375" y="538.85" type="curve"/>
      <point x="522.375" y="439.675"/>
      <point x="434.375" y="410.675"/>
    </contour>
  </outline>
</glyph>
<glyph name="C" format="2">
  <advance width="706.55"/>
  <unicode hex="0043"/>
  <anchor x="377.75" y="742.0" name="top"/>
  <anchor x="381.55" y="0.0" name="bottom"/>
  <outline>
    <contour>
      <point x="377.75" y="752.0" type="curve"/>
      <point x="377.75" y="752.0" type="line"/>
      <point x="182.5" y="752.0"/>
      <point x="64.8" y="608.9"/>
      <point x="64.8" y="371.575" type="curve"/>
      <point x="64.8" y="134.7"/>
      <point x="182.5" y="-10.0"/>
      <point x="381.55" y="-10.0" type="curve"/>
      <point x="532.8" y="-10.0"/>
      <point x="628.95" y="90.15"/>
      <point x="657.075" y="184.75" type="curve"/>
      <point x="658.9" y="194.8"/>
      <point x="655.15" y="197.625"/>
      <point x="651.775" y="198.9" type="curve"/>
      <point x="592.75" y="213.025" type="line" smooth="yes"/>
      <point x="586.175" y="214.575"/>
      <point x="582.25" y="213.025"/>
      <point x="580.7" y="209.375" type="curve"/>
      <point x="542.075" y="109.05"/>
      <point x="480.2" y="65.55000000000001"/>
      <point x="386.375" y="65.55000000000001" type="curve"/>
      <point x="238.675" y="65.55000000000001"/>
      <point x="165.05" y="169.225"/>
      <point x="165.05" y="370.475" type="curve"/>
      <point x="165.05" y="576.975"/>
      <point x="242.05" y="679.2"/>
      <point x="380.85" y="679.2" type="curve"/>
      <point x="472.225" y="679.2"/>
      <point x="537.375" y="621.15"/>
      <point x="557.075" y="536.325" type="curve"/>
      <point x="558.625" y="528.125"/>
      <point x="560.35" y="525.3"/>
      <point x="567.375" y="526.025" type="curve"/>
      <point x="641.6" y="531.95" type="line" smooth="yes"/>
      <point x="649.35" y="532.5"/>
      <point x="651.175" y="535.325"/>
      <point x="648.8" y="546.65" type="curve"/>
      <point x="632.95" y="657.9"/>
      <point x="512.675" y="752.0"/>
    </contour>
  </outline>
</glyph>
<glyph name="D" format="2">
  <advance width="721.7"/>
  <unicode hex="0044"/>
  <anchor x="355.2" y="371.0" name="center"/>
  <anchor x="350.85" y="742.0" name="top"/>
  <outline>
    <contour>
      <point x="111.625" y="742.0" type="curve"/>
      <point x="111.625" y="742.0" type="line"/>
      <point x="101.05" y="742.0"/>
      <point x="96.95" y="737.45"/>
      <point x="96.95" y="727.875" type="curve"/>
      <point x="96.95" y="15.5" type="line" smooth="yes"/>
      <point x="96.95" y="4.375"/>
      <point x="101.6" y="0.0"/>
      <point x="111.45" y="0.0" type="curve"/>
      <point x="257.725" y="0.0" type="line" smooth="yes"/>
      <point x="528.7" y="0.0"/>
      <point x="657.35" y="126.55"/>
      <point x="657.35" y="377.075" type="curve"/>
      <point x="657.35" y="611.275"/>
      <point x="543.85" y="737.075"/>
      <point x="268.15" y="741.0" type="curve"/>
      <point x="244.95" y="741.55"/>
      <point x="132.225" y="742.0"/>
    </contour>
    <contour>
      <point x="202.725" y="669.1" type="curve"/>
      <point x="202.725" y="669.1" type="line"/>
      <point x="247.75" y="669.1" type="line" smooth="yes"/>
      <point x="458.95" y="669.1"/>
      <point x="557.1" y="600.0"/>
      <point x="557.1" y="371.825" type="curve"/>
      <point x="557.1" y="153.375"/>
      <point x="463.425" y="72.17500000000001"/>
      <point x="242.725" y="72.17500000000001" type="curve"/>
      <point x="204.55" y="72.17500000000001" type="line" smooth="yes"/>
      <point x="195.725" y="72.17500000000001"/>
      <point x="192.725" y="75.17500000000001"/>
      <point x="192.725" y="82.825" type="curve"/>
      <point x="192.725" y="655.1" type="line" smooth="yes"/>
      <point x="192.725" y="663.925"/>
      <point x="195.0" y="669.1"/>
    </contour>
  </outline>
</glyph>
<glyph name="E" format="2">
  <advance width="628.225"/>
  <unicode hex="0045"/>
  <anchor x="565.775" y="10.0" name="ogonek"/>
  <anchor x="356.3" y="0.0" name="bottom"/>
  <anchor x="342.525" y="742.0" name="top"/>
  <outline>
    <contour>
      <point x="96.95" y="728.425" type="curve"/>
      <point x="96.95" y="728.425" type="line"/>
      <point x="96.95" y="14.125" type="line" smooth="yes"/>
      <point x="96.95" y="3.6500000000000004"/>
      <point x="100.325" y="0.0"/>
      <point x="110.9" y="0.0" type="curve"/>
      <point x="569.775" y="0.0" type="line" smooth="yes"/>
      <point x="578.075" y="0.0"/>
      <point x="581.45" y="4.2"/>
      <point x="581.45" y="11.125" type="curve"/>
      <point x="581.45" y="63.800000000000004" type="line" smooth="yes"/>
      <point x="581.45" y="72.0"/>
      <point x="577.8" y="74.1"/>
      <point x="569.6" y="74.1" type="curve"/>
      <point x="202.55" y="74.1" type="line" smooth="yes"/>
      <point x="195.0" y="74.1"/>
      <point x="192.725" y="75.65"/>
      <point x="192.725" y="84.475" type="curve"/>
      <point x="192.725" y="327.3" type="line" smooth="yes"/>
      <point x="192.725" y="335.3"/>
      <point x="195.825" y="337.675"/>
      <point x="203.65" y="337.675" type="curve"/>
      <point x="463.325" y="337.675" type="line" smooth="yes"/>
      <point x="471.25" y="337.675"/>
      <point x="474.075" y="340.6"/>
      <point x="474.075" y="347.425" type="curve"/>
      <point x="474.075" y="400.375" type="line" smooth="yes"/>
      <point x="474.075" y="407.575"/>
      <point x="470.7" y="410.95"/>
      <point x="463.225" y="410.95" type="curve"/>
      <point x="204.2" y="410.95" type="line" smooth="yes"/>
      <point x="196.375" y="410.95"/>
      <point x="192.725" y="413.6"/>
      <point x="192.725" y="421.8" type="curve"/>
      <point x="192.725" y="656.15" type="line" smooth="yes"/>
      <point x="192.725" y="665.525"/>
      <point x="196.375" y="667.9"/>
      <point x="205.575" y="667.9" type="curve"/>
      <point x="554.875" y="667.9" type="line" smooth="yes"/>
      <point x="564.175" y="667.9"/>
      <point x="567.825" y="671.65"/>
      <point x="567.825" y="680.4" type="curve"/>
      <point x="568.1" y="731.15" type="line" smooth="yes"/>
      <point x="568.1" y="738.35"/>
      <point x="565.0" y="742.0"/>
      <point x="558.075" y="742.0" type="curve"/>
      <point x="108.7" y="742.0" type="line" smooth="yes"/>
      <point x="100.325" y="742.0"/>
      <point x="96.95" y="738.35"/>
    </contour>
  </outline>
</glyph>
<glyph name="F" format="2">
  <advance width="601.425"/>
  <unicode hex="0046"/>
  <outline>
    <contour>
      <point x="96.95" y="728.425" type="curve"/>
      <point x="96.95" y="728.425" type="line"/>
      <point x="96.95" y="14.125" type="line" smooth="yes"/>
      <point x="96.95" y="3.6500000000000004"/>
      <point x="100.05" y="0.0"/>
      <point x="110.9" y="0.0" type="curve"/>
      <point x="178.575" y="0.0" type="line" smooth="yes"/>
      <point x="188.525" y="0.0"/>
      <point x="192.725" y="3.6500000000000004"/>
      <point x="192.725" y="13.05" type="curve"/>
      <point x="192.725" y="315.95" type="line" smooth="yes"/>
      <point x="192.725" y="324.225"/>
      <point x="195.825" y="326.6"/>
      <point x="203.65" y="326.6" type="curve"/>
      <point x="471.125" y="326.6" type="line" smooth="yes"/>
      <point x="479.325" y="326.6"/>
      <point x="481.875" y="329.25"/>
      <point x="481.875" y="336.35" type="curve"/>
      <point x="481.875" y="388.75" type="line" smooth="yes"/>
      <point x="481.875" y="395.95"/>
      <point x="478.775" y="399.325"/>
      <point x="471.3" y="399.325" type="curve"/>
      <point x="204.2" y="399.325" type="line" smooth="yes"/>
      <point x="196.1" y="399.325"/>
      <point x="192.725" y="401.7"/>
      <point x="192.725" y="409.9" type="curve"/>
      <point x="192.725" y="656.15" type="line" smooth="yes"/>
      <point x="192.725" y="665.525"/>
      <point x="196.1" y="667.9"/>
      <point x="205.575" y="667.9" type="curve"/>
      <point x="545.975" y="667.9" type="line" smooth="yes"/>
      <point x="555.275" y="667.9"/>
      <point x="558.65" y="671.65"/>
      <point x="558.65" y="680.4" type="curve"/>
      <point x="558.925" y="731.15" type="line" smooth="yes"/>
      <point x="558.925" y="738.35"/>
      <point x="555.825" y="742.0"/>
      <point x="548.9" y="742.0" type="curve"/>
      <point x="108.7" y="742.0" type="line" smooth="yes"/>
      <point x="100.6" y="742.0"/>
      <point x="96.95" y="738.35"/>
    </contour>
  </outline>
</glyph>
<glyph name="G" format="2">
  <advance width="738.525"/>
  <unicode hex="0047"/>
  <anchor x="376.2" y="742.0" name="top"/>
  <anchor x="379.825" y="0.0" name="bottom"/>
  <outline>
    <contour>
      <point x="374.925" y="-10.0" type="curve"/>
      <point x="374.925" y="-10.0" type="line"/>
      <point x="487.85" y="-10.0"/>
      <point x="554.8" y="43.625"/>
      <point x="592.975" y="104.0" type="curve"/>
      <point x="597.25" y="110.725"/>
      <point x="600.975" y="110.0"/>
      <point x="601.8" y="104.55" type="curve"/>
      <point x="612.8" y="11.75" type="line" smooth="yes"/>
      <point x="615.55" y="1.375"/>
      <point x="621.925" y="0.0"/>
      <point x="631.025" y="0.0" type="curve"/>
      <point x="653.8" y="0.0" type="line" smooth="yes"/>
      <point x="661.625" y="0.0"/>
      <point x="665.725" y="3.6500000000000004"/>
      <point x="665.725" y="12.65" type="curve"/>
      <point x="665.725" y="363.575" type="line" smooth="yes"/>
      <point x="665.725" y="371.425"/>
      <point x="660.7" y="376.45"/>
      <point x="650.925" y="376.45" type="curve"/>
      <point x="402.825" y="377.0" type="line" smooth="yes"/>
      <point x="396.525" y="377.0"/>
      <point x="393.425" y="373.625"/>
      <point x="393.425" y="367.975" type="curve"/>
      <point x="393.425" y="324.9" type="line" smooth="yes"/>
      <point x="393.425" y="317.325"/>
      <point x="396.525" y="314.5"/>
      <point x="404.0" y="314.5" type="curve"/>
      <point x="566.875" y="314.5" type="line" smooth="yes"/>
      <point x="573.975" y="314.5"/>
      <point x="578.425" y="312.125"/>
      <point x="577.325" y="304.025" type="curve"/>
      <point x="576.5" y="244.275" type="line" smooth="yes"/>
      <point x="571.55" y="163.475"/>
      <point x="510.0" y="63.35"/>
      <point x="380.05" y="63.35" type="curve"/>
      <point x="240.975" y="63.35"/>
      <point x="165.05" y="164.0"/>
      <point x="165.05" y="374.0" type="curve"/>
      <point x="165.05" y="573.0"/>
      <point x="240.775" y="678.925"/>
      <point x="377.85" y="678.925" type="curve"/>
      <point x="474.5" y="678.925"/>
      <point x="545.75" y="614.425"/>
      <point x="560.1" y="534.775" type="curve"/>
      <point x="561.65" y="527.575"/>
      <point x="564.1" y="524.2"/>
      <point x="570.675" y="524.925" type="curve"/>
      <point x="643.075" y="536.425" type="line" smooth="yes"/>
      <point x="651.1" y="537.7"/>
      <point x="652.2" y="541.25"/>
      <point x="650.55" y="551.85" type="curve"/>
      <point x="635.25" y="656.675"/>
      <point x="517.9" y="752.0"/>
      <point x="379.225" y="752.0" type="curve"/>
      <point x="189.15" y="752.0"/>
      <point x="64.8" y="609.875"/>
      <point x="64.8" y="368.0" type="curve"/>
      <point x="64.8" y="133.4"/>
      <point x="182.775" y="-10.0"/>
    </contour>
  </outline>
</glyph>
<glyph name="H" format="2">
  <advance width="735.175"/>
  <unicode hex="0048"/>
  <anchor x="367.675" y="742.0" name="top"/>
  <anchor x="367.125" y="0.0" name="bottom"/>
  <outline>
    <contour>
      <point x="201.475" y="347.025" type="curve"/>
      <point x="532.975" y="347.025" type="line"/>
      <point x="539.35" y="347.025"/>
      <point x="542.45" y="343.65"/>
      <point x="542.45" y="337.825" type="curve"/>
      <point x="542.45" y="14.5" type="line" smooth="yes"/>
      <point x="542.45" y="3.6500000000000004"/>
      <point x="547.375" y="0.0"/>
      <point x="558.775" y="0.0" type="curve"/>
      <point x="624.275" y="0.0" type="line" smooth="yes"/>
      <point x="634.4" y="0.0"/>
      <point x="638.225" y="4.375"/>
      <point x="638.225" y="14.125" type="curve"/>
      <point x="638.225" y="728.425" type="line" smooth="yes"/>
      <point x="638.225" y="738.35"/>
      <point x="634.575" y="742.0"/>
      <point x="626.475" y="742.0" type="curve"/>
      <point x="553.2" y="742.0" type="line" smooth="yes"/>
      <point x="545.825" y="742.0"/>
      <point x="542.45" y="737.625"/>
      <point x="542.45" y="729.7" type="curve"/>
      <point x="542.45" y="434.625" type="line" smooth="yes"/>
      <point x="542.45" y="426.7"/>
      <point x="539.075" y="423.325"/>
      <point x="531.7" y="423.325" type="curve"/>
      <point x="204.2" y="423.325" type="line" smooth="yes"/>
      <point x="196.1" y="423.325"/>
      <point x="192.725" y="425.975"/>
      <point x="192.725" y="435.35" type="curve"/>
      <point x="192.725" y="728.975" type="line" smooth="yes"/>
      <point x="192.725" y="738.35"/>
      <point x="189.35" y="742.0"/>
      <point x="181.25" y="742.0" type="curve"/>
      <point x="108.7" y="742.0" type="line" smooth="yes"/>
      <point x="100.6" y="742.0"/>
      <point x="96.95" y="738.35"/>
      <point x="96.95" y="728.425" type="curve"/>
      <point x="96.95" y="14.125" type="line" smooth="yes"/>
      <point x="96.95" y="4.375"/>
      <point x="100.05" y="0.0"/>
      <point x="110.9" y="0.0" type="curve"/>
      <point x="176.4" y="0.0" type="line" smooth="yes"/>
      <point x="187.8" y="0.0"/>
      <point x="192.725" y="4.375"/>
      <point x="192.725" y="14.5" type="curve"/>
      <point x="192.725" y="338.55" type="line" smooth="yes"/>
      <point x="192.725" y="342.925"/>
      <point x="195.825" y="347.025"/>
    </contour>
  </outline>
</glyph>
<glyph name="I" format="2">
  <advance width="289.675"/>
  <unicode hex="0049"/>
  <anchor x="175.95" y="10.0" name="ogonek"/>
  <anchor x="144.7" y="0.0" name="bottom"/>
  <anchor x="147.15" y="742.0" name="top"/>
  <outline>
    <contour>
      <point x="181.25" y="742.0" type="curve"/>
      <point x="108.7" y="742.0" type="line"/>
      <point x="100.6" y="742.0"/>
      <point x="96.95" y="738.35"/>
      <point x="96.95" y="728.425" type="curve"/>
      <point x="96.95" y="14.125" type="line" smooth="yes"/>
      <point x="96.95" y="3.6500000000000004"/>
      <point x="100.05" y="0.0"/>
      <point x="112.35" y="0.0" type="curve"/>
      <point x="174.95" y="0.0" type="line" smooth="yes"/>
      <point x="188.525" y="0.0"/>
      <point x="192.725" y="3.6500000000000004"/>
      <point x="192.725" y="16.675" type="curve"/>
      <point x="192.725" y="728.975" type="line" smooth="yes"/>
      <point x="192.725" y="738.35"/>
      <point x="189.625" y="742.0"/>
    </contour>
  </outline>
</glyph>
<glyph name="J" format="2">
  <advance width="417.7"/>
  <unicode hex="004A"/>
  <anchor x="259.675" y="742.0" name="top"/>
  <outline>
    <contour>
      <point x="325.025" y="162.7" type="curve"/>
      <point x="325.025" y="162.7" type="line"/>
      <point x="325.025" y="728.975" type="line" smooth="yes"/>
      <point x="325.025" y="737.625"/>
      <point x="321.925" y="742.0"/>
      <point x="314.275" y="742.0" type="curve"/>
      <point x="240.55" y="742.0" type="line" smooth="yes"/>
      <point x="232.9" y="742.0"/>
      <point x="229.25" y="737.625"/>
      <point x="229.25" y="729.15" type="curve"/>
      <point x="229.25" y="185.35" type="line" smooth="yes"/>
      <point x="229.25" y="99.225"/>
      <point x="205.325" y="72.775"/>
      <point x="144.725" y="72.775" type="curve"/>
      <point x="103.15" y="72.775"/>
      <point x="82.525" y="85.025"/>
      <point x="62.9" y="92.825" type="curve"/>
      <point x="55.6" y="94.825"/>
      <point x="51.5" y="91.35"/>
      <point x="50.5" y="83.6" type="curve"/>
      <point x="41.5" y="29.775" type="line" smooth="yes"/>
      <point x="40.225" y="19.175"/>
      <point x="44.425" y="13.975"/>
      <point x="52.925" y="11.425" type="curve"/>
      <point x="70.375" y="5.6"/>
      <point x="113.45" y="-10.0"/>
      <point x="164.6" y="-10.0" type="curve"/>
      <point x="277.825" y="-10.0"/>
      <point x="325.025" y="48.725"/>
    </contour>
  </outline>
</glyph>
<glyph name="K" format="2">
  <advance width="700.95"/>
  <unicode hex="004B"/>
  <anchor x="372.45" y="742.0" name="top"/>
  <anchor x="350.7" y="0.0" name="bottom"/>
  <outline>
    <contour>
      <point x="656.55" y="13.600000000000001" type="curve"/>
      <point x="656.55" y="13.600000000000001" type="line"/>
      <point x="393.6" y="454.625" type="line" smooth="yes"/>
      <point x="390.5" y="461.375"/>
      <point x="390.775" y="463.3"/>
      <point x="394.425" y="467.775" type="curve"/>
      <point x="627.3" y="728.225" type="line" smooth="yes"/>
      <point x="633.775" y="735.25"/>
      <point x="629.75" y="742.0"/>
      <point x="619.35" y="742.0" type="curve"/>
      <point x="550.0" y="742.0" type="line" smooth="yes"/>
      <point x="539.05" y="742.0"/>
      <point x="535.4" y="739.625"/>
      <point x="530.2" y="733.325" type="curve"/>
      <point x="201.925" y="360.775" type="line" smooth="yes"/>
      <point x="196.1" y="354.4"/>
      <point x="192.725" y="354.125"/>
      <point x="192.725" y="362.875" type="curve"/>
      <point x="192.725" y="730.425" type="line" smooth="yes"/>
      <point x="192.725" y="738.35"/>
      <point x="188.9" y="742.0"/>
      <point x="181.975" y="742.0" type="curve"/>
      <point x="107.975" y="742.0" type="line" smooth="yes"/>
      <point x="100.6" y="742.0"/>
      <point x="96.95" y="737.625"/>
      <point x="96.95" y="729.875" type="curve"/>
      <point x="96.95" y="13.4" type="line" smooth="yes"/>
      <point x="96.95" y="3.6500000000000004"/>
      <point x="100.775" y="0.0"/>
      <point x="111.625" y="0.0" type="curve"/>
      <point x="176.4" y="0.0" type="line" smooth="yes"/>
      <point x="187.8" y="0.0"/>
      <point x="192.725" y="4.375"/>
      <point x="192.725" y="14.5" type="curve"/>
      <point x="192.725" y="227.85" type="line" smooth="yes"/>
      <point x="192.725" y="236.4"/>
      <point x="194.45" y="240.225"/>
      <point x="200.175" y="246.225" type="curve"/>
      <point x="315.4" y="377.1" type="line" smooth="yes"/>
      <point x="321.775" y="384.3"/>
      <point x="325.6" y="385.575"/>
      <point x="330.15" y="378.475" type="curve"/>
      <point x="550.75" y="9.125" type="line" smooth="yes"/>
      <point x="554.125" y="2.825"/>
      <point x="560.325" y="0.0"/>
      <point x="568.625" y="0.0" type="curve"/>
      <point x="650.525" y="0.0" type="line" smooth="yes"/>
      <point x="658.925" y="0.0"/>
      <point x="660.925" y="6.300000000000001"/>
    </contour>
  </outline>
</glyph>
<glyph name="L" format="2">
  <advance width="602.4"/>
  <unicode hex="004C"/>
  <anchor x="145.525" y="742.0" name="top"/>
  <anchor x="317.625" y="0.0" name="bottom"/>
  <anchor x="446.925" y="742.0" name="topright"/>
  <outline>
    <contour>
      <point x="96.95" y="728.425" type="curve"/>
      <point x="96.95" y="728.425" type="line"/>
      <point x="96.95" y="14.125" type="line" smooth="yes"/>
      <point x="96.95" y="4.375"/>
      <point x="100.05" y="0.0"/>
      <point x="110.9" y="0.0" type="curve"/>
      <point x="548.675" y="0.0" type="line"/>
      <point x="556.975" y="0.0"/>
      <point x="560.625" y="4.2"/>
      <point x="560.625" y="11.125" type="curve"/>
      <point x="560.625" y="63.800000000000004" type="line" smooth="yes"/>
      <point x="560.625" y="72.0"/>
      <point x="556.7" y="74.1"/>
      <point x="548.5" y="74.1" type="curve"/>
      <point x="202.55" y="74.1" type="line" smooth="yes"/>
      <point x="195.0" y="74.1"/>
      <point x="192.725" y="75.65"/>
      <point x="192.725" y="84.475" type="curve"/>
      <point x="192.725" y="728.975" type="line" smooth="yes"/>
      <point x="192.725" y="738.35"/>
      <point x="189.625" y="742.0"/>
      <point x="181.25" y="742.0" type="curve"/>
      <point x="108.7" y="742.0" type="line" smooth="yes"/>
      <point x="100.6" y="742.0"/>
      <point x="96.95" y="738.35"/>
    </contour>
  </outline>
</glyph>
<glyph name="M" format="2">
  <advance width="905.95"/>
  <unicode hex="004D"/>
  <outline>
    <contour>
      <point x="110.625" y="0.0" type="curve"/>
      <point x="110.625" y="0.0" type="line"/>
      <point x="165.325" y="0.0" type="line" smooth="yes"/>
      <point x="175.35" y="0.0"/>
      <point x="178.625" y="3.275"/>
      <point x="178.625" y="12.575" type="curve"/>
      <point x="178.625" y="578.55" type="line" smooth="yes"/>
      <point x="178.625" y="585.025"/>
      <point x="182.0" y="585.4"/>
      <point x="184.1" y="578.825" type="curve"/>
      <point x="400.6" y="12.2" type="line" smooth="yes"/>
      <point x="403.875" y="3.825"/>
      <point x="409.7" y="0.0"/>
      <point x="420.975" y="0.0" type="curve"/>
      <point x="469.425" y="0.0" type="line" smooth="yes"/>
      <point x="478.975" y="0.0"/>
      <point x="484.35" y="4.1"/>
      <point x="487.625" y="12.925" type="curve"/>
      <point x="707.75" y="584.65" type="line" smooth="yes"/>
      <point x="709.575" y="590.125"/>
      <point x="713.225" y="591.575"/>
      <point x="713.225" y="584.925" type="curve"/>
      <point x="713.225" y="13.4" type="line" smooth="yes"/>
      <point x="713.225" y="3.6500000000000004"/>
      <point x="717.05" y="0.0"/>
      <point x="727.625" y="0.0" type="curve"/>
      <point x="793.675" y="0.0" type="line" smooth="yes"/>
      <point x="804.35" y="0.0"/>
      <point x="809.0" y="4.375"/>
      <point x="809.0" y="15.225000000000001" type="curve"/>
      <point x="809.0" y="728.975" type="line" smooth="yes"/>
      <point x="809.0" y="738.35"/>
      <point x="805.9" y="742.0"/>
      <point x="797.525" y="742.0" type="curve"/>
      <point x="697.025" y="742.0" type="line" smooth="yes"/>
      <point x="688.825" y="742.0"/>
      <point x="684.45" y="737.525"/>
      <point x="681.625" y="728.95" type="curve"/>
      <point x="459.575" y="158.775" type="line" smooth="yes"/>
      <point x="454.4" y="146.15"/>
      <point x="449.125" y="145.60000000000002"/>
      <point x="444.4" y="158.05" type="curve"/>
      <point x="222.225" y="731.25" type="line"/>
      <point x="219.4" y="739.45"/>
      <point x="215.575" y="742.0"/>
      <point x="205.1" y="742.0" type="curve"/>
      <point x="109.25" y="742.0" type="line" smooth="yes"/>
      <point x="100.05" y="742.0"/>
      <point x="96.95" y="738.625"/>
      <point x="96.95" y="728.425" type="curve"/>
      <point x="96.95" y="14.95" type="line" smooth="yes"/>
      <point x="96.95" y="5.2"/>
      <point x="101.15" y="0.0"/>
    </contour>
  </outline>
</glyph>
<glyph name="N" format="2">
  <advance width="756.65"/>
  <unicode hex="004E"/>
  <anchor x="390.425" y="742.0" name="top"/>
  <anchor x="365.05" y="0.0" name="bottom"/>
  <outline>
    <contour>
      <point x="649.05" y="742.0" type="curve"/>
      <point x="589.6" y="742.0" type="line"/>
      <point x="581.125" y="742.0"/>
      <point x="577.75" y="737.625"/>
      <point x="577.75" y="729.7" type="curve"/>
      <point x="577.75" y="185.925" type="line" smooth="yes"/>
      <point x="577.75" y="177.175"/>
      <point x="570.75" y="172.825"/>
      <point x="563.2" y="183.375" type="curve"/>
      <point x="187.625" y="731.975" type="line" smooth="yes"/>
      <point x="181.7" y="740.45"/>
      <point x="177.875" y="742.0"/>
      <point x="167.4" y="742.0" type="curve"/>
      <point x="109.525" y="742.0" type="line"/>
      <point x="100.325" y="742.0"/>
      <point x="96.95" y="738.625"/>
      <point x="96.95" y="728.425" type="curve"/>
      <point x="96.95" y="12.75" type="line" smooth="yes"/>
      <point x="96.95" y="3.55"/>
      <point x="101.15" y="0.0"/>
      <point x="110.35" y="0.0" type="curve"/>
      <point x="165.875" y="0.0" type="line" smooth="yes"/>
      <point x="175.9" y="0.0"/>
      <point x="180.0" y="3.825"/>
      <point x="179.725" y="12.575" type="curve"/>
      <point x="179.725" y="567.975" type="line" smooth="yes"/>
      <point x="179.725" y="575.7"/>
      <point x="184.725" y="577.7"/>
      <point x="191.175" y="568.525" type="curve"/>
      <point x="577.1" y="8.475" type="line" smooth="yes"/>
      <point x="583.475" y="-0.17499999999999993"/>
      <point x="589.475" y="0.0"/>
      <point x="598.3" y="0.0" type="curve"/>
      <point x="646.85" y="0.0" type="line" smooth="yes"/>
      <point x="654.775" y="0.0"/>
      <point x="659.7" y="4.1"/>
      <point x="659.7" y="12.2" type="curve"/>
      <point x="659.7" y="730.075" type="line" smooth="yes"/>
      <point x="659.7" y="738.9"/>
      <point x="656.875" y="742.0"/>
    </contour>
  </outline>
</glyph>
<glyph name="O" format="2">
  <advance width="764.05"/>
  <unicode hex="004F"/>
  <guideline x="-584.25" y="431.0" angle="90.0"/>
  <anchor x="382.025" y="371.0" name="center"/>
  <anchor x="459.8" y="9.275" name="ogonek"/>
  <anchor x="383.475" y="742.0" name="top"/>
  <anchor x="534.875" y="742.0" name="topright"/>
  <anchor x="20.0" y="742.0" name="topleft"/>
  <anchor x="384.025" y="0.0" name="bottom"/>
  <outline>
    <contour>
      <point x="382.3" y="-10.0" type="curve"/>
      <point x="382.3" y="-10.0" type="line"/>
      <point x="578.55" y="-10.0"/>
      <point x="698.975" y="126.675"/>
      <point x="698.975" y="369.0" type="curve"/>
      <point x="698.975" y="613.325"/>
      <point x="577.725" y="752.0"/>
      <point x="383.025" y="752.0" type="curve"/>
      <point x="187.05" y="752.0"/>
      <point x="65.075" y="612.6"/>
      <point x="65.075" y="367.55" type="curve"/>
      <point x="65.075" y="125.675"/>
      <point x="184.5" y="-10.0"/>
    </contour>
    <contour>
      <point x="383.75" y="63.35" type="curve"/>
      <point x="383.75" y="63.35" type="line"/>
      <point x="238.925" y="63.35"/>
      <point x="165.325" y="160.325"/>
      <point x="165.325" y="368.175" type="curve"/>
      <point x="165.325" y="578.85"/>
      <point x="239.475" y="679.2"/>
      <point x="383.025" y="679.2" type="curve"/>
      <point x="525.3" y="679.2"/>
      <point x="598.725" y="579.575"/>
      <point x="598.725" y="368.175" type="curve"/>
      <point x="598.725" y="159.6"/>
      <point x="527.3" y="63.35"/>
    </contour>
  </outline>
</glyph>
<glyph name="P" format="2">
  <advance width="689.675"/>
  <unicode hex="0050"/>
  <outline>
    <contour>
      <point x="636.3" y="525.65" type="curve"/>
      <point x="636.3" y="525.65" type="line"/>
      <point x="636.3" y="677.95"/>
      <point x="518.15" y="742.0"/>
      <point x="360.675" y="742.0" type="curve"/>
      <point x="108.7" y="742.0" type="line" smooth="yes"/>
      <point x="100.325" y="742.0"/>
      <point x="96.95" y="738.35"/>
      <point x="96.95" y="728.425" type="curve"/>
      <point x="96.95" y="12.675" type="line" smooth="yes"/>
      <point x="96.95" y="4.375"/>
      <point x="100.775" y="0.0"/>
      <point x="109.9" y="0.0" type="curve"/>
      <point x="177.85" y="0.0" type="line" smooth="yes"/>
      <point x="187.8" y="0.0"/>
      <point x="192.725" y="4.375"/>
      <point x="192.725" y="14.5" type="curve"/>
      <point x="192.725" y="300.675" type="line" smooth="yes"/>
      <point x="192.725" y="306.95"/>
      <point x="195.0" y="310.225"/>
      <point x="201.825" y="310.225" type="curve"/>
      <point x="372.175" y="310.225" type="line" smooth="yes"/>
      <point x="526.475" y="310.225"/>
      <point x="636.3" y="378.2"/>
    </contour>
    <contour>
      <point x="537.7" y="528.65" type="curve"/>
      <point x="537.7" y="528.65" type="line"/>
      <point x="537.7" y="427.65"/>
      <point x="468.825" y="383.225"/>
      <point x="362.825" y="383.225" type="curve"/>
      <point x="202.475" y="383.225" type="line" smooth="yes"/>
      <point x="195.275" y="383.225"/>
      <point x="192.725" y="387.325"/>
      <point x="192.725" y="396.525" type="curve"/>
      <point x="192.725" y="657.425" type="line" smooth="yes"/>
      <point x="192.725" y="665.9"/>
      <point x="196.55" y="669.0"/>
      <point x="205.575" y="669.0" type="curve"/>
      <point x="356.1" y="669.0" type="line" smooth="yes"/>
      <point x="466.625" y="669.0"/>
      <point x="537.7" y="631.75"/>
    </contour>
  </outline>
</glyph>
<glyph name="Q" format="2">
  <advance width="764.6"/>
  <unicode hex="0051"/>
  <outline>
    <contour>
      <point x="65.075" y="369.0" type="curve"/>
      <point x="65.075" y="369.0" type="line"/>
      <point x="65.075" y="122.05"/>
      <point x="188.125" y="-10.0"/>
      <point x="382.3" y="-10.0" type="curve"/>
      <point x="408.3" y="-10.0"/>
      <point x="435.825" y="-7.55"/>
      <point x="460.55" y="-2.375" type="curve"/>
      <point x="467.55" y="-0.6500000000000001"/>
      <point x="472.55" y="-2.375"/>
      <point x="475.55" y="-6.375" type="curve"/>
      <point x="538.35" y="-92.7"/>
      <point x="606.0" y="-123.65"/>
      <point x="665.4" y="-123.65" type="curve"/>
      <point x="684.35" y="-123.65"/>
      <point x="692.0" y="-120.55"/>
      <point x="692.0" y="-105.7" type="curve"/>
      <point x="692.0" y="-59.5" type="line" smooth="yes"/>
      <point x="692.0" y="-55.4"/>
      <point x="690.45" y="-51.025"/>
      <point x="682.25" y="-49.75" type="curve"/>
      <point x="616.05" y="-40.849999999999994"/>
      <point x="554.55" y="8.8"/>
      <point x="554.55" y="33.05" type="curve"/>
      <point x="554.55" y="37.05"/>
      <point x="555.275" y="39.05"/>
      <point x="559.45" y="41.775000000000006" type="curve"/>
      <point x="648.2" y="101.975"/>
      <point x="699.25" y="205.5"/>
      <point x="699.25" y="369.0" type="curve"/>
      <point x="699.25" y="614.775"/>
      <point x="578.0" y="752.0"/>
      <point x="382.3" y="752.0" type="curve"/>
      <point x="186.325" y="752.0"/>
      <point x="65.075" y="614.775"/>
    </contour>
    <contour>
      <point x="165.325" y="367.0" type="curve"/>
      <point x="165.325" y="367.0" type="line"/>
      <point x="165.325" y="575.5"/>
      <point x="237.3" y="679.2"/>
      <point x="382.3" y="679.2" type="curve"/>
      <point x="527.025" y="679.2"/>
      <point x="599.0" y="575.5"/>
      <point x="599.0" y="368.45" type="curve"/>
      <point x="599.0" y="158.875"/>
      <point x="525.4" y="63.35"/>
      <point x="382.3" y="63.35" type="curve"/>
      <point x="238.925" y="63.35"/>
      <point x="165.325" y="158.875"/>
    </contour>
  </outline>
</glyph>
<glyph name="R" format="2">
  <advance width="695.5"/>
  <unicode hex="0052"/>
  <anchor x="340.6" y="742.0" name="top"/>
  <anchor x="348.425" y="0.0" name="bottom"/>
  <outline>
    <contour>
      <point x="627.05" y="18.95" type="curve"/>
      <point x="627.05" y="18.95" type="line"/>
      <point x="486.55" y="346.075" type="line"/>
      <point x="485.0" y="350.45"/>
      <point x="485.725" y="354.825"/>
      <point x="490.55" y="356.375" type="curve"/>
      <point x="561.475" y="377.4"/>
      <point x="636.775" y="435.275"/>
      <point x="636.775" y="550.3" type="curve"/>
      <point x="636.775" y="675.6"/>
      <point x="545.075" y="742.0"/>
      <point x="387.6" y="742.0" type="curve"/>
      <point x="108.7" y="742.0" type="line" smooth="yes"/>
      <point x="100.325" y="742.0"/>
      <point x="96.95" y="738.35"/>
      <point x="96.95" y="728.425" type="curve"/>
      <point x="96.95" y="13.4" type="line" smooth="yes"/>
      <point x="96.95" y="4.375"/>
      <point x="100.05" y="0.0"/>
      <point x="111.35" y="0.0" type="curve"/>
      <point x="176.4" y="0.0" type="line" smooth="yes"/>
      <point x="188.525" y="0.0"/>
      <point x="192.725" y="4.375"/>
      <point x="192.725" y="15.95" type="curve"/>
      <point x="192.725" y="327.5" type="line" smooth="yes"/>
      <point x="192.725" y="333.4"/>
      <point x="195.725" y="338.5"/>
      <point x="204.725" y="338.5" type="curve"/>
      <point x="373.975" y="338.5" type="line" smooth="yes"/>
      <point x="388.625" y="338.5"/>
      <point x="394.45" y="334.95"/>
      <point x="397.725" y="326.85" type="curve"/>
      <point x="526.525" y="12.3" type="line" smooth="yes"/>
      <point x="529.8" y="4.1"/>
      <point x="533.725" y="0.0"/>
      <point x="542.65" y="0.0" type="curve"/>
      <point x="616.3" y="0.0" type="line" smooth="yes"/>
      <point x="625.775" y="0.0"/>
      <point x="631.15" y="9.2"/>
    </contour>
    <contour>
      <point x="359.75" y="408.475" type="curve"/>
      <point x="359.75" y="408.475" type="line"/>
      <point x="202.475" y="408.475" type="line" smooth="yes"/>
      <point x="195.275" y="408.475"/>
      <point x="192.725" y="412.3"/>
      <point x="192.725" y="420.775" type="curve"/>
      <point x="192.725" y="661.0" type="line" smooth="yes"/>
      <point x="192.725" y="669.475"/>
      <point x="196.55" y="672.3"/>
      <point x="207.025" y="672.3" type="curve"/>
      <point x="382.75" y="672.3" type="line" smooth="yes"/>
      <point x="482.85" y="672.3"/>
      <point x="537.35" y="629.35"/>
      <point x="537.35" y="541.375" type="curve"/>
      <point x="537.35" y="448.35"/>
      <point x="477.45" y="408.475"/>
    </contour>
  </outline>
</glyph>
<glyph name="S" format="2">
  <advance width="640.825"/>
  <unicode hex="0053"/>
  <anchor x="328.9" y="742.0" name="top"/>
  <anchor x="331.8" y="0.0" name="bottom"/>
  <outline>
    <contour>
      <point x="498.35" y="603.9" type="curve"/>
      <point x="498.35" y="603.9" type="line"/>
      <point x="506.55" y="594.975"/>
      <point x="509.65" y="593.25"/>
      <point x="516.025" y="598.075" type="curve"/>
      <point x="561.95" y="634.3" type="line" smooth="yes"/>
      <point x="569.875" y="640.675"/>
      <point x="566.5" y="647.325"/>
      <point x="561.95" y="652.7" type="curve"/>
      <point x="507.975" y="714.075"/>
      <point x="428.325" y="752.0"/>
      <point x="328.175" y="752.0" type="curve"/>
      <point x="176.875" y="752.0"/>
      <point x="75.275" y="671.1"/>
      <point x="75.275" y="544.725" type="curve"/>
      <point x="75.275" y="469.45"/>
      <point x="117.925" y="394.05"/>
      <point x="229.225" y="356.075" type="curve"/>
      <point x="380.5" y="303.85" type="line" smooth="yes"/>
      <point x="471.35" y="270.65"/>
      <point x="493.525" y="235.425"/>
      <point x="493.525" y="186.05" type="curve"/>
      <point x="493.525" y="98.3"/>
      <point x="423.05" y="62.800000000000004"/>
      <point x="316.7" y="62.800000000000004" type="curve"/>
      <point x="217.4" y="62.800000000000004"/>
      <point x="171.875" y="95.95"/>
      <point x="119.175" y="163.825" type="curve"/>
      <point x="113.35" y="170.925"/>
      <point x="106.425" y="172.75"/>
      <point x="94.225" y="164.375" type="curve"/>
      <point x="57.925" y="139.05" type="line" smooth="yes"/>
      <point x="46.825" y="130.95"/>
      <point x="46.1" y="124.4"/>
      <point x="51.925" y="115.475" type="curve"/>
      <point x="107.625" y="32.85"/>
      <point x="200.75" y="-10.0"/>
      <point x="321.375" y="-10.0" type="curve"/>
      <point x="485.025" y="-10.0"/>
      <point x="586.275" y="67.15"/>
      <point x="586.275" y="196.3" type="curve"/>
      <point x="586.275" y="285.525"/>
      <point x="539.15" y="352.125"/>
      <point x="419.225" y="391.825" type="curve"/>
      <point x="273.525" y="439.9" type="line" smooth="yes"/>
      <point x="182.2" y="471.475"/>
      <point x="167.475" y="520.75"/>
      <point x="167.475" y="553.975" type="curve"/>
      <point x="167.475" y="632.625"/>
      <point x="228.55" y="678.925"/>
      <point x="328.2" y="678.925" type="curve"/>
      <point x="410.55" y="678.925"/>
      <point x="462.75" y="645.125"/>
    </contour>
  </outline>
</glyph>
<glyph name="T" format="2">
  <advance width="645.275"/>
  <unicode hex="0054"/>
  <anchor x="330.975" y="742.0" name="top"/>
  <anchor x="330.975" y="0.0" name="bottom"/>
  <outline>
    <contour>
      <point x="41.775" y="730.6" type="curve"/>
      <point x="41.775" y="679.025" type="line"/>
      <point x="41.775" y="670.825"/>
      <point x="45.7" y="668.725"/>
      <point x="53.9" y="668.725" type="curve"/>
      <point x="271.95" y="668.725" type="line" smooth="yes"/>
      <point x="279.95" y="668.725"/>
      <point x="282.225" y="666.9"/>
      <point x="282.225" y="658.35" type="curve"/>
      <point x="282.225" y="12.75" type="line" smooth="yes"/>
      <point x="282.225" y="3.375"/>
      <point x="285.6" y="0.0"/>
      <point x="294.425" y="0.0" type="curve"/>
      <point x="366.25" y="0.0" type="line" smooth="yes"/>
      <point x="374.35" y="0.0"/>
      <point x="378.0" y="3.375"/>
      <point x="378.0" y="13.3" type="curve"/>
      <point x="378.0" y="659.45" type="line" smooth="yes"/>
      <point x="378.0" y="667.175"/>
      <point x="380.55" y="668.725"/>
      <point x="388.55" y="668.725" type="curve"/>
      <point x="591.65" y="668.725" type="line" smooth="yes"/>
      <point x="599.575" y="668.725"/>
      <point x="603.5" y="670.825"/>
      <point x="603.5" y="679.025" type="curve"/>
      <point x="603.5" y="730.6" type="line" smooth="yes"/>
      <point x="603.5" y="737.8"/>
      <point x="599.85" y="742.0"/>
      <point x="591.55" y="742.0" type="curve"/>
      <point x="53.725" y="742.0" type="line" smooth="yes"/>
      <point x="45.425" y="742.0"/>
      <point x="41.775" y="737.8"/>
    </contour>
  </outline>
</glyph>
<glyph name="U" format="2">
  <advance width="709.15"/>
  <unicode hex="0055"/>
  <anchor x="437.575" y="9.275" name="ogonek"/>
  <anchor x="362.15" y="742.0" name="top"/>
  <anchor x="652.9" y="742.0" name="topright"/>
  <anchor x="354.575" y="0.0" name="bottom"/>
  <outline>
    <contour>
      <point x="621.65" y="247.325" type="curve"/>
      <point x="621.65" y="247.325" type="line"/>
      <point x="621.65" y="729.7" type="line" smooth="yes"/>
      <point x="621.65" y="737.625"/>
      <point x="618.55" y="742.0"/>
      <point x="610.9" y="742.0" type="curve"/>
      <point x="552.25" y="742.0" type="line" smooth="yes"/>
      <point x="544.6" y="742.0"/>
      <point x="541.225" y="737.625"/>
      <point x="541.225" y="729.15" type="curve"/>
      <point x="541.225" y="246.325" type="line" smooth="yes"/>
      <point x="541.225" y="120.1"/>
      <point x="477.8" y="64.17500000000001"/>
      <point x="360.7" y="64.17500000000001" type="curve"/>
      <point x="243.4" y="64.17500000000001"/>
      <point x="183.275" y="121.025"/>
      <point x="183.275" y="243.325" type="curve"/>
      <point x="183.275" y="728.975" type="line" smooth="yes"/>
      <point x="183.275" y="738.35"/>
      <point x="180.175" y="742.0"/>
      <point x="171.075" y="742.0" type="curve"/>
      <point x="98.525" y="742.0" type="line" smooth="yes"/>
      <point x="91.15" y="742.0"/>
      <point x="87.5" y="737.625"/>
      <point x="87.5" y="727.7" type="curve"/>
      <point x="87.5" y="263.7" type="line" smooth="yes"/>
      <point x="87.5" y="80.075"/>
      <point x="167.05" y="-10.0"/>
      <point x="354.575" y="-10.0" type="curve"/>
      <point x="527.45" y="-10.0"/>
      <point x="621.65" y="67.075"/>
    </contour>
  </outline>
</glyph>
<glyph name="V" format="2">
  <advance width="706.775"/>
  <unicode hex="0056"/>
  <outline>
    <contour>
      <point x="651.175" y="742.0" type="curve"/>
      <point x="651.175" y="742.0" type="line"/>
      <point x="592.075" y="742.0" type="line" smooth="yes"/>
      <point x="584.425" y="742.0"/>
      <point x="579.225" y="738.35"/>
      <point x="576.95" y="731.15" type="curve"/>
      <point x="365.675" y="124.95" type="line" smooth="yes"/>
      <point x="361.225" y="112.05000000000001"/>
      <point x="355.775" y="112.05000000000001"/>
      <point x="351.325" y="123.95" type="curve"/>
      <point x="142.65" y="730.425" type="line" smooth="yes"/>
      <point x="140.1" y="738.35"/>
      <point x="135.45" y="742.0"/>
      <point x="126.35" y="742.0" type="curve"/>
      <point x="56.6" y="742.0" type="line" smooth="yes"/>
      <point x="47.125" y="742.0"/>
      <point x="42.475" y="735.25"/>
      <point x="45.575" y="726.775" type="curve"/>
      <point x="294.25" y="14.125" type="line" smooth="yes"/>
      <point x="297.075" y="4.375"/>
      <point x="304.725" y="0.0"/>
      <point x="318.2" y="0.0" type="curve"/>
      <point x="385.95" y="0.0" type="line" smooth="yes"/>
      <point x="397.975" y="0.0"/>
      <point x="404.175" y="4.375"/>
      <point x="407.725" y="14.850000000000001" type="curve"/>
      <point x="661.475" y="727.5" type="line" smooth="yes"/>
      <point x="664.3" y="735.25"/>
      <point x="659.925" y="742.0"/>
    </contour>
  </outline>
</glyph>
<glyph name="W" format="2">
  <advance width="1045.2"/>
  <unicode hex="0057"/>
  <anchor x="524.825" y="742.0" name="top"/>
  <outline>
    <contour>
      <point x="985.3" y="742.0" type="curve"/>
      <point x="985.3" y="742.0" type="line"/>
      <point x="935.275" y="742.0" type="line" smooth="yes"/>
      <point x="925.15" y="742.0"/>
      <point x="919.325" y="738.35"/>
      <point x="917.775" y="731.15" type="curve"/>
      <point x="752.7" y="145.425" type="line" smooth="yes"/>
      <point x="749.25" y="133.075"/>
      <point x="744.425" y="133.625"/>
      <point x="740.975" y="145.25" type="curve"/>
      <point x="576.6" y="730.425" type="line" smooth="yes"/>
      <point x="574.05" y="738.35"/>
      <point x="570.675" y="742.0"/>
      <point x="559.1" y="742.0" type="curve"/>
      <point x="502.475" y="742.0" type="line" smooth="yes"/>
      <point x="490.175" y="742.0"/>
      <point x="485.8" y="736.9"/>
      <point x="484.25" y="731.15" type="curve"/>
      <point x="318.35" y="147.35000000000002" type="line" smooth="yes"/>
      <point x="314.625" y="134.175"/>
      <point x="310.35" y="134.175"/>
      <point x="306.35" y="147.72500000000002" type="curve"/>
      <point x="143.075" y="730.425" type="line" smooth="yes"/>
      <point x="140.525" y="738.35"/>
      <point x="137.15" y="742.0"/>
      <point x="125.575" y="742.0" type="curve"/>
      <point x="62.075" y="742.0" type="line" smooth="yes"/>
      <point x="49.85" y="742.0"/>
      <point x="44.925" y="734.425"/>
      <point x="48.025" y="723.75" type="curve"/>
      <point x="250.575" y="14.125" type="line" smooth="yes"/>
      <point x="253.675" y="4.375"/>
      <point x="260.775" y="0.0"/>
      <point x="273.525" y="0.0" type="curve"/>
      <point x="336.05" y="0.0" type="line" smooth="yes"/>
      <point x="349.075" y="0.0"/>
      <point x="354.725" y="4.375"/>
      <point x="357.55" y="14.850000000000001" type="curve"/>
      <point x="520.0" y="580.175" type="line" smooth="yes"/>
      <point x="522.65" y="588.575"/>
      <point x="525.475" y="588.025"/>
      <point x="527.3" y="580.725" type="curve"/>
      <point x="687.125" y="14.125" type="line" smooth="yes"/>
      <point x="689.95" y="4.375"/>
      <point x="697.325" y="0.0"/>
      <point x="710.075" y="0.0" type="curve"/>
      <point x="771.225" y="0.0" type="line" smooth="yes"/>
      <point x="783.975" y="0.0"/>
      <point x="789.625" y="4.375"/>
      <point x="792.725" y="14.850000000000001" type="curve"/>
      <point x="998.625" y="724.475" type="line" smooth="yes"/>
      <point x="1001.0" y="734.425"/>
      <point x="996.8" y="742.0"/>
    </contour>
  </outline>
</glyph>
<glyph name="X" format="2">
  <advance width="687.85"/>
  <unicode hex="0058"/>
  <outline>
    <contour>
      <point x="637.8" y="21.275" type="curve"/>
      <point x="637.8" y="21.275" type="line"/>
      <point x="400.775" y="376.475" type="line" smooth="yes"/>
      <point x="395.125" y="384.95"/>
      <point x="395.575" y="389.775"/>
      <point x="400.95" y="397.975" type="curve"/>
      <point x="622.575" y="728.575" type="line" smooth="yes"/>
      <point x="626.775" y="734.875"/>
      <point x="627.05" y="742.0"/>
      <point x="617.55" y="742.0" type="curve"/>
      <point x="545.2" y="742.0" type="line" smooth="yes"/>
      <point x="536.25" y="742.0"/>
      <point x="532.325" y="739.35"/>
      <point x="528.675" y="733.325" type="curve"/>
      <point x="353.575" y="466.475" type="line" smooth="yes"/>
      <point x="346.85" y="456.2"/>
      <point x="341.2" y="456.925"/>
      <point x="335.2" y="465.75" type="curve"/>
      <point x="160.1" y="733.325" type="line" smooth="yes"/>
      <point x="156.45" y="739.35"/>
      <point x="152.975" y="742.0"/>
      <point x="142.575" y="742.0" type="curve"/>
      <point x="62.325" y="742.0" type="line" smooth="yes"/>
      <point x="53.1" y="742.0"/>
      <point x="51.55" y="732.875"/>
      <point x="55.75" y="726.575" type="curve"/>
      <point x="279.5" y="391.275" type="line" smooth="yes"/>
      <point x="285.6" y="381.35"/>
      <point x="286.6" y="375.35"/>
      <point x="280.225" y="366.15" type="curve"/>
      <point x="50.6" y="21.275" type="line" smooth="yes"/>
      <point x="39.825" y="4.475"/>
      <point x="44.3" y="0.0"/>
      <point x="56.35" y="0.0" type="curve"/>
      <point x="121.5" y="0.0" type="line" smooth="yes"/>
      <point x="129.175" y="0.0"/>
      <point x="135.475" y="2.1"/>
      <point x="139.125" y="8.4" type="curve"/>
      <point x="326.15" y="292.375" type="line" smooth="yes"/>
      <point x="336.425" y="308.475"/>
      <point x="340.975" y="307.475"/>
      <point x="349.075" y="294.275" type="curve"/>
      <point x="538.825" y="8.4" type="line" smooth="yes"/>
      <point x="542.475" y="2.375"/>
      <point x="547.05" y="0.0"/>
      <point x="555.45" y="0.0" type="curve"/>
      <point x="631.05" y="0.0" type="line" smooth="yes"/>
      <point x="643.1" y="0.0"/>
      <point x="649.025" y="4.75"/>
    </contour>
  </outline>
</glyph>
<glyph name="Y" format="2">
  <advance width="675.4"/>
  <unicode hex="0059"/>
  <anchor x="338.475" y="742.0" name="top"/>
  <anchor x="337.7" y="0.0" name="bottom"/>
  <anchor x="20.0" y="742.0" name="topleft"/>
  <outline>
    <contour>
      <point x="623.525" y="742.0" type="curve"/>
      <point x="623.525" y="742.0" type="line"/>
      <point x="561.5" y="742.0" type="line" smooth="yes"/>
      <point x="549.75" y="742.0"/>
      <point x="546.375" y="740.175"/>
      <point x="540.55" y="729.7" type="curve"/>
      <point x="355.75" y="408.1" type="line" smooth="yes"/>
      <point x="348.025" y="395.375"/>
      <point x="341.85" y="394.925"/>
      <point x="333.675" y="409.825" type="curve"/>
      <point x="147.6" y="729.7" type="line" smooth="yes"/>
      <point x="142.225" y="739.175"/>
      <point x="138.675" y="742.0"/>
      <point x="126.65" y="742.0" type="curve"/>
      <point x="54.7" y="742.0" type="line" smooth="yes"/>
      <point x="41.675" y="742.0"/>
      <point x="38.3" y="735.075"/>
      <point x="43.95" y="725.6" type="curve"/>
      <point x="285.2" y="319.675" type="line" smooth="yes"/>
      <point x="290.575" y="310.475"/>
      <point x="292.675" y="306.1"/>
      <point x="292.675" y="293.075" type="curve"/>
      <point x="292.675" y="14.850000000000001" type="line" smooth="yes"/>
      <point x="292.675" y="5.1"/>
      <point x="296.5" y="0.0"/>
      <point x="308.525" y="0.0" type="curve"/>
      <point x="368.5" y="0.0" type="line" smooth="yes"/>
      <point x="382.8" y="0.0"/>
      <point x="388.45" y="5.1"/>
      <point x="388.45" y="17.4" type="curve"/>
      <point x="388.45" y="297.475" type="line" smooth="yes"/>
      <point x="388.45" y="316.275"/>
      <point x="388.725" y="321.925"/>
      <point x="394.1" y="330.125" type="curve"/>
      <point x="631.725" y="727.7" type="line" smooth="yes"/>
      <point x="636.825" y="735.625"/>
      <point x="633.275" y="742.0"/>
    </contour>
  </outline>
</glyph>
<glyph name="Z" format="2">
  <advance width="631.35"/>
  <unicode hex="005A"/>
  <anchor x="323.15" y="742.0" name="top"/>
  <anchor x="321.625" y="0.0" name="bottom"/>
  <outline>
    <contour>
      <point x="59.975" y="0.0" type="curve"/>
      <point x="59.975" y="0.0" type="line"/>
      <point x="568.9" y="0.0" type="line" smooth="yes"/>
      <point x="577.2" y="0.0"/>
      <point x="580.575" y="4.925000000000001"/>
      <point x="580.575" y="11.125" type="curve"/>
      <point x="580.575" y="65.80000000000001" type="line" smooth="yes"/>
      <point x="580.575" y="72.55000000000001"/>
      <point x="576.925" y="74.65"/>
      <point x="570.175" y="74.65" type="curve"/>
      <point x="183.275" y="74.65" type="line" smooth="yes"/>
      <point x="177.9" y="74.65"/>
      <point x="174.425" y="77.65"/>
      <point x="178.525" y="84.30000000000001" type="curve"/>
      <point x="573.925" y="685.825" type="line" smooth="yes"/>
      <point x="579.675" y="694.4"/>
      <point x="582.225" y="698.05"/>
      <point x="582.225" y="705.8" type="curve"/>
      <point x="582.225" y="732.15" type="line" smooth="yes"/>
      <point x="582.225" y="738.35"/>
      <point x="578.85" y="742.0"/>
      <point x="572.65" y="742.0" type="curve"/>
      <point x="72.65" y="742.0" type="line" smooth="yes"/>
      <point x="66.725" y="742.0"/>
      <point x="63.35" y="738.35"/>
      <point x="63.35" y="731.875" type="curve"/>
      <point x="63.35" y="679.3" type="line" smooth="yes"/>
      <point x="63.35" y="670.725"/>
      <point x="66.175" y="667.625"/>
      <point x="74.475" y="667.625" type="curve"/>
      <point x="441.7" y="667.625" type="line" smooth="yes"/>
      <point x="449.175" y="667.625"/>
      <point x="451.175" y="664.8"/>
      <point x="447.075" y="658.15" type="curve"/>
      <point x="57.875" y="61.55" type="line" smooth="yes"/>
      <point x="49.025" y="49.05"/>
      <point x="47.025" y="45.325"/>
      <point x="47.025" y="35.2" type="curve"/>
      <point x="47.025" y="11.95" type="line" smooth="yes"/>
      <point x="47.025" y="2.825"/>
      <point x="50.125" y="0.0"/>
    </contour>
  </outline>
</glyph>
<glyph name="bracketleft" format="2">
  <advance width="286.7"/>
  <unicode hex="005B"/>
  <outline>
    <contour>
      <point x="89.5" y="731.6" type="curve"/>
      <point x="89.5" y="731.6" type="line"/>
      <point x="90.225" y="-152.05" type="line" smooth="yes"/>
      <point x="90.225" y="-160.075"/>
      <point x="95.425" y="-165.0"/>
      <point x="104.725" y="-165.0" type="curve"/>
      <point x="260.225" y="-165.0" type="line" smooth="yes"/>
      <point x="268.15" y="-165.0"/>
      <point x="270.975" y="-162.175"/>
      <point x="270.975" y="-154.25" type="curve"/>
      <point x="270.975" y="-118.95" type="line" smooth="yes"/>
      <point x="270.975" y="-112.3"/>
      <point x="267.15" y="-108.75"/>
      <point x="260.225" y="-108.75" type="curve"/>
      <point x="174.525" y="-108.75" type="line" smooth="yes"/>
      <point x="166.5" y="-108.75"/>
      <point x="164.4" y="-107.2"/>
      <point x="164.4" y="-98.625" type="curve"/>
      <point x="165.125" y="672.525" type="line" smooth="yes"/>
      <point x="165.125" y="681.375"/>
      <point x="168.775" y="685.75"/>
      <point x="177.075" y="685.75" type="curve"/>
      <point x="262.5" y="685.75" type="line" smooth="yes"/>
      <point x="267.875" y="685.75"/>
      <point x="271.7" y="688.575"/>
      <point x="271.7" y="693.95" type="curve"/>
      <point x="271.7" y="734.8" type="line" smooth="yes"/>
      <point x="271.7" y="740.175"/>
      <point x="269.15" y="742.0"/>
      <point x="262.5" y="742.0" type="curve"/>
      <point x="102.45" y="742.0" type="line" smooth="yes"/>
      <point x="92.875" y="742.0"/>
      <point x="89.5" y="738.625"/>
    </contour>
  </outline>
</glyph>
<glyph name="backslash" format="2">
  <advance width="342.3"/>
  <unicode hex="005C"/>
  <outline>
    <contour>
      <point x="276.825" y="-43.5" type="curve"/>
      <point x="276.825" y="-43.5" type="line"/>
      <point x="320.675" y="-43.5" type="line" smooth="yes"/>
      <point x="328.425" y="-43.5"/>
      <point x="330.525" y="-40.125"/>
      <point x="328.7" y="-34.65" type="curve"/>
      <point x="78.25" y="732.7" type="line" smooth="yes"/>
      <point x="76.425" y="738.625"/>
      <point x="71.5" y="742.0"/>
      <point x="65.3" y="742.0" type="curve"/>
      <point x="21.45" y="742.0" type="line" smooth="yes"/>
      <point x="11.6" y="742.0"/>
      <point x="9.5" y="737.075"/>
      <point x="13.149999999999999" y="725.675" type="curve"/>
      <point x="259.225" y="-30.549999999999997" type="line" smooth="yes"/>
      <point x="262.6" y="-40.4"/>
      <point x="268.525" y="-43.5"/>
    </contour>
  </outline>
</glyph>
<glyph name="asciicircum" format="2">
  <advance width="475.725"/>
  <unicode hex="005E"/>
  <outline>
    <contour>
      <point x="243.65" y="422.675" type="curve"/>
      <point x="355.0" y="140.6" type="line"/>
      <point x="357.275" y="134.5"/>
      <point x="364.2" y="132.325"/>
      <point x="371.85" y="132.325" type="curve"/>
      <point x="415.325" y="132.325" type="line" smooth="yes"/>
      <point x="423.525" y="132.325"/>
      <point x="426.9" y="136.15"/>
      <point x="423.8" y="144.625" type="curve"/>
      <point x="276.5" y="504.275" type="line" smooth="yes"/>
      <point x="256.225" y="553.725"/>
      <point x="215.775" y="550.0"/>
      <point x="197.225" y="504.0" type="curve"/>
      <point x="51.375" y="147.625" type="line" smooth="yes"/>
      <point x="47.55" y="139.15"/>
      <point x="51.1" y="133.775"/>
      <point x="58.025" y="133.775" type="curve"/>
      <point x="103.325" y="133.775" type="line" smooth="yes"/>
      <point x="110.525" y="133.775"/>
      <point x="115.175" y="135.225"/>
      <point x="117.725" y="141.325" type="curve"/>
      <point x="229.8" y="422.675" type="line" smooth="yes"/>
      <point x="232.9" y="430.875"/>
      <point x="239.825" y="430.875"/>
    </contour>
  </outline>
</glyph>
<glyph name="underscore" format="2">
  <advance width="517.775"/>
  <unicode hex="005F"/>
  <outline>
    <contour>
      <point x="456.025" y="-103.725" type="curve"/>
      <point x="456.025" y="-59.575" type="line"/>
      <point x="456.025" y="-53.375"/>
      <point x="451.925" y="-49.725"/>
      <point x="446.0" y="-49.725" type="curve"/>
      <point x="70.6" y="-50.45" type="line" smooth="yes"/>
      <point x="65.125" y="-50.45"/>
      <point x="61.75" y="-54.1"/>
      <point x="61.75" y="-61.85" type="curve"/>
      <point x="61.75" y="-106.0" type="line" smooth="yes"/>
      <point x="61.75" y="-114.3"/>
      <point x="64.85" y="-117.95"/>
      <point x="74.7" y="-117.95" type="curve"/>
      <point x="439.7" y="-117.225" type="line" smooth="yes"/>
      <point x="451.1" y="-117.225"/>
      <point x="456.025" y="-113.575"/>
    </contour>
  </outline>
</glyph>
<glyph name="a" format="2">
  <advance width="547.625"/>
  <unicode hex="0061"/>
  <anchor x="464.2" y="12.9" name="ogonek"/>
  <anchor x="271.2" y="0.0" name="bottom"/>
  <anchor x="271.775" y="530.0" name="top"/>
  <outline>
    <contour>
      <point x="381.875" y="63.75" type="curve"/>
      <point x="381.875" y="63.75" type="line"/>
      <point x="390.175" y="71.95"/>
      <point x="395.275" y="70.95"/>
      <point x="396.55" y="62.3" type="curve"/>
      <point x="398.275" y="16.15" type="line" smooth="yes"/>
      <point x="399.1" y="5.8500000000000005"/>
      <point x="402.65" y="0.0"/>
      <point x="411.95" y="0.0" type="curve"/>
      <point x="462.675" y="0.0" type="line" smooth="yes"/>
      <point x="472.25" y="0.0"/>
      <point x="476.25" y="3.375"/>
      <point x="476.25" y="14.675" type="curve"/>
      <point x="476.25" y="369.2" type="line" smooth="yes"/>
      <point x="476.25" y="474.45"/>
      <point x="407.475" y="540.0"/>
      <point x="274.675" y="540.0" type="curve"/>
      <point x="169.775" y="540.0"/>
      <point x="96.175" y="496.575"/>
      <point x="57.475" y="428.25" type="curve"/>
      <point x="52.1" y="417.75"/>
      <point x="54.475" y="414.2"/>
      <point x="59.4" y="412.2" type="curve"/>
      <point x="112.825" y="394.175" type="line" smooth="yes"/>
      <point x="120.675" y="391.175"/>
      <point x="123.225" y="393.45"/>
      <point x="127.5" y="400.1" type="curve"/>
      <point x="164.8" y="453.775"/>
      <point x="213.025" y="479.725"/>
      <point x="270.75" y="479.725" type="curve"/>
      <point x="347.0" y="479.725"/>
      <point x="395.0" y="434.8"/>
      <point x="395.0" y="363.0" type="curve"/>
      <point x="395.0" y="335.85" type="line" smooth="yes"/>
      <point x="395.0" y="326.025"/>
      <point x="387.9" y="321.85"/>
      <point x="378.55" y="321.125" type="curve"/>
      <point x="300.5" y="314.6" type="line" smooth="yes"/>
      <point x="129.625" y="304.45"/>
      <point x="37.0" y="240.675"/>
      <point x="37.0" y="135.275" type="curve"/>
      <point x="37.0" y="47.2"/>
      <point x="100.625" y="-10.0"/>
      <point x="204.25" y="-10.0" type="curve"/>
      <point x="274.95" y="-10.0"/>
      <point x="332.1" y="15.625"/>
    </contour>
    <contour>
      <point x="395.0" y="254.45" type="curve"/>
      <point x="395.0" y="254.45" type="line"/>
      <point x="395.0" y="171.0" type="line" smooth="yes"/>
      <point x="395.0" y="145.125"/>
      <point x="377.475" y="117.45"/>
      <point x="347.35" y="92.95" type="curve"/>
      <point x="316.775" y="68.725"/>
      <point x="276.3" y="52.2"/>
      <point x="233.625" y="52.2" type="curve"/>
      <point x="165.0" y="52.2"/>
      <point x="120.80000000000001" y="87.15"/>
      <point x="120.80000000000001" y="144.875" type="curve"/>
      <point x="120.80000000000001" y="216.1"/>
      <point x="192.475" y="255.775"/>
      <point x="315.1" y="264.475" type="curve"/>
      <point x="380.725" y="269.55" type="line" smooth="yes"/>
      <point x="390.55" y="270.275"/>
      <point x="395.0" y="265.725"/>
    </contour>
  </outline>
</glyph>
<glyph name="b" format="2">
  <advance width="598.6"/>
  <unicode hex="0062"/>
  <outline>
    <contour>
      <point x="92.65" y="0.0" type="curve"/>
      <point x="124.55" y="0.0" type="line"/>
      <point x="136.825" y="0.0"/>
      <point x="141.2" y="4.1"/>
      <point x="142.575" y="15.75" type="curve"/>
      <point x="148.425" y="65.65" type="line" smooth="yes"/>
      <point x="149.25" y="74.375"/>
      <point x="153.975" y="75.375"/>
      <point x="159.25" y="68.65" type="curve"/>
      <point x="178.675" y="42.3"/>
      <point x="229.775" y="-10.0"/>
      <point x="321.775" y="-10.0" type="curve"/>
      <point x="466.325" y="-10.0"/>
      <point x="549.5" y="96.825"/>
      <point x="549.5" y="267.55" type="curve"/>
      <point x="549.5" y="421.5"/>
      <point x="482.2" y="540.0"/>
      <point x="335.525" y="540.0" type="curve"/>
      <point x="246.3" y="540.0"/>
      <point x="194.425" y="494.375"/>
      <point x="175.9" y="477.125" type="curve"/>
      <point x="166.625" y="469.125"/>
      <point x="161.25" y="469.125"/>
      <point x="161.25" y="482.95" type="curve"/>
      <point x="161.25" y="728.25" type="line" smooth="yes"/>
      <point x="161.25" y="737.625"/>
      <point x="158.15" y="742.0"/>
      <point x="150.5" y="742.0" type="curve"/>
      <point x="89.0" y="742.0" type="line" smooth="yes"/>
      <point x="81.625" y="742.0"/>
      <point x="77.25" y="737.625"/>
      <point x="77.25" y="728.425" type="curve"/>
      <point x="77.25" y="16.3" type="line" smooth="yes"/>
      <point x="77.25" y="4.375"/>
      <point x="81.075" y="0.0"/>
    </contour>
    <contour>
      <point x="161.25" y="179.2" type="curve"/>
      <point x="161.25" y="404.825" type="line"/>
      <point x="195.75" y="446.5"/>
      <point x="248.475" y="478.9"/>
      <point x="310.65" y="478.9" type="curve"/>
      <point x="409.675" y="478.9"/>
      <point x="462.775" y="401.3"/>
      <point x="462.775" y="266.45" type="curve"/>
      <point x="462.775" y="115.375"/>
      <point x="393.725" y="49.725"/>
      <point x="304.025" y="49.725" type="curve"/>
      <point x="231.575" y="49.725"/>
      <point x="161.25" y="106.725"/>
    </contour>
  </outline>
</glyph>
<glyph name="c" format="2">
  <advance width="542.225"/>
  <unicode hex="0063"/>
  <anchor x="295.825" y="530.0" name="top"/>
  <anchor x="297.0" y="0.0" name="bottom"/>
  <outline>
    <contour>
      <point x="296.55" y="540.0" type="curve"/>
      <point x="296.55" y="540.0" type="line"/>
      <point x="150.875" y="540.0"/>
      <point x="46.375" y="425.825"/>
      <point x="46.375" y="263.0" type="curve"/>
      <point x="46.375" y="100.275"/>
      <point x="148.875" y="-10.0"/>
      <point x="296.55" y="-10.0" type="curve"/>
      <point x="402.725" y="-10.0"/>
      <point x="473.075" y="49.900000000000006"/>
      <point x="510.625" y="120.75" type="curve"/>
      <point x="513.175" y="127.775"/>
      <point x="511.9" y="132.325"/>
      <point x="506.7" y="134.325" type="curve"/>
      <point x="464.175" y="150.15" type="line" smooth="yes"/>
      <point x="457.7" y="152.875"/>
      <point x="455.15" y="151.6"/>
      <point x="451.425" y="145.875" type="curve"/>
      <point x="412.65" y="84.2"/>
      <point x="368.275" y="51.650000000000006"/>
      <point x="303.85" y="51.650000000000006" type="curve"/>
      <point x="199.725" y="51.650000000000006"/>
      <point x="132.375" y="131.525"/>
      <point x="132.375" y="265.0" type="curve"/>
      <point x="132.375" y="397.375"/>
      <point x="198.9" y="477.8"/>
      <point x="301.55" y="477.8" type="curve"/>
      <point x="355.35" y="477.8"/>
      <point x="390.45" y="449.95"/>
      <point x="431.425" y="394.5" type="curve"/>
      <point x="434.875" y="387.85"/>
      <point x="438.875" y="386.025"/>
      <point x="444.075" y="387.75" type="curve"/>
      <point x="499.15" y="401.275" type="line" smooth="yes"/>
      <point x="506.0" y="403.0"/>
      <point x="508.375" y="406.65"/>
      <point x="504.1" y="415.675" type="curve"/>
      <point x="466.35" y="484.7"/>
      <point x="400.4" y="540.0"/>
    </contour>
  </outline>
</glyph>
<glyph name="d" format="2">
  <advance width="598.6"/>
  <unicode hex="0064"/>
  <anchor x="312.075" y="265.0" name="center"/>
  <anchor x="303.375" y="0.0" name="bottom"/>
  <anchor x="617.65" y="683.7" name="topright"/>
  <outline>
    <contour>
      <point x="453.75" y="0.0" type="curve"/>
      <point x="453.75" y="0.0" type="line"/>
      <point x="505.225" y="0.0" type="line" smooth="yes"/>
      <point x="517.525" y="0.0"/>
      <point x="521.35" y="4.375"/>
      <point x="521.35" y="15.575" type="curve"/>
      <point x="521.35" y="729.15" type="line" smooth="yes"/>
      <point x="521.35" y="737.625"/>
      <point x="516.975" y="742.0"/>
      <point x="510.325" y="742.0" type="curve"/>
      <point x="449.1" y="742.0" type="line" smooth="yes"/>
      <point x="440.725" y="742.0"/>
      <point x="437.625" y="737.625"/>
      <point x="437.625" y="728.975" type="curve"/>
      <point x="437.625" y="493.825" type="line" smooth="yes"/>
      <point x="437.625" y="480.0"/>
      <point x="433.7" y="477.1"/>
      <point x="422.25" y="486.55" type="curve"/>
      <point x="388.5" y="514.95"/>
      <point x="346.875" y="540.0"/>
      <point x="281.575" y="540.0" type="curve"/>
      <point x="144.75" y="540.0"/>
      <point x="47.65" y="426.65"/>
      <point x="47.65" y="257.2" type="curve"/>
      <point x="47.65" y="79.1"/>
      <point x="144.875" y="-10.0"/>
      <point x="270.125" y="-10.0" type="curve"/>
      <point x="356.775" y="-10.0"/>
      <point x="404.475" y="38.275"/>
      <point x="426.8" y="60.5" type="curve"/>
      <point x="434.525" y="67.95"/>
      <point x="439.625" y="66.95"/>
      <point x="439.625" y="56.5" type="curve"/>
      <point x="439.625" y="14.3" type="line" smooth="yes"/>
      <point x="439.625" y="4.55"/>
      <point x="445.1" y="0.0"/>
    </contour>
    <contour>
      <point x="437.35" y="412.8" type="curve"/>
      <point x="437.35" y="412.8" type="line"/>
      <point x="437.35" y="171.65" type="line" smooth="yes"/>
      <point x="437.35" y="117.425"/>
      <point x="376.625" y="50.55"/>
      <point x="296.3" y="50.55" type="curve"/>
      <point x="208.325" y="50.55"/>
      <point x="133.65" y="113.475"/>
      <point x="133.65" y="260.375" type="curve"/>
      <point x="133.65" y="402.475"/>
      <point x="204.35" y="478.35"/>
      <point x="302.1" y="478.35" type="curve"/>
      <point x="354.85" y="478.35"/>
      <point x="396.05" y="454.475"/>
    </contour>
  </outline>
</glyph>
<glyph name="e" format="2">
  <advance width="580.575"/>
  <unicode hex="0065"/>
  <anchor x="404.0" y="20.2" name="ogonek"/>
  <anchor x="301.1" y="0.0" name="bottom"/>
  <anchor x="298.1" y="530.0" name="top"/>
  <outline>
    <contour>
      <point x="133.475" y="232.3" type="curve"/>
      <point x="133.475" y="232.3" type="line"/>
      <point x="133.475" y="240.675"/>
      <point x="136.3" y="247.125"/>
      <point x="141.95" y="247.125" type="curve"/>
      <point x="525.45" y="247.125" type="line" smooth="yes"/>
      <point x="541.0" y="247.4"/>
      <point x="539.825" y="258.025"/>
      <point x="539.825" y="268.5" type="curve"/>
      <point x="539.825" y="440.075"/>
      <point x="444.4" y="540.0"/>
      <point x="299.0" y="540.0" type="curve"/>
      <point x="156.075" y="540.0"/>
      <point x="46.375" y="433.25"/>
      <point x="46.375" y="259.625" type="curve"/>
      <point x="46.375" y="99.725"/>
      <point x="151.7" y="-10.0"/>
      <point x="300.1" y="-10.0" type="curve"/>
      <point x="399.05" y="-10.0"/>
      <point x="468.5" y="24.25"/>
      <point x="521.65" y="104.95" type="curve"/>
      <point x="526.3" y="110.875"/>
      <point x="524.75" y="116.25"/>
      <point x="519.825" y="118.8" type="curve"/>
      <point x="478.125" y="139.85" type="line" smooth="yes"/>
      <point x="471.65" y="143.4"/>
      <point x="468.65" y="142.4"/>
      <point x="464.375" y="136.675" type="curve"/>
      <point x="426.175" y="81.35"/>
      <point x="374.875" y="53.85"/>
      <point x="307.525" y="53.85" type="curve"/>
      <point x="210.375" y="53.85"/>
      <point x="133.475" y="133.6"/>
    </contour>
    <contour>
      <point x="439.025" y="301.55" type="curve"/>
      <point x="135.025" y="301.825" type="line"/>
      <point x="134.025" y="391.375"/>
      <point x="193.775" y="480.275"/>
      <point x="300.75" y="480.275" type="curve"/>
      <point x="398.6" y="480.275"/>
      <point x="456.025" y="402.45"/>
      <point x="456.025" y="315.55" type="curve"/>
      <point x="456.025" y="304.275"/>
      <point x="452.75" y="301.55"/>
    </contour>
  </outline>
</glyph>
<glyph name="f" format="2">
  <advance width="378.85"/>
  <unicode hex="0066"/>
  <outline>
    <contour>
      <point x="344.55" y="530.0" type="curve"/>
      <point x="344.55" y="530.0" type="line"/>
      <point x="230.075" y="530.0" type="line" smooth="yes"/>
      <point x="224.25" y="530.0"/>
      <point x="221.425" y="532.275"/>
      <point x="221.425" y="538.65" type="curve"/>
      <point x="221.425" y="608.85" type="line" smooth="yes"/>
      <point x="221.425" y="653.525"/>
      <point x="236.9" y="680.875"/>
      <point x="279.475" y="680.875" type="curve"/>
      <point x="349.3" y="680.875" type="line" smooth="yes"/>
      <point x="356.225" y="680.875"/>
      <point x="360.05" y="684.8"/>
      <point x="360.05" y="691.45" type="curve"/>
      <point x="359.775" y="729.775" type="line" smooth="yes"/>
      <point x="359.775" y="737.8"/>
      <point x="355.575" y="742.0"/>
      <point x="347.45" y="742.0" type="curve"/>
      <point x="264.175" y="742.0" type="line" smooth="yes"/>
      <point x="179.5" y="742.0"/>
      <point x="138.8" y="696.7"/>
      <point x="138.8" y="613.325" type="curve"/>
      <point x="138.8" y="540.025" type="line" smooth="yes"/>
      <point x="138.8" y="532.825"/>
      <point x="136.525" y="530.0"/>
      <point x="129.875" y="530.0" type="curve"/>
      <point x="34.75" y="530.0" type="line" smooth="yes"/>
      <point x="27.175" y="530.0"/>
      <point x="23.8" y="525.8"/>
      <point x="23.8" y="519.6" type="curve"/>
      <point x="23.8" y="477.075" type="line" smooth="yes"/>
      <point x="23.8" y="470.325"/>
      <point x="27.45" y="467.5"/>
      <point x="34.2" y="467.5" type="curve"/>
      <point x="132.25" y="467.5" type="line" smooth="yes"/>
      <point x="136.8" y="467.5"/>
      <point x="138.8" y="464.5"/>
      <point x="138.8" y="459.675" type="curve"/>
      <point x="138.8" y="12.75" type="line" smooth="yes"/>
      <point x="138.8" y="4.1"/>
      <point x="142.175" y="0.0"/>
      <point x="149.55" y="0.0" type="curve"/>
      <point x="211.05" y="0.0" type="line" smooth="yes"/>
      <point x="218.7" y="0.0"/>
      <point x="222.8" y="4.1"/>
      <point x="222.8" y="14.025" type="curve"/>
      <point x="222.8" y="459.125" type="line" smooth="yes"/>
      <point x="222.8" y="464.95"/>
      <point x="225.625" y="467.5"/>
      <point x="231.175" y="467.5" type="curve"/>
      <point x="344.65" y="467.5" type="line" smooth="yes"/>
      <point x="351.125" y="467.5"/>
      <point x="355.05" y="470.325"/>
      <point x="355.05" y="477.075" type="curve"/>
      <point x="355.05" y="519.6" type="line" smooth="yes"/>
      <point x="355.05" y="525.8"/>
      <point x="351.4" y="530.0"/>
    </contour>
  </outline>
</glyph>
<glyph name="g" format="2">
  <advance width="601.525"/>
  <unicode hex="0067"/>
  <anchor x="289.325" y="530.0" name="top"/>
  <outline>
    <contour>
      <point x="555.55" y="538.8" type="curve"/>
      <point x="555.55" y="538.8" type="line"/>
      <point x="521.475" y="538.8"/>
      <point x="484.325" y="514.425"/>
      <point x="462.4" y="493.1" type="curve"/>
      <point x="455.4" y="486.725"/>
      <point x="448.65" y="486.45"/>
      <point x="440.825" y="493.0" type="curve"/>
      <point x="407.1" y="521.175"/>
      <point x="359.975" y="538.0"/>
      <point x="291.225" y="538.0" type="curve"/>
      <point x="146.3" y="538.0"/>
      <point x="64.725" y="473.35"/>
      <point x="64.725" y="370.1" type="curve"/>
      <point x="64.725" y="308.375"/>
      <point x="92.575" y="265.725"/>
      <point x="150.6" y="235.55" type="curve"/>
      <point x="158.425" y="231.0"/>
      <point x="157.95" y="225.825"/>
      <point x="150.5" y="223.55" type="curve"/>
      <point x="99.4" y="205.625"/>
      <point x="71.95" y="177.7"/>
      <point x="71.95" y="148.825" type="curve"/>
      <point x="71.95" y="121.6"/>
      <point x="88.45" y="103.125"/>
      <point x="117.65" y="89.75" type="curve"/>
      <point x="124.925" y="86.475"/>
      <point x="125.475" y="82.475"/>
      <point x="117.65" y="78.75" type="curve"/>
      <point x="57.4" y="49.25"/>
      <point x="24.275" y="13.024999999999999"/>
      <point x="24.275" y="-34.15" type="curve"/>
      <point x="24.275" y="-124.675"/>
      <point x="114.675" y="-175.0"/>
      <point x="283.8" y="-175.0" type="curve"/>
      <point x="448.55" y="-175.0"/>
      <point x="540.4" y="-113.5"/>
      <point x="540.4" y="-12.95" type="curve"/>
      <point x="540.4" y="66.875"/>
      <point x="488.175" y="119.075"/>
      <point x="369.9" y="125.9" type="curve"/>
      <point x="241.1" y="133.45" type="line" smooth="yes"/>
      <point x="177.3" y="136.9"/>
      <point x="149.975" y="144.525"/>
      <point x="149.975" y="166.05" type="curve"/>
      <point x="149.975" y="187.85"/>
      <point x="181.325" y="209.0"/>
      <point x="282.85" y="209.0" type="curve"/>
      <point x="431.275" y="209.0"/>
      <point x="499.975" y="281.1"/>
      <point x="499.975" y="370.375" type="curve"/>
      <point x="499.975" y="403.575"/>
      <point x="489.275" y="423.275"/>
      <point x="483.375" y="438.35" type="curve"/>
      <point x="480.1" y="447.275"/>
      <point x="485.1" y="454.1"/>
      <point x="503.375" y="461.35" type="curve"/>
      <point x="518.275" y="467.875"/>
      <point x="532.925" y="469.95"/>
      <point x="555.35" y="469.575" type="curve"/>
      <point x="569.625" y="468.925"/>
      <point x="574.825" y="475.475"/>
      <point x="574.825" y="488.325" type="curve"/>
      <point x="574.825" y="522.5" type="line" smooth="yes"/>
      <point x="574.825" y="533.975"/>
      <point x="569.45" y="538.8"/>
    </contour>
    <contour>
      <point x="283.025" y="261.575" type="curve"/>
      <point x="283.025" y="261.575" type="line"/>
      <point x="193.15" y="261.575"/>
      <point x="142.675" y="302.1"/>
      <point x="142.675" y="370.725" type="curve"/>
      <point x="142.675" y="441.45"/>
      <point x="193.875" y="484.875"/>
      <point x="283.025" y="484.875" type="curve"/>
      <point x="375.275" y="484.875"/>
      <point x="421.2" y="442.175"/>
      <point x="421.2" y="370.725" type="curve"/>
      <point x="421.2" y="301.65"/>
      <point x="376.725" y="261.575"/>
    </contour>
    <contour>
      <point x="194.825" y="64.55" type="curve"/>
      <point x="362.3" y="54.925" type="line"/>
      <point x="435.025" y="50.75"/>
      <point x="462.375" y="21.7"/>
      <point x="462.375" y="-23.4" type="curve"/>
      <point x="462.375" y="-90.825"/>
      <point x="402.975" y="-122.975"/>
      <point x="293.075" y="-122.975" type="curve"/>
      <point x="163.725" y="-122.975"/>
      <point x="99.0" y="-87.2"/>
      <point x="99.0" y="-24.1" type="curve"/>
      <point x="99.0" y="29.525"/>
      <point x="159.8" y="66.55"/>
    </contour>
  </outline>
</glyph>
<glyph name="h" format="2">
  <advance width="583.975"/>
  <unicode hex="0068"/>
  <anchor x="358.0" y="530.0" name="top"/>
  <anchor x="303.825" y="0.0" name="bottom"/>
  <outline>
    <contour>
      <point x="91.2" y="0.0" type="curve"/>
      <point x="91.2" y="0.0" type="line"/>
      <point x="145.925" y="0.0" type="line" smooth="yes"/>
      <point x="156.875" y="0.0"/>
      <point x="161.525" y="4.375"/>
      <point x="161.525" y="14.5" type="curve"/>
      <point x="161.525" y="393.225" type="line"/>
      <point x="224.75" y="446.8"/>
      <point x="265.425" y="473.675"/>
      <point x="325.425" y="473.675" type="curve"/>
      <point x="397.3" y="473.675"/>
      <point x="428.9" y="434.65"/>
      <point x="428.9" y="369.85" type="curve"/>
      <point x="428.9" y="13.4" type="line" smooth="yes"/>
      <point x="428.9" y="3.825"/>
      <point x="432.725" y="0.0"/>
      <point x="441.75" y="0.0" type="curve"/>
      <point x="498.125" y="0.0" type="line" smooth="yes"/>
      <point x="508.25" y="0.0"/>
      <point x="512.9" y="4.925000000000001"/>
      <point x="512.9" y="15.5" type="curve"/>
      <point x="512.9" y="388.05" type="line" smooth="yes"/>
      <point x="512.9" y="480.275"/>
      <point x="457.35" y="540.0"/>
      <point x="352.55" y="540.0" type="curve"/>
      <point x="285.05" y="540.0"/>
      <point x="238.675" y="514.3"/>
      <point x="167.9" y="460.025" type="curve"/>
      <point x="161.35" y="454.475"/>
      <point x="158.525" y="456.025"/>
      <point x="158.525" y="463.3" type="curve"/>
      <point x="158.525" y="730.425" type="line" smooth="yes"/>
      <point x="158.525" y="738.35"/>
      <point x="155.425" y="742.0"/>
      <point x="147.775" y="742.0" type="curve"/>
      <point x="88.55" y="742.0" type="line" smooth="yes"/>
      <point x="80.9" y="742.0"/>
      <point x="77.525" y="737.35"/>
      <point x="77.525" y="729.15" type="curve"/>
      <point x="77.525" y="13.4" type="line" smooth="yes"/>
      <point x="77.525" y="4.1"/>
      <point x="81.625" y="0.0"/>
    </contour>
  </outline>
</glyph>
<glyph name="i" format="2">
  <advance width="238.5"/>
  <unicode hex="0069"/>
  <outline>
    <contour>
      <point x="161.25" y="16.675" type="curve"/>
      <point x="161.25" y="517.25" type="line"/>
      <point x="161.25" y="526.35"/>
      <point x="157.875" y="530.0"/>
      <point x="149.775" y="530.0" type="curve"/>
      <point x="89.0" y="530.0" type="line" smooth="yes"/>
      <point x="80.625" y="530.0"/>
      <point x="77.25" y="526.35"/>
      <point x="77.25" y="516.425" type="curve"/>
      <point x="77.25" y="14.125" type="line" smooth="yes"/>
      <point x="77.25" y="3.6500000000000004"/>
      <point x="80.35" y="0.0"/>
      <point x="92.375" y="0.0" type="curve"/>
      <point x="143.475" y="0.0" type="line" smooth="yes"/>
      <point x="157.05" y="0.0"/>
      <point x="161.25" y="3.6500000000000004"/>
    </contour>
    <contour>
      <point x="164.875" y="644.325" type="curve"/>
      <point x="164.875" y="726.8" type="line"/>
      <point x="164.875" y="736.175"/>
      <point x="159.325" y="742.0"/>
      <point x="151.225" y="742.0" type="curve"/>
      <point x="87.55" y="742.0" type="line" smooth="yes"/>
      <point x="79.175" y="742.0"/>
      <point x="73.625" y="736.175"/>
      <point x="73.625" y="726.25" type="curve"/>
      <point x="73.625" y="642.05" type="line" smooth="yes"/>
      <point x="73.625" y="631.575"/>
      <point x="76.725" y="624.75"/>
      <point x="88.75" y="624.75" type="curve"/>
      <point x="147.1" y="624.75" type="line" smooth="yes"/>
      <point x="160.675" y="624.75"/>
      <point x="164.875" y="631.575"/>
    </contour>
  </outline>
</glyph>
<glyph name="j" format="2">
  <advance width="238.775"/>
  <unicode hex="006A"/>
  <outline>
    <contour>
      <point x="161.525" y="-29.0" type="curve"/>
      <point x="161.525" y="-29.0" type="line"/>
      <point x="161.525" y="517.25" type="line" smooth="yes"/>
      <point x="161.525" y="525.625"/>
      <point x="158.425" y="530.0"/>
      <point x="150.775" y="530.0" type="curve"/>
      <point x="90.275" y="530.0" type="line" smooth="yes"/>
      <point x="81.9" y="530.0"/>
      <point x="77.525" y="525.625"/>
      <point x="77.525" y="516.425" type="curve"/>
      <point x="77.525" y="-23.45" type="line" smooth="yes"/>
      <point x="77.525" y="-79.19999999999999"/>
      <point x="59.275" y="-97.35"/>
      <point x="17.275" y="-99.175" type="curve"/>
      <point x="-34.4" y="-101.55" type="line" smooth="yes"/>
      <point x="-40.875" y="-102.375"/>
      <point x="-44.25" y="-107.4"/>
      <point x="-44.25" y="-113.325" type="curve"/>
      <point x="-43.975" y="-156.6" type="line" smooth="yes"/>
      <point x="-43.975" y="-168.175"/>
      <point x="-36.325" y="-170.0"/>
      <point x="21.85" y="-170.0" type="curve"/>
      <point x="126.875" y="-170.0"/>
      <point x="161.525" y="-124.75"/>
    </contour>
    <contour>
      <point x="165.15" y="644.325" type="curve"/>
      <point x="165.15" y="726.8" type="line"/>
      <point x="165.15" y="736.175"/>
      <point x="159.875" y="742.0"/>
      <point x="151.5" y="742.0" type="curve"/>
      <point x="88.1" y="742.0" type="line" smooth="yes"/>
      <point x="79.725" y="742.0"/>
      <point x="73.9" y="736.175"/>
      <point x="73.9" y="726.25" type="curve"/>
      <point x="73.9" y="642.05" type="line" smooth="yes"/>
      <point x="73.9" y="631.575"/>
      <point x="77.275" y="624.75"/>
      <point x="89.3" y="624.75" type="curve"/>
      <point x="147.65" y="624.75" type="line" smooth="yes"/>
      <point x="161.225" y="624.75"/>
      <point x="165.15" y="631.575"/>
    </contour>
  </outline>
</glyph>
<glyph name="l" format="2">
  <advance width="239.05"/>
  <unicode hex="006C"/>
  <anchor x="120.625" y="742.0" name="top"/>
  <anchor x="120.625" y="0.0" name="bottom"/>
  <anchor x="277.175" y="683.7" name="topright"/>
  <outline>
    <contour>
      <point x="161.525" y="16.675" type="curve"/>
      <point x="161.525" y="728.975" type="line"/>
      <point x="161.525" y="738.35"/>
      <point x="158.15" y="742.0"/>
      <point x="150.05" y="742.0" type="curve"/>
      <point x="90.1" y="742.0" type="line" smooth="yes"/>
      <point x="81.725" y="742.0"/>
      <point x="78.35" y="738.35"/>
      <point x="78.35" y="728.425" type="curve"/>
      <point x="76.975" y="14.125" type="line" smooth="yes"/>
      <point x="76.975" y="3.6500000000000004"/>
      <point x="80.35" y="0.0"/>
      <point x="92.375" y="0.0" type="curve"/>
      <point x="143.75" y="0.0" type="line" smooth="yes"/>
      <point x="157.325" y="0.0"/>
      <point x="161.525" y="3.6500000000000004"/>
    </contour>
  </outline>
</glyph>
<glyph name="m" format="2">
  <advance width="905.525"/>
  <unicode hex="006D"/>
  <guideline x="285.575" y="420.175" angle="90.0"/>
  <outline>
    <contour>
      <point x="90.925" y="0.0" type="curve"/>
      <point x="90.925" y="0.0" type="line"/>
      <point x="145.65" y="0.0" type="line" smooth="yes"/>
      <point x="156.6" y="0.0"/>
      <point x="161.25" y="4.375"/>
      <point x="161.25" y="14.5" type="curve"/>
      <point x="161.25" y="393.225" type="line"/>
      <point x="221.575" y="446.8"/>
      <point x="261.075" y="473.675"/>
      <point x="317.9" y="473.675" type="curve"/>
      <point x="384.7" y="473.675"/>
      <point x="414.125" y="434.65"/>
      <point x="414.125" y="369.85" type="curve"/>
      <point x="414.125" y="13.4" type="line" smooth="yes"/>
      <point x="414.125" y="3.825"/>
      <point x="418.95" y="0.0"/>
      <point x="426.975" y="0.0" type="curve"/>
      <point x="483.075" y="0.0" type="line" smooth="yes"/>
      <point x="492.475" y="0.0"/>
      <point x="497.85" y="4.925000000000001"/>
      <point x="497.85" y="15.5" type="curve"/>
      <point x="497.85" y="376.5" type="line" smooth="yes"/>
      <point x="497.85" y="389.125"/>
      <point x="501.75" y="395.675"/>
      <point x="512.375" y="405.675" type="curve"/>
      <point x="544.775" y="434.65"/>
      <point x="594.7" y="473.675"/>
      <point x="654.5" y="473.675" type="curve"/>
      <point x="721.025" y="473.675"/>
      <point x="750.725" y="434.65"/>
      <point x="750.725" y="369.85" type="curve"/>
      <point x="750.725" y="13.4" type="line" smooth="yes"/>
      <point x="750.725" y="3.825"/>
      <point x="754.55" y="0.0"/>
      <point x="763.575" y="0.0" type="curve"/>
      <point x="819.675" y="0.0" type="line" smooth="yes"/>
      <point x="829.8" y="0.0"/>
      <point x="834.725" y="4.925000000000001"/>
      <point x="834.725" y="15.5" type="curve"/>
      <point x="834.725" y="387.5" type="line" smooth="yes"/>
      <point x="834.725" y="480.0"/>
      <point x="779.425" y="540.0"/>
      <point x="682.175" y="540.0" type="curve"/>
      <point x="615.65" y="540.0"/>
      <point x="563.575" y="507.15"/>
      <point x="501.2" y="453.975" type="curve"/>
      <point x="495.475" y="448.7"/>
      <point x="489.025" y="445.8"/>
      <point x="487.025" y="451.525" type="curve"/>
      <point x="471.275" y="497.575"/>
      <point x="424.35" y="540.275"/>
      <point x="345.025" y="540.275" type="curve"/>
      <point x="278.225" y="540.275"/>
      <point x="231.65" y="509.9"/>
      <point x="167.625" y="458.1" type="curve"/>
      <point x="161.075" y="452.275"/>
      <point x="158.25" y="454.1"/>
      <point x="158.25" y="461.375" type="curve"/>
      <point x="158.25" y="518.7" type="line" smooth="yes"/>
      <point x="158.25" y="526.35"/>
      <point x="155.15" y="530.0"/>
      <point x="147.5" y="530.0" type="curve"/>
      <point x="88.275" y="530.0" type="line" smooth="yes"/>
      <point x="80.9" y="530.0"/>
      <point x="77.25" y="525.35"/>
      <point x="77.25" y="517.15" type="curve"/>
      <point x="77.25" y="13.4" type="line" smooth="yes"/>
      <point x="77.25" y="4.1"/>
      <point x="81.35" y="0.0"/>
    </contour>
  </outline>
</glyph>
<glyph name="n" format="2">
  <advance width="583.7"/>
  <unicode hex="006E"/>
  <anchor x="303.275" y="530.0" name="top"/>
  <anchor x="296.025" y="0.0" name="bottom"/>
  <outline>
    <contour>
      <point x="90.925" y="0.0" type="curve"/>
      <point x="90.925" y="0.0" type="line"/>
      <point x="145.65" y="0.0" type="line" smooth="yes"/>
      <point x="156.6" y="0.0"/>
      <point x="161.25" y="4.375"/>
      <point x="161.25" y="14.5" type="curve"/>
      <point x="161.25" y="393.225" type="line"/>
      <point x="224.475" y="446.8"/>
      <point x="265.15" y="473.675"/>
      <point x="325.15" y="473.675" type="curve"/>
      <point x="397.025" y="473.675"/>
      <point x="428.9" y="434.65"/>
      <point x="428.9" y="369.85" type="curve"/>
      <point x="428.9" y="13.4" type="line" smooth="yes"/>
      <point x="428.9" y="3.825"/>
      <point x="432.725" y="0.0"/>
      <point x="441.75" y="0.0" type="curve"/>
      <point x="498.125" y="0.0" type="line" smooth="yes"/>
      <point x="508.25" y="0.0"/>
      <point x="512.9" y="4.925000000000001"/>
      <point x="512.9" y="15.5" type="curve"/>
      <point x="512.9" y="388.875" type="line" smooth="yes"/>
      <point x="512.9" y="479.175"/>
      <point x="455.425" y="540.0"/>
      <point x="352.275" y="540.0" type="curve"/>
      <point x="282.3" y="540.0"/>
      <point x="234.55" y="509.9"/>
      <point x="167.9" y="458.1" type="curve"/>
      <point x="161.35" y="452.275"/>
      <point x="158.525" y="454.1"/>
      <point x="158.525" y="461.375" type="curve"/>
      <point x="158.525" y="518.7" type="line" smooth="yes"/>
      <point x="158.525" y="526.35"/>
      <point x="155.425" y="530.0"/>
      <point x="147.775" y="530.0" type="curve"/>
      <point x="88.275" y="530.0" type="line" smooth="yes"/>
      <point x="80.625" y="530.0"/>
      <point x="77.25" y="525.35"/>
      <point x="77.25" y="517.15" type="curve"/>
      <point x="77.25" y="13.4" type="line" smooth="yes"/>
      <point x="77.25" y="4.1"/>
      <point x="81.35" y="0.0"/>
    </contour>
  </outline>
</glyph>
<glyph name="o" format="2">
  <advance width="598.55"/>
  <unicode hex="006F"/>
  <anchor x="299.275" y="265.0" name="center"/>
  <anchor x="367.125" y="10.0" name="ogonek"/>
  <anchor x="300.725" y="530.0" name="top"/>
  <anchor x="437.25" y="530.0" name="topright"/>
  <anchor x="297.725" y="0.0" name="bottom"/>
  <outline>
    <contour>
      <point x="299.0" y="-10.0" type="curve"/>
      <point x="299.0" y="-10.0" type="line"/>
      <point x="450.225" y="-10.0"/>
      <point x="552.175" y="102.55"/>
      <point x="552.175" y="263.45" type="curve"/>
      <point x="552.175" y="425.175"/>
      <point x="451.05" y="540.0"/>
      <point x="300.0" y="540.0" type="curve"/>
      <point x="150.7" y="540.0"/>
      <point x="46.375" y="426.1"/>
      <point x="46.375" y="262.0" type="curve"/>
      <point x="46.375" y="101.55"/>
      <point x="147.325" y="-10.0"/>
    </contour>
    <contour>
      <point x="300.725" y="52.75" type="curve"/>
      <point x="300.725" y="52.75" type="line"/>
      <point x="196.25" y="52.75"/>
      <point x="132.375" y="133.725"/>
      <point x="132.375" y="264.55" type="curve"/>
      <point x="132.375" y="395.65"/>
      <point x="196.25" y="478.35"/>
      <point x="300.0" y="478.35" type="curve"/>
      <point x="403.3" y="478.35"/>
      <point x="466.175" y="396.375"/>
      <point x="466.175" y="264.55" type="curve"/>
      <point x="466.175" y="133.275"/>
      <point x="404.75" y="52.75"/>
    </contour>
  </outline>
</glyph>
<glyph name="p" format="2">
  <advance width="597.425"/>
  <unicode hex="0070"/>
  <outline>
    <contour>
      <point x="145.675" y="530.0" type="curve"/>
      <point x="145.675" y="530.0" type="line"/>
      <point x="93.375" y="530.0" type="line" smooth="yes"/>
      <point x="81.075" y="530.0"/>
      <point x="77.25" y="525.35"/>
      <point x="77.25" y="514.15" type="curve"/>
      <point x="77.25" y="-152.425" type="line" smooth="yes"/>
      <point x="77.25" y="-160.9"/>
      <point x="81.625" y="-165.0"/>
      <point x="88.275" y="-165.0" type="curve"/>
      <point x="149.775" y="-165.0" type="line" smooth="yes"/>
      <point x="158.15" y="-165.0"/>
      <point x="161.25" y="-160.9"/>
      <point x="161.25" y="-152.25" type="curve"/>
      <point x="161.25" y="33.825" type="line" smooth="yes"/>
      <point x="161.25" y="48.75"/>
      <point x="164.8" y="50.65"/>
      <point x="177.175" y="40.275" type="curve"/>
      <point x="209.75" y="11.875"/>
      <point x="257.275" y="-10.0"/>
      <point x="318.95" y="-10.0" type="curve"/>
      <point x="456.325" y="-10.0"/>
      <point x="548.775" y="94.0"/>
      <point x="548.775" y="272.8" type="curve"/>
      <point x="548.775" y="452.55"/>
      <point x="452.9" y="540.0"/>
      <point x="329.575" y="540.0" type="curve"/>
      <point x="237.125" y="540.0"/>
      <point x="195.225" y="491.45"/>
      <point x="172.9" y="469.225" type="curve"/>
      <point x="165.175" y="461.775"/>
      <point x="160.075" y="462.5"/>
      <point x="160.075" y="472.675" type="curve"/>
      <point x="160.075" y="515.425" type="line" smooth="yes"/>
      <point x="160.075" y="525.175"/>
      <point x="155.975" y="530.0"/>
    </contour>
    <contour>
      <point x="161.25" y="116.925" type="curve"/>
      <point x="161.25" y="116.925" type="line"/>
      <point x="161.25" y="363.725" type="line" smooth="yes"/>
      <point x="161.25" y="416.025"/>
      <point x="219.075" y="479.175"/>
      <point x="302.3" y="479.175" type="curve"/>
      <point x="389.1" y="479.175"/>
      <point x="462.775" y="418.725"/>
      <point x="462.775" y="271.55" type="curve"/>
      <point x="462.775" y="126.15"/>
      <point x="393.625" y="50.825"/>
      <point x="296.5" y="50.825" type="curve"/>
      <point x="243.475" y="50.825"/>
      <point x="201.45" y="76.25"/>
    </contour>
  </outline>
</glyph>
<glyph name="q" format="2">
  <advance width="599.325"/>
  <unicode hex="0071"/>
  <outline>
    <contour>
      <point x="506.675" y="530.0" type="curve"/>
      <point x="478.05" y="530.0" type="line"/>
      <point x="466.05" y="530.0"/>
      <point x="462.4" y="525.625"/>
      <point x="460.3" y="513.975" type="curve"/>
      <point x="453.0" y="471.6" type="line" smooth="yes"/>
      <point x="451.45" y="463.325"/>
      <point x="448.175" y="462.325"/>
      <point x="442.175" y="468.6" type="curve"/>
      <point x="419.85" y="492.5"/>
      <point x="377.45" y="540.275"/>
      <point x="276.9" y="540.275" type="curve"/>
      <point x="132.65" y="540.275"/>
      <point x="48.375" y="431.0"/>
      <point x="48.375" y="266.9" type="curve"/>
      <point x="48.375" y="97.6"/>
      <point x="134.45" y="-10.0"/>
      <point x="275.05" y="-10.0" type="curve"/>
      <point x="336.0" y="-10.0"/>
      <point x="387.7" y="13.175"/>
      <point x="422.975" y="40.45" type="curve"/>
      <point x="435.425" y="50.175"/>
      <point x="438.075" y="47.725"/>
      <point x="438.075" y="32.35" type="curve"/>
      <point x="438.075" y="-151.525" type="line" smooth="yes"/>
      <point x="438.075" y="-160.9"/>
      <point x="441.45" y="-165.0"/>
      <point x="448.825" y="-165.0" type="curve"/>
      <point x="510.325" y="-165.0" type="line" smooth="yes"/>
      <point x="517.7" y="-165.0"/>
      <point x="522.075" y="-160.9"/>
      <point x="522.075" y="-151.7" type="curve"/>
      <point x="522.075" y="513.425" type="line" smooth="yes"/>
      <point x="522.075" y="525.35"/>
      <point x="518.25" y="530.0"/>
    </contour>
    <contour>
      <point x="438.075" y="350.525" type="curve"/>
      <point x="438.075" y="115.45" type="line"/>
      <point x="402.85" y="74.875"/>
      <point x="350.85" y="50.55"/>
      <point x="297.65" y="50.55" type="curve"/>
      <point x="201.8" y="50.55"/>
      <point x="134.375" y="126.25"/>
      <point x="134.375" y="267.9" type="curve"/>
      <point x="134.375" y="412.9"/>
      <point x="206.975" y="481.1"/>
      <point x="296.575" y="481.1" type="curve"/>
      <point x="378.45" y="481.1"/>
      <point x="438.075" y="419.1"/>
    </contour>
  </outline>
</glyph>
<glyph name="r" format="2">
  <advance width="382.95"/>
  <unicode hex="0072"/>
  <anchor x="210.975" y="530.0" name="top"/>
  <anchor x="122.55" y="0.0" name="bottom"/>
  <outline>
    <contour>
      <point x="90.925" y="0.0" type="curve"/>
      <point x="90.925" y="0.0" type="line"/>
      <point x="145.65" y="0.0" type="line" smooth="yes"/>
      <point x="156.325" y="0.0"/>
      <point x="161.25" y="4.375"/>
      <point x="161.25" y="14.5" type="curve"/>
      <point x="161.25" y="345.75" type="line" smooth="yes"/>
      <point x="161.25" y="403.95"/>
      <point x="245.3" y="462.325"/>
      <point x="303.8" y="462.325" type="curve"/>
      <point x="321.35" y="462.325"/>
      <point x="337.05" y="460.775"/>
      <point x="349.2" y="458.575" type="curve"/>
      <point x="354.675" y="457.75"/>
      <point x="358.325" y="460.85"/>
      <point x="358.325" y="466.6" type="curve"/>
      <point x="358.325" y="527.25" type="line" smooth="yes"/>
      <point x="358.325" y="536.175"/>
      <point x="347.225" y="540.0"/>
      <point x="322.775" y="540.0" type="curve"/>
      <point x="270.7" y="540.0"/>
      <point x="219.925" y="511.6"/>
      <point x="167.625" y="451.0" type="curve"/>
      <point x="162.075" y="444.175"/>
      <point x="157.15" y="446.175"/>
      <point x="157.15" y="454.0" type="curve"/>
      <point x="157.15" y="518.7" type="line" smooth="yes"/>
      <point x="157.15" y="526.35"/>
      <point x="153.775" y="530.0"/>
      <point x="146.4" y="530.0" type="curve"/>
      <point x="88.275" y="530.0" type="line" smooth="yes"/>
      <point x="80.625" y="530.0"/>
      <point x="77.25" y="525.625"/>
      <point x="77.25" y="517.15" type="curve"/>
      <point x="77.25" y="13.4" type="line" smooth="yes"/>
      <point x="77.25" y="4.375"/>
      <point x="81.075" y="0.0"/>
    </contour>
  </outline>
</glyph>
<glyph name="s" format="2">
  <advance width="512.0"/>
  <unicode hex="0073"/>
  <anchor x="243.625" y="530.0" name="top"/>
  <anchor x="249.15" y="0.0" name="bottom"/>
  <outline>
    <contour>
      <point x="395.475" y="412.8" type="curve"/>
      <point x="395.475" y="412.8" type="line"/>
      <point x="399.125" y="408.15"/>
      <point x="404.5" y="406.775"/>
      <point x="409.975" y="409.875" type="curve"/>
      <point x="451.95" y="432.85" type="line" smooth="yes"/>
      <point x="457.975" y="436.225"/>
      <point x="456.5" y="441.25"/>
      <point x="452.675" y="446.9" type="curve"/>
      <point x="416.425" y="503.15"/>
      <point x="343.4" y="540.0"/>
      <point x="253.975" y="540.0" type="curve"/>
      <point x="132.325" y="540.0"/>
      <point x="49.225" y="475.5"/>
      <point x="49.5" y="380.925" type="curve"/>
      <point x="49.775" y="319.65"/>
      <point x="86.125" y="273.275"/>
      <point x="186.4" y="246.575" type="curve"/>
      <point x="289.125" y="218.425" type="line" smooth="yes"/>
      <point x="360.475" y="198.375"/>
      <point x="387.325" y="172.875"/>
      <point x="387.325" y="136.675" type="curve"/>
      <point x="387.325" y="84.85"/>
      <point x="327.5" y="51.650000000000006"/>
      <point x="250.7" y="51.375" type="curve"/>
      <point x="167.8" y="50.825"/>
      <point x="116.15" y="86.0"/>
      <point x="84.45" y="136.65" type="curve"/>
      <point x="81.075" y="141.025"/>
      <point x="76.25" y="141.575"/>
      <point x="69.4" y="137.925" type="curve"/>
      <point x="29.525" y="115.675" type="line" smooth="yes"/>
      <point x="23.875" y="112.125"/>
      <point x="24.15" y="106.65"/>
      <point x="27.525" y="100.45" type="curve"/>
      <point x="60.525" y="36.1"/>
      <point x="144.9" y="-10.0"/>
      <point x="250.425" y="-10.0" type="curve"/>
      <point x="374.325" y="-10.0"/>
      <point x="466.45" y="52.1"/>
      <point x="466.45" y="146.075" type="curve"/>
      <point x="466.45" y="208.575"/>
      <point x="426.8" y="259.175"/>
      <point x="336.15" y="284.45" type="curve"/>
      <point x="209.125" y="322.4" type="line" smooth="yes"/>
      <point x="142.675" y="342.45"/>
      <point x="127.80000000000001" y="369.125"/>
      <point x="127.80000000000001" y="395.525" type="curve"/>
      <point x="127.80000000000001" y="447.975"/>
      <point x="181.45" y="480.55"/>
      <point x="252.7" y="480.55" type="curve"/>
      <point x="319.1" y="480.55"/>
      <point x="367.5" y="453.2"/>
    </contour>
  </outline>
</glyph>
<glyph name="t" format="2">
  <advance width="386.6"/>
  <unicode hex="0074"/>
  <anchor x="178.875" y="303.425" name="center"/>
  <anchor x="240.9" y="0.0" name="bottom"/>
  <anchor x="364.875" y="771.5" name="topright"/>
  <outline>
    <contour>
      <point x="217.225" y="467.5" type="curve"/>
      <point x="343.575" y="467.5" type="line"/>
      <point x="351.875" y="467.5"/>
      <point x="354.8" y="471.425"/>
      <point x="354.8" y="477.9" type="curve"/>
      <point x="354.8" y="520.7" type="line" smooth="yes"/>
      <point x="354.8" y="527.175"/>
      <point x="350.875" y="530.275"/>
      <point x="344.4" y="530.275" type="curve"/>
      <point x="218.325" y="530.275" type="line" smooth="yes"/>
      <point x="212.775" y="530.275"/>
      <point x="210.225" y="532.825"/>
      <point x="210.225" y="538.375" type="curve"/>
      <point x="210.225" y="695.975" type="line" smooth="yes"/>
      <point x="210.225" y="705.625"/>
      <point x="205.85" y="710.0"/>
      <point x="198.475" y="710.0" type="curve"/>
      <point x="147.9" y="710.0" type="line" smooth="yes"/>
      <point x="140.25" y="710.0"/>
      <point x="137.425" y="705.9"/>
      <point x="137.15" y="697.25" type="curve"/>
      <point x="126.225" y="538.375" type="line" smooth="yes"/>
      <point x="125.95" y="533.275"/>
      <point x="123.4" y="530.0"/>
      <point x="118.575" y="530.0" type="curve"/>
      <point x="34.2" y="530.0" type="line" smooth="yes"/>
      <point x="27.45" y="530.0"/>
      <point x="23.8" y="526.9"/>
      <point x="23.8" y="520.425" type="curve"/>
      <point x="23.8" y="477.9" type="line" smooth="yes"/>
      <point x="23.8" y="471.425"/>
      <point x="27.175" y="467.5"/>
      <point x="34.75" y="467.5" type="curve"/>
      <point x="115.375" y="467.5" type="line" smooth="yes"/>
      <point x="122.3" y="467.5"/>
      <point x="124.575" y="464.4"/>
      <point x="124.575" y="457.475" type="curve"/>
      <point x="124.575" y="122.85" type="line" smooth="yes"/>
      <point x="124.575" y="37.575"/>
      <point x="161.95" y="0.0"/>
      <point x="246.35" y="0.0" type="curve"/>
      <point x="268.875" y="0.0"/>
      <point x="318.5" y="1.0"/>
      <point x="340.025" y="4.825" type="curve"/>
      <point x="348.15" y="6.65"/>
      <point x="352.35" y="10.125"/>
      <point x="352.35" y="18.15" type="curve"/>
      <point x="352.625" y="52.475" type="line" smooth="yes"/>
      <point x="352.625" y="59.125"/>
      <point x="348.525" y="63.05"/>
      <point x="341.875" y="63.05" type="curve"/>
      <point x="272.775" y="63.05" type="line" smooth="yes"/>
      <point x="230.3" y="63.05"/>
      <point x="208.575" y="78.875"/>
      <point x="208.575" y="142.15" type="curve"/>
      <point x="208.575" y="458.85" type="line" smooth="yes"/>
      <point x="208.575" y="464.95"/>
      <point x="211.675" y="467.5"/>
    </contour>
  </outline>
</glyph>
<glyph name="u" format="2">
  <advance width="579.25"/>
  <unicode hex="0075"/>
  <anchor x="488.225" y="10.725" name="ogonek"/>
  <anchor x="276.525" y="530.0" name="top"/>
  <anchor x="535.325" y="530.0" name="topright"/>
  <anchor x="276.8" y="0.0" name="bottom"/>
  <outline>
    <contour>
      <point x="256.725" y="56.05" type="curve"/>
      <point x="256.725" y="56.05" type="line"/>
      <point x="192.925" y="56.05"/>
      <point x="154.075" y="99.425"/>
      <point x="154.075" y="164.5" type="curve"/>
      <point x="154.075" y="516.325" type="line" smooth="yes"/>
      <point x="154.075" y="525.9"/>
      <point x="150.25" y="530.0"/>
      <point x="141.225" y="530.0" type="curve"/>
      <point x="85.125" y="530.0" type="line" smooth="yes"/>
      <point x="74.725" y="530.0"/>
      <point x="70.075" y="525.075"/>
      <point x="70.075" y="514.5" type="curve"/>
      <point x="70.075" y="142.5" type="line" smooth="yes"/>
      <point x="70.075" y="50.0"/>
      <point x="138.15" y="-10.0"/>
      <point x="229.95" y="-10.0" type="curve"/>
      <point x="286.075" y="-10.0"/>
      <point x="338.35" y="9.65"/>
      <point x="411.9" y="73.075" type="curve"/>
      <point x="418.175" y="78.625"/>
      <point x="421.0" y="77.075"/>
      <point x="421.0" y="69.8" type="curve"/>
      <point x="421.0" y="11.3" type="line" smooth="yes"/>
      <point x="421.0" y="3.375"/>
      <point x="424.375" y="0.0"/>
      <point x="431.75" y="0.0" type="curve"/>
      <point x="490.425" y="0.0" type="line" smooth="yes"/>
      <point x="498.075" y="0.0"/>
      <point x="501.45" y="4.375"/>
      <point x="501.45" y="12.575" type="curve"/>
      <point x="502.55" y="516.325" type="line" smooth="yes"/>
      <point x="502.55" y="525.625"/>
      <point x="498.45" y="530.0"/>
      <point x="488.875" y="530.0" type="curve"/>
      <point x="433.6" y="530.0" type="line" smooth="yes"/>
      <point x="422.925" y="530.0"/>
      <point x="418.0" y="525.35"/>
      <point x="418.0" y="515.5" type="curve"/>
      <point x="418.0" y="143.45" type="line"/>
      <point x="365.925" y="90.0"/>
      <point x="314.275" y="56.05"/>
    </contour>
  </outline>
</glyph>
<glyph name="v" format="2">
  <advance width="546.775"/>
  <unicode hex="0076"/>
  <outline>
    <contour>
      <point x="508.425" y="530.0" type="curve"/>
      <point x="508.425" y="530.0" type="line"/>
      <point x="461.675" y="530.0" type="line" smooth="yes"/>
      <point x="454.025" y="530.0"/>
      <point x="449.375" y="526.075"/>
      <point x="446.55" y="519.425" type="curve"/>
      <point x="290.5" y="127.025" type="line" smooth="yes"/>
      <point x="284.5" y="113.025"/>
      <point x="279.5" y="113.30000000000001"/>
      <point x="274.775" y="126.025" type="curve"/>
      <point x="117.9" y="518.7" type="line" smooth="yes"/>
      <point x="115.35" y="526.075"/>
      <point x="110.42500000000001" y="530.0"/>
      <point x="102.05000000000001" y="530.0" type="curve"/>
      <point x="39.625" y="530.0" type="line" smooth="yes"/>
      <point x="30.15" y="530.0"/>
      <point x="25.775" y="522.975"/>
      <point x="28.6" y="514.775" type="curve"/>
      <point x="231.3" y="14.125" type="line" smooth="yes"/>
      <point x="235.4" y="4.375"/>
      <point x="243.225" y="0.0"/>
      <point x="255.975" y="0.0" type="curve"/>
      <point x="291.975" y="0.0" type="line" smooth="yes"/>
      <point x="304.0" y="0.0"/>
      <point x="311.1" y="4.375"/>
      <point x="315.2" y="14.850000000000001" type="curve"/>
      <point x="518.175" y="515.5" type="line" smooth="yes"/>
      <point x="521.0" y="522.975"/>
      <point x="517.175" y="530.0"/>
    </contour>
  </outline>
</glyph>
<glyph name="w" format="2">
  <advance width="796.475"/>
  <unicode hex="0077"/>
  <anchor x="401.225" y="530.0" name="top"/>
  <outline>
    <contour>
      <point x="754.5" y="530.0" type="curve"/>
      <point x="754.5" y="530.0" type="line"/>
      <point x="714.675" y="530.0" type="line" smooth="yes"/>
      <point x="707.025" y="530.0"/>
      <point x="700.925" y="526.075"/>
      <point x="698.1" y="519.425" type="curve"/>
      <point x="582.975" y="130.97500000000002" type="line" smooth="yes"/>
      <point x="578.7" y="116.97500000000001"/>
      <point x="573.15" y="117.25"/>
      <point x="569.425" y="129.97500000000002" type="curve"/>
      <point x="446.25" y="518.7" type="line" smooth="yes"/>
      <point x="443.975" y="526.075"/>
      <point x="438.775" y="530.0"/>
      <point x="430.675" y="530.0" type="curve"/>
      <point x="384.025" y="530.0" type="line" smooth="yes"/>
      <point x="377.1" y="530.0"/>
      <point x="371.9" y="526.8"/>
      <point x="369.625" y="520.15" type="curve"/>
      <point x="251.7" y="130.97500000000002" type="line" smooth="yes"/>
      <point x="247.425" y="116.97500000000001"/>
      <point x="241.15" y="117.25"/>
      <point x="237.425" y="129.97500000000002" type="curve"/>
      <point x="117.67500000000001" y="518.7" type="line" smooth="yes"/>
      <point x="115.4" y="526.075"/>
      <point x="110.2" y="530.0"/>
      <point x="101.825" y="530.0" type="curve"/>
      <point x="42.525" y="530.0" type="line" smooth="yes"/>
      <point x="33.05" y="530.0"/>
      <point x="28.675" y="522.975"/>
      <point x="31.5" y="514.775" type="curve"/>
      <point x="189.425" y="13.3" type="line" smooth="yes"/>
      <point x="192.25" y="3.825"/>
      <point x="198.8" y="0.0"/>
      <point x="210.175" y="0.0" type="curve"/>
      <point x="261.35" y="0.0" type="line" smooth="yes"/>
      <point x="272.0" y="0.0"/>
      <point x="277.0" y="3.55"/>
      <point x="279.55" y="12.925" type="curve"/>
      <point x="393.05" y="387.15" type="line" smooth="yes"/>
      <point x="396.325" y="398.25"/>
      <point x="400.425" y="398.975"/>
      <point x="404.7" y="387.15" type="curve"/>
      <point x="523.8" y="13.3" type="line" smooth="yes"/>
      <point x="526.625" y="3.825"/>
      <point x="533.175" y="0.0"/>
      <point x="544.825" y="0.0" type="curve"/>
      <point x="593.0" y="0.0" type="line" smooth="yes"/>
      <point x="603.375" y="0.0"/>
      <point x="609.1" y="3.55"/>
      <point x="611.65" y="12.925" type="curve"/>
      <point x="764.975" y="515.5" type="line" smooth="yes"/>
      <point x="767.35" y="522.975"/>
      <point x="763.25" y="530.0"/>
    </contour>
  </outline>
</glyph>
<glyph name="x" format="2">
  <advance width="544.425"/>
  <unicode hex="0078"/>
  <outline>
    <contour>
      <point x="509.9" y="20.525" type="curve"/>
      <point x="509.9" y="20.525" type="line"/>
      <point x="327.4" y="268.125" type="line" smooth="yes"/>
      <point x="321.75" y="275.6"/>
      <point x="320.475" y="281.875"/>
      <point x="327.125" y="290.35" type="curve"/>
      <point x="496.475" y="516.225" type="line" smooth="yes"/>
      <point x="501.675" y="523.25"/>
      <point x="500.95" y="530.0"/>
      <point x="489.725" y="530.0" type="curve"/>
      <point x="438.25" y="530.0" type="line" smooth="yes"/>
      <point x="426.85" y="530.0"/>
      <point x="422.925" y="527.625"/>
      <point x="418.275" y="520.875" type="curve"/>
      <point x="287.225" y="338.05" type="line" smooth="yes"/>
      <point x="281.675" y="329.675"/>
      <point x="276.675" y="330.95"/>
      <point x="272.125" y="338.05" type="curve"/>
      <point x="136.8" y="520.875" type="line" smooth="yes"/>
      <point x="132.15" y="527.625"/>
      <point x="128.225" y="530.0"/>
      <point x="117.55000000000001" y="530.0" type="curve"/>
      <point x="51.35" y="530.0" type="line" smooth="yes"/>
      <point x="40.675" y="530.0"/>
      <point x="37.3" y="520.875"/>
      <point x="42.5" y="513.85" type="curve"/>
      <point x="216.8" y="278.2" type="line" smooth="yes"/>
      <point x="222.725" y="269.725"/>
      <point x="223.725" y="264.175"/>
      <point x="217.075" y="255.975" type="curve"/>
      <point x="34.9" y="24.175" type="line" smooth="yes"/>
      <point x="21.125" y="5.75"/>
      <point x="28.875" y="0.0"/>
      <point x="42.375" y="0.0" type="curve"/>
      <point x="89.375" y="0.0" type="line" smooth="yes"/>
      <point x="99.225" y="0.0"/>
      <point x="105.7" y="3.1"/>
      <point x="109.625" y="9.125" type="curve"/>
      <point x="256.5" y="203.15" type="line" smooth="yes"/>
      <point x="263.7" y="213.45"/>
      <point x="267.15" y="213.175"/>
      <point x="274.35" y="202.875" type="curve"/>
      <point x="415.425" y="9.125" type="line" smooth="yes"/>
      <point x="419.35" y="3.1"/>
      <point x="426.55" y="0.0"/>
      <point x="435.675" y="0.0" type="curve"/>
      <point x="505.975" y="0.0" type="line" smooth="yes"/>
      <point x="519.025" y="0.0"/>
      <point x="521.3" y="5.2"/>
    </contour>
  </outline>
</glyph>
<glyph name="y" format="2">
  <advance width="530.275"/>
  <unicode hex="0079"/>
  <anchor x="274.525" y="530.0" name="top"/>
  <anchor x="361.45" y="0.0" name="bottom"/>
  <outline>
    <contour>
      <point x="106.35" y="-165.0" type="curve"/>
      <point x="106.35" y="-165.0" type="line"/>
      <point x="192.725" y="-165.0"/>
      <point x="244.475" y="-141.8"/>
      <point x="282.3" y="-47.3" type="curve"/>
      <point x="501.95" y="515.5" type="line" smooth="yes"/>
      <point x="505.05" y="522.25"/>
      <point x="500.95" y="530.0"/>
      <point x="492.2" y="530.0" type="curve"/>
      <point x="445.45" y="530.0" type="line" smooth="yes"/>
      <point x="438.525" y="530.0"/>
      <point x="433.875" y="526.075"/>
      <point x="431.05" y="519.425" type="curve"/>
      <point x="284.15" y="133.7" type="line" smooth="yes"/>
      <point x="278.15" y="118.25"/>
      <point x="271.15" y="118.80000000000001"/>
      <point x="266.425" y="130.8" type="curve"/>
      <point x="116.9" y="518.7" type="line" smooth="yes"/>
      <point x="114.35" y="526.075"/>
      <point x="108.7" y="530.0"/>
      <point x="101.05000000000001" y="530.0" type="curve"/>
      <point x="39.35" y="530.0" type="line" smooth="yes"/>
      <point x="28.425" y="530.0"/>
      <point x="24.5" y="522.25"/>
      <point x="28.325" y="513.325" type="curve"/>
      <point x="218.7" y="35.35" type="line" smooth="yes"/>
      <point x="236.675" y="-10.399999999999999"/>
      <point x="194.625" y="-99.575"/>
      <point x="136.3" y="-99.575" type="curve"/>
      <point x="73.275" y="-99.575" type="line" smooth="yes"/>
      <point x="49.825" y="-99.575"/>
      <point x="44.55" y="-104.05"/>
      <point x="44.55" y="-112.775" type="curve"/>
      <point x="44.55" y="-151.7" type="line" smooth="yes"/>
      <point x="44.55" y="-164.9"/>
      <point x="66.525" y="-165.0"/>
    </contour>
  </outline>
</glyph>
<glyph name="z" format="2">
  <advance width="481.65"/>
  <unicode hex="007A"/>
  <anchor x="253.35" y="530.0" name="top"/>
  <outline>
    <contour>
      <point x="42.825" y="0.0" type="curve"/>
      <point x="42.825" y="0.0" type="line"/>
      <point x="434.825" y="0.0" type="line" smooth="yes"/>
      <point x="443.85" y="0.0"/>
      <point x="447.5" y="4.2"/>
      <point x="447.5" y="11.850000000000001" type="curve"/>
      <point x="447.5" y="49.900000000000006" type="line" smooth="yes"/>
      <point x="447.5" y="56.650000000000006"/>
      <point x="443.575" y="59.475"/>
      <point x="436.825" y="59.475" type="curve"/>
      <point x="143.375" y="59.475" type="line" smooth="yes"/>
      <point x="136.625" y="59.475"/>
      <point x="134.35" y="62.85"/>
      <point x="139.725" y="69.775" type="curve"/>
      <point x="432.4" y="461.5" type="line" smooth="yes"/>
      <point x="439.325" y="470.525"/>
      <point x="442.15" y="478.075"/>
      <point x="442.15" y="488.0" type="curve"/>
      <point x="442.15" y="520.425" type="line" smooth="yes"/>
      <point x="442.15" y="526.35"/>
      <point x="438.775" y="530.0"/>
      <point x="433.3" y="530.0" type="curve"/>
      <point x="62.625" y="530.0" type="line" smooth="yes"/>
      <point x="56.7" y="530.0"/>
      <point x="53.325" y="526.35"/>
      <point x="53.325" y="519.425" type="curve"/>
      <point x="53.325" y="482.475" type="line" smooth="yes"/>
      <point x="53.325" y="473.175"/>
      <point x="56.15" y="471.075"/>
      <point x="64.45" y="471.075" type="curve"/>
      <point x="329.275" y="471.075" type="line" smooth="yes"/>
      <point x="336.75" y="471.075"/>
      <point x="339.3" y="467.525"/>
      <point x="334.2" y="460.875" type="curve"/>
      <point x="42.9" y="69.525" type="line" smooth="yes"/>
      <point x="33.325" y="56.85"/>
      <point x="31.325" y="51.85"/>
      <point x="31.325" y="41.0" type="curve"/>
      <point x="31.325" y="11.95" type="line" smooth="yes"/>
      <point x="31.325" y="2.825"/>
      <point x="33.7" y="0.0"/>
    </contour>
  </outline>
</glyph>
<glyph name="braceleft" format="2">
  <advance width="305.225"/>
  <unicode hex="007B"/>
  <outline>
    <contour>
      <point x="116.0" y="639.35" type="curve"/>
      <point x="116.0" y="639.35" type="line"/>
      <point x="116.0" y="420.65" type="line" smooth="yes"/>
      <point x="116.0" y="360.65"/>
      <point x="81.2" y="317.8"/>
      <point x="6.2" y="317.075" type="curve"/>
      <point x="2.825" y="317.075"/>
      <point x="0.0" y="314.25"/>
      <point x="0.0" y="307.225" type="curve"/>
      <point x="0.0" y="273.075" type="line" smooth="yes"/>
      <point x="0.0" y="266.05"/>
      <point x="2.825" y="263.225"/>
      <point x="6.2" y="263.225" type="curve"/>
      <point x="80.2" y="263.225"/>
      <point x="116.0" y="211.65"/>
      <point x="116.0" y="163.65" type="curve"/>
      <point x="116.0" y="-60.9" type="line" smooth="yes"/>
      <point x="116.0" y="-124.0"/>
      <point x="165.525" y="-165.0"/>
      <point x="245.35" y="-165.0" type="curve"/>
      <point x="279.475" y="-165.0" type="line" smooth="yes"/>
      <point x="287.4" y="-165.0"/>
      <point x="290.225" y="-162.175"/>
      <point x="290.225" y="-154.25" type="curve"/>
      <point x="290.225" y="-118.95" type="line" smooth="yes"/>
      <point x="290.225" y="-112.3"/>
      <point x="286.4" y="-108.75"/>
      <point x="279.475" y="-108.75" type="curve"/>
      <point x="256.35" y="-108.75" type="line" smooth="yes"/>
      <point x="206.35" y="-108.75"/>
      <point x="191.625" y="-92.3"/>
      <point x="191.625" y="-54.3" type="curve"/>
      <point x="191.625" y="168.875" type="line" smooth="yes"/>
      <point x="190.8" y="252.15"/>
      <point x="141.75" y="282.65"/>
      <point x="92.125" y="286.65" type="curve"/>
      <point x="83.125" y="287.65"/>
      <point x="84.125" y="292.375"/>
      <point x="92.125" y="293.375" type="curve"/>
      <point x="142.75" y="298.65"/>
      <point x="190.8" y="334.15"/>
      <point x="191.625" y="411.575" type="curve"/>
      <point x="191.625" y="632.75" type="line" smooth="yes"/>
      <point x="191.625" y="666.725"/>
      <point x="204.675" y="685.75"/>
      <point x="255.625" y="685.75" type="curve"/>
      <point x="281.025" y="685.75" type="line" smooth="yes"/>
      <point x="286.4" y="685.75"/>
      <point x="290.225" y="688.575"/>
      <point x="290.225" y="693.95" type="curve"/>
      <point x="290.225" y="734.8" type="line" smooth="yes"/>
      <point x="290.225" y="740.175"/>
      <point x="287.675" y="742.0"/>
      <point x="281.025" y="742.0" type="curve"/>
      <point x="243.8" y="742.0" type="line" smooth="yes"/>
      <point x="168.425" y="742.0"/>
      <point x="116.0" y="702.625"/>
    </contour>
  </outline>
</glyph>
<glyph name="bar" format="2">
  <advance width="260.95"/>
  <unicode hex="007C"/>
  <outline>
    <contour>
      <point x="110.45" y="-165.0" type="curve"/>
      <point x="153.425" y="-165.0" type="line"/>
      <point x="160.35" y="-165.0"/>
      <point x="164.0" y="-161.625"/>
      <point x="164.0" y="-154.25" type="curve"/>
      <point x="164.0" y="834.525" type="line" smooth="yes"/>
      <point x="164.0" y="842.9"/>
      <point x="160.35" y="847.0"/>
      <point x="151.875" y="847.0" type="curve"/>
      <point x="108.175" y="847.0" type="line" smooth="yes"/>
      <point x="100.6" y="847.0"/>
      <point x="96.95" y="843.175"/>
      <point x="96.95" y="834.775" type="curve"/>
      <point x="97.675" y="-152.3" type="line" smooth="yes"/>
      <point x="97.675" y="-160.8"/>
      <point x="101.325" y="-165.0"/>
    </contour>
  </outline>
</glyph>
<glyph name="asciitilde" format="2">
  <advance width="567.85"/>
  <unicode hex="007E"/>
  <outline>
    <contour>
      <point x="502.425" y="372.275" type="curve"/>
      <point x="502.425" y="372.275" type="line"/>
      <point x="506.975" y="378.375"/>
      <point x="508.25" y="383.4"/>
      <point x="505.15" y="389.05" type="curve"/>
      <point x="490.275" y="419.125" type="line" smooth="yes"/>
      <point x="485.625" y="428.05"/>
      <point x="480.425" y="428.6"/>
      <point x="474.325" y="421.4" type="curve"/>
      <point x="455.4" y="399.9"/>
      <point x="429.55" y="378.15"/>
      <point x="382.025" y="378.15" type="curve"/>
      <point x="313.225" y="378.15"/>
      <point x="268.425" y="430.3"/>
      <point x="192.025" y="430.3" type="curve"/>
      <point x="134.725" y="430.3"/>
      <point x="99.6" y="402.625"/>
      <point x="65.35" y="371.275" type="curve"/>
      <point x="60.15" y="366.8"/>
      <point x="59.325" y="363.15"/>
      <point x="62.15" y="357.05" type="curve"/>
      <point x="78.775" y="324.575" type="line" smooth="yes"/>
      <point x="82.325" y="317.3"/>
      <point x="85.525" y="317.3"/>
      <point x="90.8" y="322.85" type="curve"/>
      <point x="114.375" y="346.525"/>
      <point x="144.925" y="370.475"/>
      <point x="194.1" y="370.475" type="curve"/>
      <point x="263.275" y="370.475"/>
      <point x="301.3" y="318.775"/>
      <point x="382.4" y="318.775" type="curve"/>
      <point x="440.025" y="318.775"/>
      <point x="482.0" y="342.975"/>
    </contour>
  </outline>
</glyph>
<glyph name="exclamdown" format="2">
  <advance width="244.375"/>
  <unicode hex="00A1"/>
  <outline>
    <contour>
      <point x="173.675" y="429.85" type="curve"/>
      <point x="173.675" y="429.85" type="line"/>
      <point x="173.675" y="514.05" type="line" smooth="yes"/>
      <point x="173.675" y="525.625"/>
      <point x="169.025" y="530.0"/>
      <point x="155.175" y="530.0" type="curve"/>
      <point x="85.65" y="530.0" type="line" smooth="yes"/>
      <point x="74.35" y="530.0"/>
      <point x="70.975" y="525.625"/>
      <point x="70.975" y="515.875" type="curve"/>
      <point x="70.975" y="431.125" type="line" smooth="yes"/>
      <point x="70.975" y="421.925"/>
      <point x="75.35" y="418.55"/>
      <point x="81.275" y="418.55" type="curve"/>
      <point x="163.65" y="418.55" type="line" smooth="yes"/>
      <point x="170.575" y="418.55"/>
      <point x="173.675" y="421.925"/>
    </contour>
    <contour>
      <point x="173.25" y="-154.875" type="curve"/>
      <point x="173.25" y="-154.875" type="line"/>
      <point x="152.075" y="336.05" type="line" smooth="yes"/>
      <point x="151.525" y="345.9"/>
      <point x="147.15" y="349.55"/>
      <point x="135.75" y="349.55" type="curve"/>
      <point x="106.625" y="349.55" type="line" smooth="yes"/>
      <point x="96.775" y="349.55"/>
      <point x="94.5" y="345.9"/>
      <point x="93.675" y="337.6" type="curve"/>
      <point x="72.675" y="-153.6" type="line" smooth="yes"/>
      <point x="72.125" y="-161.35"/>
      <point x="76.05" y="-165.0"/>
      <point x="81.525" y="-165.0" type="curve"/>
      <point x="163.95" y="-165.0" type="line" smooth="yes"/>
      <point x="169.875" y="-165.0"/>
      <point x="173.8" y="-160.625"/>
    </contour>
  </outline>
</glyph>
<glyph name="cent" format="2">
  <advance width="558.0"/>
  <unicode hex="00A2"/>
  <outline>
    <contour>
      <point x="322.6" y="17.4" type="curve"/>
      <point x="322.6" y="17.4" type="line"/>
      <point x="322.6" y="128.675" type="line" smooth="yes"/>
      <point x="322.6" y="136.975"/>
      <point x="319.225" y="141.625"/>
      <point x="309.375" y="141.625" type="curve"/>
      <point x="273.55" y="141.625" type="line" smooth="yes"/>
      <point x="263.15" y="141.625"/>
      <point x="258.5" y="136.975"/>
      <point x="258.5" y="127.125" type="curve"/>
      <point x="258.5" y="15.850000000000001" type="line" smooth="yes"/>
      <point x="258.5" y="5.375"/>
      <point x="262.6" y="0.0"/>
      <point x="274.625" y="0.0" type="curve"/>
      <point x="304.65" y="0.0" type="line" smooth="yes"/>
      <point x="317.225" y="0.0"/>
      <point x="322.6" y="5.375"/>
    </contour>
    <contour>
      <point x="322.6" y="617.775" type="curve"/>
      <point x="322.6" y="617.775" type="line"/>
      <point x="322.6" y="729.05" type="line" smooth="yes"/>
      <point x="322.6" y="737.35"/>
      <point x="319.225" y="742.0"/>
      <point x="309.375" y="742.0" type="curve"/>
      <point x="273.55" y="742.0" type="line" smooth="yes"/>
      <point x="263.15" y="742.0"/>
      <point x="258.5" y="737.35"/>
      <point x="258.5" y="727.5" type="curve"/>
      <point x="258.5" y="616.225" type="line" smooth="yes"/>
      <point x="258.5" y="605.75"/>
      <point x="262.6" y="600.375"/>
      <point x="274.625" y="600.375" type="curve"/>
      <point x="304.65" y="600.375" type="line" smooth="yes"/>
      <point x="317.225" y="600.375"/>
      <point x="322.6" y="605.75"/>
    </contour>
    <component base="c" yOffset="111.0"/>
  </outline>
</glyph>
<glyph name="sterling" format="2">
  <advance width="615.425"/>
  <unicode hex="00A3"/>
  <outline>
    <contour>
      <point x="22.75" y="0.0" type="curve"/>
      <point x="22.75" y="0.0" type="line"/>
      <point x="365.55" y="0.0" type="line" smooth="yes"/>
      <point x="463.725" y="0.0"/>
      <point x="535.7" y="43.35"/>
      <point x="565.425" y="128.65" type="curve"/>
      <point x="567.7" y="135.125"/>
      <point x="563.6" y="139.05"/>
      <point x="556.575" y="141.325" type="curve"/>
      <point x="506.8" y="154.45" type="line" smooth="yes"/>
      <point x="500.775" y="156.0"/>
      <point x="495.225" y="153.725"/>
      <point x="492.675" y="147.8" type="curve"/>
      <point x="470.15" y="93.825"/>
      <point x="427.925" y="74.1"/>
      <point x="361.15" y="74.1" type="curve"/>
      <point x="186.175" y="74.1" type="line" smooth="yes"/>
      <point x="179.525" y="74.1"/>
      <point x="177.7" y="76.92500000000001"/>
      <point x="183.35" y="83.30000000000001" type="curve"/>
      <point x="199.725" y="100.575"/>
      <point x="231.85" y="145.675"/>
      <point x="234.325" y="235.025" type="curve"/>
      <point x="236.25" y="273.25"/>
      <point x="233.725" y="308.5"/>
      <point x="227.925" y="346.5" type="curve"/>
      <point x="227.2" y="352.05"/>
      <point x="230.2" y="354.6"/>
      <point x="236.025" y="354.6" type="curve"/>
      <point x="379.7" y="354.6" type="line" smooth="yes"/>
      <point x="384.8" y="354.6"/>
      <point x="387.35" y="357.15"/>
      <point x="387.35" y="362.25" type="curve"/>
      <point x="387.35" y="403.825" type="line" smooth="yes"/>
      <point x="387.35" y="407.925"/>
      <point x="384.8" y="410.475"/>
      <point x="379.7" y="410.475" type="curve"/>
      <point x="224.925" y="410.475" type="line" smooth="yes"/>
      <point x="220.55" y="410.475"/>
      <point x="217.725" y="414.025"/>
      <point x="216.725" y="418.125" type="curve"/>
      <point x="206.375" y="453.125"/>
      <point x="193.95" y="511.475"/>
      <point x="193.95" y="558.475" type="curve"/>
      <point x="193.95" y="634.45"/>
      <point x="250.65" y="678.475"/>
      <point x="322.7" y="678.475" type="curve"/>
      <point x="382.975" y="678.475"/>
      <point x="416.825" y="653.2"/>
      <point x="436.525" y="615.775" type="curve"/>
      <point x="439.075" y="610.675"/>
      <point x="444.45" y="609.4"/>
      <point x="450.825" y="611.675" type="curve"/>
      <point x="505.175" y="630.65" type="line" smooth="yes"/>
      <point x="510.825" y="632.925"/>
      <point x="515.375" y="635.025"/>
      <point x="512.825" y="641.4" type="curve"/>
      <point x="485.575" y="705.825"/>
      <point x="399.575" y="752.0"/>
      <point x="312.725" y="752.0" type="curve"/>
      <point x="182.525" y="752.0"/>
      <point x="72.75" y="654.0"/>
      <point x="106.675" y="493.075" type="curve"/>
      <point x="121.375" y="417.95" type="line" smooth="yes"/>
      <point x="122.375" y="412.3"/>
      <point x="119.1" y="409.75"/>
      <point x="113.725" y="409.75" type="curve"/>
      <point x="36.6" y="409.75" type="line" smooth="yes"/>
      <point x="32.225" y="409.75"/>
      <point x="29.4" y="407.2"/>
      <point x="29.4" y="402.1" type="curve"/>
      <point x="29.4" y="362.075" type="line" smooth="yes"/>
      <point x="29.4" y="356.7"/>
      <point x="32.225" y="353.875"/>
      <point x="36.6" y="353.875" type="curve"/>
      <point x="126.575" y="353.875" type="line" smooth="yes"/>
      <point x="130.675" y="353.875"/>
      <point x="132.775" y="352.325"/>
      <point x="133.775" y="347.225" type="curve"/>
      <point x="141.225" y="291.225"/>
      <point x="145.125" y="250.825"/>
      <point x="145.125" y="220.325" type="curve"/>
      <point x="145.125" y="117.75"/>
      <point x="103.7" y="72.375"/>
      <point x="51.25" y="73.1" type="curve"/>
      <point x="21.2" y="73.1" type="line" smooth="yes"/>
      <point x="14.55" y="73.1"/>
      <point x="12.0" y="70.275"/>
      <point x="12.0" y="63.900000000000006" type="curve"/>
      <point x="12.0" y="11.3" type="line" smooth="yes"/>
      <point x="12.0" y="4.375"/>
      <point x="15.825" y="0.0"/>
    </contour>
  </outline>
</glyph>
